<svg xmlns="http://www.w3.org/2000/svg" width="360" height="79.067" viewBox="0 0 360 79.067">
  <g id="상단_이벤트" data-name="상단 이벤트" transform="translate(0 -55)">
    <g id="그룹_1031" data-name="그룹 1031">
      <rect id="사각형_518" data-name="사각형 518" width="360" height="62" transform="translate(0 55)" fill="#24b277"/>
      <rect id="사각형_521" data-name="사각형 521" width="360" height="62" transform="translate(0 55)" fill="#24b277"/>
      <path id="패스_610" data-name="패스 610" d="M0,0H360V79.067H0Z" transform="translate(0 55)" fill="#82cbc4"/>
    </g>
    <g id="그룹_1079" data-name="그룹 1079" transform="translate(-93.504 -318.91)">
      <g id="그룹_1078" data-name="그룹 1078" transform="translate(399.586 380.645)">
        <path id="패스_1495" data-name="패스 1495" d="M267.392,659.521a1.447,1.447,0,0,0-2.1.133,1.58,1.58,0,0,0,.128,2.173c.083.075.166.151.25.224a1.447,1.447,0,0,0,2.092-.182,1.58,1.58,0,0,0-.176-2.17C267.524,659.64,267.458,659.58,267.392,659.521Z" transform="translate(-260.866 -637.155)" fill="#fff"/>
        <path id="패스_1496" data-name="패스 1496" d="M262.288,608.084c.051-.072.1-.143.156-.213a1.579,1.579,0,0,0-.251-2.163,1.45,1.45,0,0,0-2.085.26c-.07.092-.137.185-.2.278a1.578,1.578,0,0,0,.307,2.154,1.444,1.444,0,0,0,.87.3A1.466,1.466,0,0,0,262.288,608.084Z" transform="translate(-257.259 -600.659)" fill="#fff"/>
        <path id="패스_1497" data-name="패스 1497" d="M286.64,591.982a1.494,1.494,0,0,0-1.693-1.288c-.109.018-.219.037-.328.056a1.537,1.537,0,0,0-1.2,1.787,1.471,1.471,0,0,0,1.722,1.245l.258-.044A1.533,1.533,0,0,0,286.64,591.982Z" transform="translate(-273.406 -590.675)" fill="#fff"/>
        <path id="패스_1498" data-name="패스 1498" d="M255.248,634.634a1.5,1.5,0,0,0-1.613-1.395,1.525,1.525,0,0,0-1.345,1.673c.01.114.021.229.034.343a1.505,1.505,0,0,0,1.459,1.364,1.434,1.434,0,0,0,.185-.01,1.528,1.528,0,0,0,1.306-1.706Q255.259,634.769,255.248,634.634Z" transform="translate(-252.284 -619.57)" fill="#fff"/>
        <path id="패스_1499" data-name="패스 1499" d="M292.937,669c-.087,0-.174.008-.261.011a1.542,1.542,0,0,0,.027,3.079h.058c.11,0,.221-.008.331-.014a1.52,1.52,0,0,0,1.405-1.618A1.5,1.5,0,0,0,292.937,669Z" transform="translate(-278.728 -643.854)" fill="#fff"/>
        <path id="패스_1500" data-name="패스 1500" d="M326.376,626.716c-.016-.114-.033-.228-.051-.341a1.492,1.492,0,0,0-1.711-1.263,1.534,1.534,0,0,0-1.217,1.774c.014.09.028.179.04.268a1.476,1.476,0,0,0,1.862,1.266A1.541,1.541,0,0,0,326.376,626.716Z" transform="translate(-300.552 -614.042)" fill="#fff"/>
        <path id="패스_1501" data-name="패스 1501" d="M319.457,653.732a1.452,1.452,0,0,0-2.06.424c-.049.076-.1.151-.148.225a1.577,1.577,0,0,0,.362,2.145,1.438,1.438,0,0,0,1.245.225,1.48,1.48,0,0,0,.823-.6c.063-.094.126-.188.188-.283A1.576,1.576,0,0,0,319.457,653.732Z" transform="translate(-296.209 -633.311)" fill="#fff"/>
        <path id="패스_1502" data-name="패스 1502" d="M311.8,602.925a1.58,1.58,0,0,0-.232-2.164c-.088-.073-.176-.144-.266-.214a1.449,1.449,0,0,0-2.08.3,1.577,1.577,0,0,0,.287,2.157c.069.054.136.109.2.164a1.445,1.445,0,0,0,1.32.284A1.481,1.481,0,0,0,311.8,602.925Z" transform="translate(-290.736 -597.165)" fill="#fff"/>
      </g>
    </g>
    <text id="_안심人_이_되어가는_여정_" data-name="&quot;안심人&quot;이 되어가는 여정!" transform="translate(61 94)" fill="#fff" font-size="22" font-family="NotoSansCJKkr-Bold, Noto Sans CJK KR" font-weight="700" letter-spacing="-0.03em"><tspan x="0" y="0">&quot;안심人&quot;이 되어가는 여정!</tspan></text>
    <g id="그룹_1103" data-name="그룹 1103" transform="translate(-276.163 -677.243)">
      <g id="그룹_1100" data-name="그룹 1100" transform="translate(600.927 762.393)">
        <g id="그룹_1091" data-name="그룹 1091" transform="translate(3.163 13.27)">
          <path id="패스_1516" data-name="패스 1516" d="M706.318,817.181v2.246a1.185,1.185,0,0,1-1.186,1.185h-18.25a1.225,1.225,0,0,1-.278-.033,1.187,1.187,0,0,1-.906-1.152v-2.246A1.185,1.185,0,0,1,686.883,816h18.25A1.185,1.185,0,0,1,706.318,817.181Z" transform="translate(-685.698 -815.997)" fill="#ffa93c"/>
        </g>
        <g id="그룹_1092" data-name="그룹 1092" transform="translate(1.346 17.852)">
          <path id="패스_1517" data-name="패스 1517" d="M690.773,834.539v4.582H679.542a1.165,1.165,0,0,1-.5-.111,1.182,1.182,0,0,1-.685-1.073v-2.245a1.185,1.185,0,0,1,1.184-1.186h1.539a1.223,1.223,0,0,0,.278.033Z" transform="translate(-678.358 -834.506)" fill="#fecf5b"/>
          <path id="패스_1518" data-name="패스 1518" d="M706.346,834.539H689.637a1.223,1.223,0,0,1-.278-.033H706.07A1.207,1.207,0,0,1,706.346,834.539Z" transform="translate(-686.636 -834.506)" fill="#fee8b4"/>
        </g>
        <g id="그룹_1093" data-name="그룹 1093" transform="translate(0.333 22.356)">
          <path id="패스_1519" data-name="패스 1519" d="M693.833,857.3a1.2,1.2,0,0,1-.133.008H675.45a1.185,1.185,0,0,1-1.184-1.186v-2.245a1.185,1.185,0,0,1,1.184-1.184h.514a1.165,1.165,0,0,0,.5.111h9.924v4.5Z" transform="translate(-674.266 -852.697)" fill="#ffa93c"/>
        </g>
        <g id="그룹_1094" data-name="그룹 1094" transform="translate(3.541 26.963)">
          <path id="패스_1520" data-name="패스 1520" d="M707.846,872.493v2.243a1.186,1.186,0,0,1-1.186,1.186h-1.476a1.155,1.155,0,0,0-.5-.111H687.909a1.186,1.186,0,0,1-.683-1.075v-2.243a1.184,1.184,0,0,1,1.051-1.178,1.146,1.146,0,0,1,.133-.008h18.25A1.185,1.185,0,0,1,707.846,872.493Z" transform="translate(-687.226 -871.307)" fill="#fecf5b"/>
        </g>
        <g id="그룹_1095" data-name="그룹 1095" transform="translate(1.566 31.466)">
          <path id="패스_1521" data-name="패스 1521" d="M690.133,889.5v4.615h-9.7a1.186,1.186,0,0,1-1.185-1.186v-2.245a1.185,1.185,0,0,1,1.185-1.184Z" transform="translate(-679.245 -889.499)" fill="#ffa93c"/>
        </g>
        <g id="그룹_1097" data-name="그룹 1097" transform="translate(3.393 0)">
          <g id="그룹_1096" data-name="그룹 1096" transform="translate(0 0.739)">
            <path id="패스_1522" data-name="패스 1522" d="M696.118,765.378l.345,4.6-8.4.63a1.188,1.188,0,0,1-1.27-1.094l-.168-2.239a1.185,1.185,0,0,1,1.092-1.27Z" transform="translate(-686.627 -765.378)" fill="#ffa93c"/>
          </g>
          <path id="패스_1523" data-name="패스 1523" d="M736.039,763.489l.168,2.239A1.187,1.187,0,0,1,735.115,767l-9.8.735-.345-4.6,9.8-.735A1.185,1.185,0,0,1,736.039,763.489Z" transform="translate(-715.474 -762.393)" fill="#f2941d"/>
        </g>
        <g id="그룹_1099" data-name="그룹 1099" transform="translate(0 6.238)">
          <g id="그룹_1098" data-name="그룹 1098">
            <path id="패스_1524" data-name="패스 1524" d="M693.665,790.586l-.209,2.235a1.187,1.187,0,0,1-1.291,1.07l-18.171-1.7a1.186,1.186,0,0,1-1.069-1.291l.209-2.235a1.186,1.186,0,0,1,1.29-1.07l2.476.232s17.029,1.637,16.367,1.572A1.53,1.53,0,0,1,693.665,790.586Z" transform="translate(-672.921 -787.591)" fill="#fecf5b"/>
          </g>
          <path id="패스_1525" data-name="패스 1525" d="M735.937,794.374l-.209,2.235a1.187,1.187,0,0,1-1.291,1.07l-5.337-.5.426-4.555,6.012.563A1.531,1.531,0,0,1,735.937,794.374Z" transform="translate(-715.193 -791.379)" fill="#ffa93c"/>
        </g>
        <path id="패스_1526" data-name="패스 1526" d="M736.714,835.791v2.245a1.185,1.185,0,0,1-1.186,1.184h-7.019v-4.582H735.8A1.186,1.186,0,0,1,736.714,835.791Z" transform="translate(-714.747 -816.753)" fill="#ffa93c"/>
        <path id="패스_1527" data-name="패스 1527" d="M723.228,820.612V816h10.144a1.185,1.185,0,0,1,1.186,1.184v2.246a1.185,1.185,0,0,1-1.186,1.185Z" transform="translate(-710.774 -802.727)" fill="#f2941d"/>
        <path id="패스_1528" data-name="패스 1528" d="M732.96,890.683v2.245a1.186,1.186,0,0,1-1.186,1.186h-8.546V889.5h8.546a1.155,1.155,0,0,1,.5.111A1.18,1.18,0,0,1,732.96,890.683Z" transform="translate(-710.774 -858.033)" fill="#f2941d"/>
        <path id="패스_1529" data-name="패스 1529" d="M731.727,854.22v2.245a1.184,1.184,0,0,1-1.052,1.178h-7.446v-4.5h7.815A1.185,1.185,0,0,1,731.727,854.22Z" transform="translate(-710.774 -830.68)" fill="#f2941d"/>
        <path id="패스_1530" data-name="패스 1530" d="M742.882,872.493v2.243a1.186,1.186,0,0,1-1.186,1.186h-1.476a1.155,1.155,0,0,0-.5-.111H733.79v-4.5H741.7A1.185,1.185,0,0,1,742.882,872.493Z" transform="translate(-718.721 -844.344)" fill="#ffa93c"/>
      </g>
      <g id="그룹_1102" data-name="그룹 1102" transform="translate(577.24 770.544)">
        <g id="그룹_1101" data-name="그룹 1101" transform="translate(0 0)">
          <path id="패스_1531" data-name="패스 1531" d="M605.125,814.418a14.346,14.346,0,1,1-8.784-18.288A14.346,14.346,0,0,1,605.125,814.418Z" transform="translate(-577.24 -795.317)" fill="#fed97f"/>
          <path id="패스_1532" data-name="패스 1532" d="M610.916,821.9a11.584,11.584,0,1,1-7.094-14.767A11.584,11.584,0,0,1,610.916,821.9Z" transform="translate(-585.636 -803.712)" fill="#ffa93c"/>
        </g>
        <text id="P" transform="translate(7.775 17.575) rotate(19.343)" fill="#fff" font-size="17" font-family="SegoeUI, Segoe UI"><tspan x="0" y="0">P</tspan></text>
      </g>
    </g>
    <text id="_3만원_10만원_50만원_상상_" data-name="3만원 / 10만원 / 50만원 / 상상↑" transform="translate(180 118)" fill="#fff" font-size="14" font-family="NotoSansCJKkr-Medium, Noto Sans CJK KR" font-weight="500" letter-spacing="-0.03em" opacity="0.4"><tspan x="-91.49" y="0">3만원 / 10만원 / 50만원 / 상상↑</tspan></text>
    <text id="_3만원" data-name="3만원" transform="translate(105 118)" fill="#fff" font-size="14" font-family="NotoSansCJKkr-Medium, Noto Sans CJK KR" font-weight="500" letter-spacing="-0.03em"><tspan x="-16.45" y="0">3만원</tspan></text>
    <path id="패스_1533" data-name="패스 1533" d="M1283.624,461.9s-4.385,1.619-6.414,3.517-3.949,7.789-3.949,7.789-1.648-4.94-3.643-7.2-6.721-3.8-6.721-3.8,4.626-1.24,6.59-3.464,3.391-7.2,3.391-7.2,1.452,5.371,3.677,7.139S1283.624,461.9,1283.624,461.9Z" transform="translate(-1252.896 -378.368)" fill="#fff"/>
  </g>
</svg>
