<svg xmlns="http://www.w3.org/2000/svg" width="46.129" height="51.611" viewBox="0 0 46.129 51.611"><defs><style>.a{fill:#ffedb4;}.b{fill:#01dde9;}.c{fill:#fec800;}.d{fill:#85f8ff;}.e{fill:#f16061;}.f{fill:#3f3f3f;}</style></defs><g transform="translate(-12.18 -58.613)"><circle class="a" cx="16.691" cy="16.691" r="16.691" transform="translate(24.927 65.553)"/><g transform="translate(12.18 58.613)"><g transform="translate(1.398 1.219)"><path class="b" d="M45.292,88.349a21.5,21.5,0,0,0-1.448-14.685A19.078,19.078,0,0,0,38.26,67l-1.8,2.4C44.965,73.915,45.933,82.253,45.292,88.349Z" transform="translate(-27.727 -64.721)"/><path class="b" d="M73.08,137.994a6.942,6.942,0,0,1,5.044,1.894l.82-2.459a9.751,9.751,0,0,0-4.288-1.034,11.684,11.684,0,0,0-7.4,3.072A14.043,14.043,0,0,1,73.08,137.994Z" transform="translate(-45.669 -105.157)"/><path class="c" d="M33.946,147.661l6.341,7.432,1.239-.454-6.89-8.106Z" transform="translate(-26.261 -111.064)"/><path class="d" d="M28.66,153.892c.01.01.024.015.034.026l4.564,5.244,3.114-1.142-5.964-6.989Z" transform="translate(-23.181 -113.686)"/><path class="e" d="M25.941,160.776c.008.008.02.012.028.021l3.614,4.159,1.251-.459-4.211-4.838Z" transform="translate(-21.597 -118.713)"/><path class="c" d="M20.485,167.1l1.636,2.026,3.444-1.263-3.256-3.747Z" transform="translate(-18.417 -121.308)"/><path class="b" d="M15.53,175.7l2.876-1.055-1.271-1.573Z" transform="translate(-15.53 -126.531)"/><path class="e" d="M36.685,141.069c.01.011.025.016.034.028l7.238,8.515,2.881-1.057L38.3,138.431Z" transform="translate(-27.857 -106.343)"/><path class="c" d="M64.757,65.056l-.28,1.639,1.47-.774a.442.442,0,0,1,.411,0l1.471.774-.282-1.638a.442.442,0,0,1,.127-.391l1.19-1.16-1.643-.239a.443.443,0,0,1-.332-.242l-.736-1.491-.735,1.491a.443.443,0,0,1-.333.242l-1.645.239,1.19,1.16A.44.44,0,0,1,64.757,65.056Z" transform="translate(-43.448 -61.534)"/><path class="c" d="M30.831,109.776l-.281,1.638,1.471-.773a.443.443,0,0,1,.411,0l1.47.773-.28-1.638a.442.442,0,0,1,.127-.391l1.19-1.16-1.645-.238a.441.441,0,0,1-.332-.242l-.735-1.491-.737,1.491a.441.441,0,0,1-.332.241l-1.643.238,1.19,1.16A.441.441,0,0,1,30.831,109.776Z" transform="translate(-23.679 -87.594)"/></g><path class="f" d="M34.183,68.54c14.268,7.134,7.264,25.359,7.191,25.542a.417.417,0,0,0,.767.328c4.893-10.6,3.226-18.111.965-22.543A19.062,19.062,0,0,0,36.924,64.7a.417.417,0,0,0-.554.1l-2.334,3.112a.417.417,0,0,0,.147.623Zm8.2,3.745A21.5,21.5,0,0,1,43.83,86.97c.641-6.1-.328-14.435-8.83-18.948l1.8-2.4A19.078,19.078,0,0,1,42.382,72.285Z" transform="translate(-24.867 -62.123)"/><path class="f" d="M76,135.683a10.7,10.7,0,0,0-4.991-1.288c-5.829,0-9.766,5.08-9.93,5.3a.417.417,0,0,0,.547.61,15.727,15.727,0,0,1,7.808-2.639,5.712,5.712,0,0,1,4.855,2.118.417.417,0,0,0,.747-.093l1.167-3.5A.417.417,0,0,0,76,135.683Zm-.7.58-.82,2.459a6.942,6.942,0,0,0-5.044-1.894A14.043,14.043,0,0,0,63.6,138.3a11.684,11.684,0,0,1,7.4-3.072A9.75,9.75,0,0,1,75.3,136.263Z" transform="translate(-40.624 -102.773)"/><path class="f" d="M24.283,135.874a.417.417,0,0,0-.675.052l-11.366,18.6a.417.417,0,0,0,.5.609l10.812-3.964a.414.414,0,0,0,.25-.092l9.6-3.521a.417.417,0,0,0,.175-.661Zm-10.7,18.064,1.605-2.628,1.271,1.573Zm3.7-1.358-1.636-2.026,1.824-2.984,3.256,3.746Zm4.283-1.571-3.614-4.159c-.008-.009-.019-.013-.028-.021l.683-1.117,4.211,4.838Zm2.09-.767L19.091,145c-.01-.011-.023-.016-.034-.026l1.748-2.86,5.964,6.989ZM27.6,148.8l-6.341-7.431.69-1.129,6.891,8.106Zm2.073-.76-7.238-8.515c-.01-.012-.024-.017-.034-.028l1.612-2.638,8.54,10.124Z" transform="translate(-12.18 -103.548)"/><path class="f" d="M72.453,97.863a.417.417,0,0,0,0,.835h1.174a.417.417,0,1,0,0-.835Z" transform="translate(-47.059 -81.485)"/><path class="f" d="M79.641,98.7h1.173a.417.417,0,1,0,0-.835H79.641a.417.417,0,0,0,0,.835Z" transform="translate(-51.248 -81.485)"/><path class="f" d="M77.871,93.594a.417.417,0,0,0-.835,0v1.173a.417.417,0,0,0,.835,0Z" transform="translate(-49.973 -78.754)"/><path class="f" d="M77.453,100.364a.417.417,0,0,0-.417.417v1.174a.417.417,0,0,0,.835,0v-1.174A.417.417,0,0,0,77.453,100.364Z" transform="translate(-49.973 -82.942)"/><path class="f" d="M85.675,116.079h1.056a.417.417,0,1,0,0-.835H85.675a.417.417,0,1,0,0,.835Z" transform="translate(-54.764 -91.613)"/><path class="f" d="M92.144,116.079H93.2a.417.417,0,0,0,0-.835H92.144a.417.417,0,0,0,0,.835Z" transform="translate(-58.534 -91.613)"/><path class="f" d="M90.176,112.917a.417.417,0,0,0,.417-.417v-1.056a.417.417,0,1,0-.835,0V112.5A.417.417,0,0,0,90.176,112.917Z" transform="translate(-57.387 -89.155)"/><path class="f" d="M90.176,117.494a.417.417,0,0,0-.417.417v1.057a.417.417,0,0,0,.835,0v-1.057A.417.417,0,0,0,90.176,117.494Z" transform="translate(-57.387 -92.924)"/><path class="f" d="M71.7,156.883H70.639a.417.417,0,1,0,0,.835H71.7a.417.417,0,1,0,0-.835Z" transform="translate(-46.002 -115.877)"/><path class="f" d="M78.165,156.883H77.109a.417.417,0,1,0,0,.835h1.056a.417.417,0,1,0,0-.835Z" transform="translate(-49.773 -115.877)"/><path class="f" d="M75.139,154.555a.417.417,0,0,0,.417-.417v-1.056a.417.417,0,0,0-.835,0v1.056A.417.417,0,0,0,75.139,154.555Z" transform="translate(-48.625 -113.418)"/><path class="f" d="M75.139,159.133a.417.417,0,0,0-.417.417v1.057a.417.417,0,0,0,.835,0V159.55A.417.417,0,0,0,75.139,159.133Z" transform="translate(-48.625 -117.188)"/><path class="f" d="M62.345,63.378l-.37,2.167a.417.417,0,0,0,.605.439l1.944-1.023,1.945,1.023a.417.417,0,0,0,.605-.44L66.7,63.378l1.573-1.534a.418.418,0,0,0-.231-.712l-2.173-.316L64.9,58.845a.417.417,0,0,0-.374-.232h0a.417.417,0,0,0-.374.232l-.972,1.971L61,61.132a.418.418,0,0,0-.231.712Zm1.444-2.055.735-1.491.736,1.491a.443.443,0,0,0,.332.242l1.643.239-1.19,1.16a.442.442,0,0,0-.127.391l.282,1.638-1.471-.774a.442.442,0,0,0-.411,0l-1.47.774.28-1.639a.44.44,0,0,0-.126-.39l-1.19-1.16,1.645-.239A.443.443,0,0,0,63.789,61.323Z" transform="translate(-40.422 -58.613)"/><path class="f" d="M28.418,108.1l-.372,2.166a.417.417,0,0,0,.605.44l1.945-1.022,1.944,1.022a.418.418,0,0,0,.606-.44l-.371-2.166,1.574-1.534a.417.417,0,0,0-.231-.712l-2.175-.315-.972-1.971a.418.418,0,0,0-.374-.232h0a.417.417,0,0,0-.374.232l-.974,1.971-2.173.315a.417.417,0,0,0-.232.712Zm1.442-2.054.736-1.491.735,1.491a.441.441,0,0,0,.332.242l1.645.238-1.19,1.16a.442.442,0,0,0-.127.391l.28,1.638-1.47-.773a.443.443,0,0,0-.411,0l-1.471.773.281-1.638a.441.441,0,0,0-.127-.391l-1.19-1.16,1.643-.238A.441.441,0,0,0,29.861,106.043Z" transform="translate(-20.652 -84.672)"/></g></g></svg>