<svg xmlns="http://www.w3.org/2000/svg" width="360" height="95.867" viewBox="0 0 360 95.867">
  <g id="상단_이벤트" data-name="상단 이벤트" transform="translate(0 -55)">
    <g id="그룹_1031" data-name="그룹 1031">
      <rect id="사각형_518" data-name="사각형 518" width="360" height="62" transform="translate(0 55)" fill="#24b277"/>
      <rect id="사각형_521" data-name="사각형 521" width="360" height="62" transform="translate(0 55)" fill="#24b277"/>
      <path id="패스_610" data-name="패스 610" d="M0,0H360V95.867H0Z" transform="translate(0 55)" fill="#3ac1d6"/>
    </g>
    <g id="그룹_1090" data-name="그룹 1090" transform="translate(0 55)" opacity="0.5">
      <g id="그룹_1089" data-name="그룹 1089" transform="translate(173.396)">
        <path id="패스_1511" data-name="패스 1511" d="M1085.6,0,899,95.867,969.679,0Z" transform="translate(-899)" fill="#21b4cc"/>
        <path id="패스_1512" data-name="패스 1512" d="M1085.6,519.89v49.065L899,586.3Z" transform="translate(-899 -490.435)" fill="#21b4cc"/>
      </g>
      <path id="패스_1513" data-name="패스 1513" d="M186.6,95.867,0,49.84V0Z" fill="#21b4cc"/>
      <path id="패스_1514" data-name="패스 1514" d="M629.789,95.867V0h-70.68Z" transform="translate(-448.17)" fill="#21b4cc"/>
      <path id="패스_1515" data-name="패스 1515" d="M0,874.589l186.6,26H0Z" transform="translate(0 -804.724)" fill="#21b4cc"/>
    </g>
    <g id="그룹_1079" data-name="그룹 1079" transform="translate(-88.504 -320.91)">
      <g id="그룹_1078" data-name="그룹 1078" transform="translate(399.586 380.645)">
        <path id="패스_1495" data-name="패스 1495" d="M267.392,659.521a1.447,1.447,0,0,0-2.1.133,1.58,1.58,0,0,0,.128,2.173c.083.075.166.151.25.224a1.447,1.447,0,0,0,2.092-.182,1.58,1.58,0,0,0-.176-2.17C267.524,659.64,267.458,659.58,267.392,659.521Z" transform="translate(-260.866 -637.155)" fill="#fff"/>
        <path id="패스_1496" data-name="패스 1496" d="M262.288,608.084c.051-.072.1-.143.156-.213a1.579,1.579,0,0,0-.251-2.163,1.45,1.45,0,0,0-2.085.26c-.07.092-.137.185-.2.278a1.578,1.578,0,0,0,.307,2.154,1.444,1.444,0,0,0,.87.3A1.466,1.466,0,0,0,262.288,608.084Z" transform="translate(-257.259 -600.659)" fill="#fff"/>
        <path id="패스_1497" data-name="패스 1497" d="M286.64,591.982a1.494,1.494,0,0,0-1.693-1.288c-.109.018-.219.037-.328.056a1.537,1.537,0,0,0-1.2,1.787,1.471,1.471,0,0,0,1.722,1.245l.258-.044A1.533,1.533,0,0,0,286.64,591.982Z" transform="translate(-273.406 -590.675)" fill="#fff"/>
        <path id="패스_1498" data-name="패스 1498" d="M255.248,634.634a1.5,1.5,0,0,0-1.613-1.395,1.525,1.525,0,0,0-1.345,1.673c.01.114.021.229.034.343a1.505,1.505,0,0,0,1.459,1.364,1.434,1.434,0,0,0,.185-.01,1.528,1.528,0,0,0,1.306-1.706Q255.259,634.769,255.248,634.634Z" transform="translate(-252.284 -619.57)" fill="#fff"/>
        <path id="패스_1499" data-name="패스 1499" d="M292.937,669c-.087,0-.174.008-.261.011a1.542,1.542,0,0,0,.027,3.079h.058c.11,0,.221-.008.331-.014a1.52,1.52,0,0,0,1.405-1.618A1.5,1.5,0,0,0,292.937,669Z" transform="translate(-278.728 -643.854)" fill="#fff"/>
        <path id="패스_1500" data-name="패스 1500" d="M326.376,626.716c-.016-.114-.033-.228-.051-.341a1.492,1.492,0,0,0-1.711-1.263,1.534,1.534,0,0,0-1.217,1.774c.014.09.028.179.04.268a1.476,1.476,0,0,0,1.862,1.266A1.541,1.541,0,0,0,326.376,626.716Z" transform="translate(-300.552 -614.042)" fill="#fff"/>
        <path id="패스_1501" data-name="패스 1501" d="M319.457,653.732a1.452,1.452,0,0,0-2.06.424c-.049.076-.1.151-.148.225a1.577,1.577,0,0,0,.362,2.145,1.438,1.438,0,0,0,1.245.225,1.48,1.48,0,0,0,.823-.6c.063-.094.126-.188.188-.283A1.576,1.576,0,0,0,319.457,653.732Z" transform="translate(-296.209 -633.311)" fill="#fff"/>
        <path id="패스_1502" data-name="패스 1502" d="M311.8,602.925a1.58,1.58,0,0,0-.232-2.164c-.088-.073-.176-.144-.266-.214a1.449,1.449,0,0,0-2.08.3,1.577,1.577,0,0,0,.287,2.157c.069.054.136.109.2.164a1.445,1.445,0,0,0,1.32.284A1.481,1.481,0,0,0,311.8,602.925Z" transform="translate(-290.736 -597.165)" fill="#fff"/>
      </g>
      <path id="패스_1505" data-name="패스 1505" d="M138.427,702.6a4.967,4.967,0,1,1-4.967-4.968A4.967,4.967,0,0,1,138.427,702.6Z" transform="translate(-31.499 -244.991)" fill="#fecf5b"/>
      <rect id="사각형_883" data-name="사각형 883" width="12.769" height="2.272" transform="matrix(0.609, -0.793, 0.793, 0.609, 114.926, 399.136)" fill="#fff"/>
    </g>
    <g id="그룹_1087" data-name="그룹 1087" transform="translate(-13.387 -39.616)">
      <g id="그룹_1085" data-name="그룹 1085" transform="translate(350.219 113.416)">
        <g id="그룹_1084" data-name="그룹 1084">
          <g id="그룹_1080" data-name="그룹 1080">
            <path id="패스_1506" data-name="패스 1506" d="M295.41,101.5l-.662,1.153-18.4,4.67-1.19-.684Z" transform="translate(-275.154 -101.496)" fill="#f05a29"/>
          </g>
          <g id="그룹_1081" data-name="그룹 1081" transform="translate(3.342 3.238)">
            <path id="패스_1507" data-name="패스 1507" d="M304.644,115.483l-.662,1.154-13.2,3.35-1.19-.684Z" transform="translate(-289.589 -115.483)" fill="#f05a29"/>
          </g>
          <g id="그룹_1082" data-name="그룹 1082" transform="translate(6.684 6.477)">
            <path id="패스_1508" data-name="패스 1508" d="M313.875,129.473l-.663,1.154-8,2.03-1.191-.684Z" transform="translate(-304.022 -129.473)" fill="#f05a29"/>
          </g>
          <g id="그룹_1083" data-name="그룹 1083" transform="translate(10.026 9.716)">
            <path id="패스_1509" data-name="패스 1509" d="M323.108,143.462l-.663,1.154-2.8.71-1.191-.684Z" transform="translate(-318.456 -143.462)" fill="#f05a29"/>
          </g>
        </g>
      </g>
      <g id="그룹_1086" data-name="그룹 1086" transform="translate(70.457 174.617)">
        <rect id="사각형_884" data-name="사각형 884" width="10.814" height="0.795" transform="translate(0 7.954) rotate(-47.354)" fill="#fff"/>
        <rect id="사각형_885" data-name="사각형 885" width="10.814" height="0.795" transform="translate(1.197 9.057) rotate(-47.362)" fill="#fff"/>
        <rect id="사각형_886" data-name="사각형 886" width="10.814" height="0.795" transform="translate(2.393 10.158) rotate(-47.354)" fill="#fff"/>
        <rect id="사각형_887" data-name="사각형 887" width="10.814" height="0.795" transform="translate(3.589 11.26) rotate(-47.348)" fill="#fff"/>
        <rect id="사각형_888" data-name="사각형 888" width="10.814" height="0.795" transform="matrix(0.677, -0.736, 0.736, 0.677, 4.787, 12.363)" fill="#fff"/>
        <rect id="사각형_889" data-name="사각형 889" width="10.814" height="0.795" transform="matrix(0.677, -0.736, 0.736, 0.677, 5.983, 13.464)" fill="#fff"/>
        <rect id="사각형_890" data-name="사각형 890" width="10.814" height="0.795" transform="matrix(0.677, -0.736, 0.736, 0.677, 7.179, 14.566)" fill="#fff"/>
      </g>
    </g>
    <text id="_안심人_이_되어가는_여정_" data-name="&quot;안심人&quot;이 되어가는 여정!" transform="translate(43 94)" fill="#fff" font-size="24" font-family="NotoSansCJKkr-Bold, Noto Sans CJK KR" font-weight="700" letter-spacing="-0.03em"><tspan x="0" y="0">&quot;안심人&quot;이 되어가는 여정!</tspan></text>
    <g id="그룹_1103" data-name="그룹 1103" transform="translate(-302.752 -661.312)">
      <g id="그룹_1100" data-name="그룹 1100" transform="translate(605.47 762.393)">
        <g id="그룹_1091" data-name="그룹 1091" transform="translate(3.77 15.816)">
          <path id="패스_1516" data-name="패스 1516" d="M710.273,817.408v2.677a1.413,1.413,0,0,1-1.413,1.412H687.11a1.46,1.46,0,0,1-.332-.039,1.414,1.414,0,0,1-1.08-1.373v-2.677A1.412,1.412,0,0,1,687.11,816h21.751A1.412,1.412,0,0,1,710.273,817.408Z" transform="translate(-685.698 -815.997)" fill="#ffa93c"/>
        </g>
        <g id="그룹_1092" data-name="그룹 1092" transform="translate(1.604 21.277)">
          <path id="패스_1517" data-name="패스 1517" d="M693.155,834.545v5.461H679.77a1.388,1.388,0,0,1-.595-.133,1.409,1.409,0,0,1-.817-1.279v-2.676a1.412,1.412,0,0,1,1.412-1.413H681.6a1.459,1.459,0,0,0,.332.039Z" transform="translate(-678.358 -834.506)" fill="#fecf5b"/>
          <path id="패스_1518" data-name="패스 1518" d="M709.6,834.545H689.691a1.459,1.459,0,0,1-.332-.039h19.916A1.436,1.436,0,0,1,709.6,834.545Z" transform="translate(-686.113 -834.506)" fill="#fee8b4"/>
        </g>
        <g id="그룹_1093" data-name="그룹 1093" transform="translate(0.397 26.644)">
          <path id="패스_1519" data-name="패스 1519" d="M697.587,858.188a1.427,1.427,0,0,1-.159.009H675.677a1.413,1.413,0,0,1-1.411-1.413v-2.676a1.412,1.412,0,0,1,1.411-1.411h.613a1.388,1.388,0,0,0,.595.133h11.827v5.358Z" transform="translate(-674.266 -852.697)" fill="#ffa93c"/>
        </g>
        <g id="그룹_1094" data-name="그룹 1094" transform="translate(4.221 32.135)">
          <path id="패스_1520" data-name="패스 1520" d="M711.8,872.72v2.674a1.413,1.413,0,0,1-1.413,1.414h-1.759a1.377,1.377,0,0,0-.6-.133H688.04a1.414,1.414,0,0,1-.814-1.281V872.72a1.411,1.411,0,0,1,1.253-1.4,1.356,1.356,0,0,1,.159-.009h21.75A1.413,1.413,0,0,1,711.8,872.72Z" transform="translate(-687.226 -871.307)" fill="#fecf5b"/>
        </g>
        <g id="그룹_1095" data-name="그룹 1095" transform="translate(1.866 37.502)">
          <path id="패스_1521" data-name="패스 1521" d="M692.222,889.5V895H680.657a1.414,1.414,0,0,1-1.412-1.413V890.91a1.412,1.412,0,0,1,1.412-1.411Z" transform="translate(-679.245 -889.499)" fill="#ffa93c"/>
        </g>
        <g id="그룹_1097" data-name="그룹 1097" transform="translate(4.044 0)">
          <g id="그룹_1096" data-name="그룹 1096" transform="translate(0 0.881)">
            <path id="패스_1522" data-name="패스 1522" d="M697.939,765.378l.411,5.485-10.005.75a1.417,1.417,0,0,1-1.514-1.3l-.2-2.668a1.412,1.412,0,0,1,1.3-1.513Z" transform="translate(-686.627 -765.378)" fill="#ffa93c"/>
          </g>
          <path id="패스_1523" data-name="패스 1523" d="M738.164,763.7l.2,2.668a1.414,1.414,0,0,1-1.3,1.515l-11.685.876-.411-5.485,11.686-.877A1.412,1.412,0,0,1,738.164,763.7Z" transform="translate(-713.654 -762.393)" fill="#f2941d"/>
        </g>
        <g id="그룹_1099" data-name="그룹 1099" transform="translate(0 7.435)">
          <g id="그룹_1098" data-name="그룹 1098">
            <path id="패스_1524" data-name="패스 1524" d="M697.645,791.161l-.249,2.664a1.414,1.414,0,0,1-1.538,1.276L674.2,793.074a1.413,1.413,0,0,1-1.274-1.538l.249-2.663a1.414,1.414,0,0,1,1.537-1.276l2.951.276s20.3,1.951,19.506,1.873A1.824,1.824,0,0,1,697.645,791.161Z" transform="translate(-672.921 -787.591)" fill="#fecf5b"/>
          </g>
          <path id="패스_1525" data-name="패스 1525" d="M737.249,794.71,737,797.374a1.414,1.414,0,0,1-1.538,1.276l-6.36-.6.508-5.429,7.165.67A1.824,1.824,0,0,1,737.249,794.71Z" transform="translate(-712.525 -791.14)" fill="#ffa93c"/>
        </g>
        <path id="패스_1526" data-name="패스 1526" d="M738.287,836.012v2.675a1.413,1.413,0,0,1-1.413,1.411h-8.365v-5.461H737.2A1.414,1.414,0,0,1,738.287,836.012Z" transform="translate(-712.108 -813.322)" fill="#ffa93c"/>
        <path id="패스_1527" data-name="패스 1527" d="M723.228,821.5V816h12.089a1.412,1.412,0,0,1,1.413,1.411v2.677a1.413,1.413,0,0,1-1.413,1.412Z" transform="translate(-708.385 -800.181)" fill="#f2941d"/>
        <path id="패스_1528" data-name="패스 1528" d="M734.826,890.91v2.676A1.414,1.414,0,0,1,733.413,895H723.228v-5.5h10.185a1.377,1.377,0,0,1,.6.133A1.407,1.407,0,0,1,734.826,890.91Z" transform="translate(-708.385 -851.997)" fill="#f2941d"/>
        <path id="패스_1529" data-name="패스 1529" d="M733.357,854.426V857.1a1.411,1.411,0,0,1-1.254,1.4h-8.875v-5.358h9.314A1.413,1.413,0,0,1,733.357,854.426Z" transform="translate(-708.385 -826.37)" fill="#f2941d"/>
        <path id="패스_1530" data-name="패스 1530" d="M744.626,872.72v2.674a1.413,1.413,0,0,1-1.413,1.414h-1.759a1.377,1.377,0,0,0-.6-.133H733.79v-5.368h9.423A1.413,1.413,0,0,1,744.626,872.72Z" transform="translate(-715.831 -839.172)" fill="#ffa93c"/>
      </g>
      <g id="그룹_1102" data-name="그룹 1102" transform="translate(577.24 772.107)">
        <g id="그룹_1101" data-name="그룹 1101" transform="translate(0 0)">
          <path id="패스_1531" data-name="패스 1531" d="M610.474,818.082a17.1,17.1,0,1,1-10.469-21.8A17.1,17.1,0,0,1,610.474,818.082Z" transform="translate(-577.24 -795.317)" fill="#fed97f"/>
          <path id="패스_1532" data-name="패스 1532" d="M615.235,824.856a13.806,13.806,0,1,1-8.454-17.6A13.806,13.806,0,0,1,615.235,824.856Z" transform="translate(-585.106 -803.182)" fill="#ffa93c"/>
        </g>
        <text id="P" transform="translate(8.754 22.406) rotate(19.343)" fill="#fff" font-size="21" font-family="SegoeUI, Segoe UI"><tspan x="0" y="0">P</tspan></text>
      </g>
    </g>
    <text id="_3만원_10만원_50만원_1000만원_상품이_" data-name="3만원 / 10만원 / 50만원 / 1000만원 
`상품이!" transform="translate(169 118)" fill="#fff" font-size="14" font-family="NotoSansCJKkr-Medium, Noto Sans CJK KR" font-weight="500" letter-spacing="-0.03em"><tspan x="-101.185" y="0">3만원 / 10만원 / 50만원 / 1000만원 </tspan><tspan font-size="20"><tspan x="-35.97" y="23">`상품이!</tspan></tspan></text>
    <path id="패스_1533" data-name="패스 1533" d="M1283.624,461.9s-4.385,1.619-6.414,3.517-3.949,7.789-3.949,7.789-1.648-4.94-3.643-7.2-6.721-3.8-6.721-3.8,4.626-1.24,6.59-3.464,3.391-7.2,3.391-7.2,1.452,5.371,3.677,7.139S1283.624,461.9,1283.624,461.9Z" transform="translate(-1224.896 -348.601)" fill="#ffa93c"/>
    <rect id="사각형_891" data-name="사각형 891" width="3.799" height="6.58" transform="matrix(0.765, -0.644, 0.644, 0.765, 238.012, 60.969)" fill="#cf4848"/>
    <path id="패스_1534" data-name="패스 1534" d="M1242.715,493.617a20.089,20.089,0,0,0-5.354,2.936c-1.694,1.584-3.3,6.5-3.3,6.5s-1.376-4.123-3.041-6.009-5.61-3.172-5.61-3.172,3.862-1.034,5.5-2.892,2.831-6.013,2.831-6.013,1.212,4.483,3.07,5.958S1242.715,493.617,1242.715,493.617Z" transform="translate(-1129.715 -429.101)" fill="#fff"/>
  </g>
</svg>
