<svg xmlns="http://www.w3.org/2000/svg" xmlns:xlink="http://www.w3.org/1999/xlink" width="360" height="79.067" viewBox="0 0 360 79.067">
  <defs>
    <linearGradient id="linear-gradient" x1="0.297" y1="0.226" x2="0.725" y2="0.745" gradientUnits="objectBoundingBox">
      <stop offset="0" stop-color="#a760c9"/>
      <stop offset="1" stop-color="#4e3a72"/>
    </linearGradient>
    <linearGradient id="linear-gradient-2" x1="0.297" y1="0.226" x2="0.725" y2="0.745" gradientUnits="objectBoundingBox">
      <stop offset="0" stop-color="#586fcb"/>
      <stop offset="1" stop-color="#8852ca"/>
    </linearGradient>
    <linearGradient id="linear-gradient-3" x1="0.442" y1="0.247" x2="0.5" y2="1.356" gradientUnits="objectBoundingBox">
      <stop offset="0" stop-color="#e1704c"/>
      <stop offset="1" stop-color="#8d369d"/>
    </linearGradient>
  </defs>
  <g id="상단_이벤트" data-name="상단 이벤트" transform="translate(0 -55)">
    <g id="그룹_1031" data-name="그룹 1031">
      <rect id="사각형_518" data-name="사각형 518" width="360" height="62" transform="translate(0 55)" fill="#24b277"/>
      <rect id="사각형_521" data-name="사각형 521" width="360" height="79.067" transform="translate(0 55)" fill="#24b277"/>
      <path id="패스_610" data-name="패스 610" d="M0,0H360V79.067H0Z" transform="translate(0 55)" fill="url(#linear-gradient)"/>
      <path id="패스_1534" data-name="패스 1534" d="M0,0H360V79.067H0Z" transform="translate(0 55)" fill="url(#linear-gradient-2)"/>
      <path id="패스_1535" data-name="패스 1535" d="M0,0H360V79.067H0Z" transform="translate(0 55)" fill="url(#linear-gradient-3)"/>
    </g>
    <text id="_안심人_이_되어가는_여정_" data-name="&quot;안심人&quot;이 되어가는 여정!" transform="translate(16 93)" fill="#fff" font-size="22" font-family="NotoSansCJKkr-Bold, Noto Sans CJK KR" font-weight="700" letter-spacing="-0.03em"><tspan x="0" y="0">&quot;안심人&quot;이 되어가는 여정!</tspan></text>
    <text id="_3만원_10만원_50만원_상상_" data-name="3만원 / 10만원 / 50만원 / 상상↑" transform="translate(122 117)" fill="#fff" font-size="14" font-family="NotoSansCJKkr-Medium, Noto Sans CJK KR" font-weight="500" letter-spacing="-0.03em"><tspan x="-91.49" y="0">3만원 / 10만원 / 50만원 / 상상↑</tspan></text>
    <text id="_3만원" data-name="3만원" transform="translate(47 117)" fill="#fff" font-size="14" font-family="NotoSansCJKkr-Medium, Noto Sans CJK KR" font-weight="500" letter-spacing="-0.03em"><tspan x="-16.45" y="0">3만원</tspan></text>
    <g id="btn-권한관리" transform="translate(240 -11.133)">
      <g id="패스_423" data-name="패스 423" transform="translate(20 110)" fill="none">
        <path d="M23,0H70a12,12,0,0,1,0,24H23A12,12,0,0,1,23,0Z" stroke="none"/>
        <path d="M 23 1 C 20.06179046630859 1 17.29945373535156 2.144199371337891 15.22181701660156 4.221820831298828 C 13.14420318603516 6.299449920654297 12 9.061790466308594 12 12 C 12 14.93820953369141 13.14420318603516 17.7005500793457 15.22181701660156 19.77817916870117 C 17.29945373535156 21.85580062866211 20.06179046630859 23 23 23 L 70 23 C 72.93820953369141 23 75.70054626464844 21.85580062866211 77.77818298339844 19.77817916870117 C 79.85579681396484 17.7005500793457 81 14.93820953369141 81 12 C 81 9.061790466308594 79.85579681396484 6.299449920654297 77.77818298339844 4.221820831298828 C 75.70054626464844 2.144199371337891 72.93820953369141 1 70 1 L 23 1 M 23 0 L 70 0 C 76.62741851806641 0 82 5.372579574584961 82 12 C 82 18.62742042541504 76.62741851806641 24 70 24 L 23 24 C 16.37258148193359 24 11 18.62742042541504 11 12 C 11 5.372579574584961 16.37258148193359 0 23 0 Z" stroke="none" fill="#fff"/>
      </g>
      <text id="자세히" transform="translate(44 127)" fill="#fff" font-size="13" font-family="NotoSansCJKkr-Medium, Noto Sans CJK KR" font-weight="500" letter-spacing="-0.03em"><tspan x="0" y="0">자세히</tspan></text>
      <path id="다각형_8" data-name="다각형 8" d="M2.5,0,5,3H0Z" transform="translate(90.5 119.5) rotate(90)" fill="#fff"/>
    </g>
  </g>
</svg>
