<svg xmlns="http://www.w3.org/2000/svg" xmlns:xlink="http://www.w3.org/1999/xlink" width="364" height="442" viewBox="0 0 364 442">
  <defs>
    <clipPath id="clip-path">
      <circle id="타원_123" data-name="타원 123" cx="15.552" cy="15.552" r="15.552" transform="matrix(1, -0.012, 0.012, 1, 0, 0.388)" fill="none"/>
    </clipPath>
  </defs>
  <g id="그룹_1112" data-name="그룹 1112" transform="translate(2 -55)">
    <g id="banner_img">
      <rect id="사각형_518" data-name="사각형 518" width="360" height="70" transform="translate(0 55)" fill="#3ac1d6"/>
      <rect id="사각형_521" data-name="사각형 521" width="360" height="70" transform="translate(0 55)" fill="#3ac1d6"/>
      <path id="패스_610" data-name="패스 610" d="M0,0H360V439.733H0Z" transform="translate(0 55)" fill="#82cbc4"/>
    </g>
    <path id="패스_1535" data-name="패스 1535" d="M0,0H364V299H0Z" transform="translate(-2 198)" fill="#5ab1a9"/>
    <g id="그룹_1026" data-name="그룹 1026" transform="translate(286.742 150.088)" clip-path="url(#clip-path)">
      <g id="그룹_1025" data-name="그룹 1025" transform="translate(-0.452 0.878)">
        <g id="그룹_1014" data-name="그룹 1014">
          <path id="패스_1366" data-name="패스 1366" d="M472.719,148.394a.755.755,0,1,1-.756-.756A.756.756,0,0,1,472.719,148.394Z" transform="translate(-471.208 -147.638)" fill="#fff"/>
          <path id="패스_1367" data-name="패스 1367" d="M481.732,148.394a.756.756,0,1,1-.756-.756A.755.755,0,0,1,481.732,148.394Z" transform="translate(-475.822 -147.638)" fill="#fff"/>
          <path id="패스_1368" data-name="패스 1368" d="M490.746,148.394a.756.756,0,1,1-.755-.756A.755.755,0,0,1,490.746,148.394Z" transform="translate(-480.435 -147.638)" fill="#fff"/>
          <path id="패스_1369" data-name="패스 1369" d="M499.761,148.394a.755.755,0,1,1-.755-.756A.755.755,0,0,1,499.761,148.394Z" transform="translate(-485.05 -147.638)" fill="#fff"/>
          <path id="패스_1370" data-name="패스 1370" d="M508.776,148.394a.755.755,0,1,1-.756-.756A.755.755,0,0,1,508.776,148.394Z" transform="translate(-489.665 -147.638)" fill="#fff"/>
          <path id="패스_1371" data-name="패스 1371" d="M517.789,148.394a.756.756,0,1,1-.755-.756A.755.755,0,0,1,517.789,148.394Z" transform="translate(-494.278 -147.638)" fill="#fff"/>
          <path id="패스_1372" data-name="패스 1372" d="M526.8,148.394a.756.756,0,1,1-.756-.756A.755.755,0,0,1,526.8,148.394Z" transform="translate(-498.893 -147.638)" fill="#fff"/>
          <path id="패스_1373" data-name="패스 1373" d="M535.819,148.394a.755.755,0,1,1-.756-.756A.756.756,0,0,1,535.819,148.394Z" transform="translate(-503.507 -147.638)" fill="#fff"/>
        </g>
        <g id="그룹_1015" data-name="그룹 1015" transform="translate(1.871 2.822)">
          <path id="패스_1374" data-name="패스 1374" d="M476.551,154.175a.756.756,0,1,1-.756-.755A.755.755,0,0,1,476.551,154.175Z" transform="translate(-475.04 -153.42)" fill="#fff"/>
          <path id="패스_1375" data-name="패스 1375" d="M485.566,154.175a.755.755,0,1,1-.756-.755A.755.755,0,0,1,485.566,154.175Z" transform="translate(-479.655 -153.42)" fill="#fff"/>
          <path id="패스_1376" data-name="패스 1376" d="M494.58,154.175a.756.756,0,1,1-.756-.755A.756.756,0,0,1,494.58,154.175Z" transform="translate(-484.269 -153.42)" fill="#fff"/>
          <path id="패스_1377" data-name="패스 1377" d="M503.594,154.175a.756.756,0,1,1-.756-.755A.756.756,0,0,1,503.594,154.175Z" transform="translate(-488.883 -153.42)" fill="#fff"/>
          <path id="패스_1378" data-name="패스 1378" d="M512.609,154.175a.755.755,0,1,1-.755-.755A.755.755,0,0,1,512.609,154.175Z" transform="translate(-493.498 -153.42)" fill="#fff"/>
          <path id="패스_1379" data-name="패스 1379" d="M521.623,154.175a.756.756,0,1,1-.756-.755A.755.755,0,0,1,521.623,154.175Z" transform="translate(-498.111 -153.42)" fill="#fff"/>
          <path id="패스_1380" data-name="패스 1380" d="M530.637,154.175a.756.756,0,1,1-.756-.755A.756.756,0,0,1,530.637,154.175Z" transform="translate(-502.725 -153.42)" fill="#fff"/>
        </g>
        <g id="그룹_1016" data-name="그룹 1016" transform="translate(0 5.645)">
          <path id="패스_1381" data-name="패스 1381" d="M472.719,159.957a.755.755,0,1,1-.756-.755A.756.756,0,0,1,472.719,159.957Z" transform="translate(-471.208 -159.202)" fill="#fff"/>
          <path id="패스_1382" data-name="패스 1382" d="M481.732,159.957a.756.756,0,1,1-.756-.755A.756.756,0,0,1,481.732,159.957Z" transform="translate(-475.822 -159.202)" fill="#fff"/>
          <path id="패스_1383" data-name="패스 1383" d="M490.746,159.957a.756.756,0,1,1-.755-.755A.756.756,0,0,1,490.746,159.957Z" transform="translate(-480.435 -159.202)" fill="#fff"/>
          <path id="패스_1384" data-name="패스 1384" d="M499.761,159.957a.755.755,0,1,1-.755-.755A.756.756,0,0,1,499.761,159.957Z" transform="translate(-485.05 -159.202)" fill="#fff"/>
          <path id="패스_1385" data-name="패스 1385" d="M508.776,159.957a.755.755,0,1,1-.756-.755A.756.756,0,0,1,508.776,159.957Z" transform="translate(-489.665 -159.202)" fill="#fff"/>
          <path id="패스_1386" data-name="패스 1386" d="M517.789,159.957a.756.756,0,1,1-.755-.755A.756.756,0,0,1,517.789,159.957Z" transform="translate(-494.278 -159.202)" fill="#fff"/>
          <path id="패스_1387" data-name="패스 1387" d="M526.8,159.957a.756.756,0,1,1-.756-.755A.756.756,0,0,1,526.8,159.957Z" transform="translate(-498.893 -159.202)" fill="#fff"/>
          <path id="패스_1388" data-name="패스 1388" d="M535.819,159.957a.755.755,0,1,1-.756-.755A.756.756,0,0,1,535.819,159.957Z" transform="translate(-503.507 -159.202)" fill="#fff"/>
        </g>
        <g id="그룹_1017" data-name="그룹 1017" transform="translate(0 16.934)">
          <path id="패스_1389" data-name="패스 1389" d="M472.719,183.084a.755.755,0,1,1-.756-.755A.756.756,0,0,1,472.719,183.084Z" transform="translate(-471.208 -182.329)" fill="#fff"/>
          <path id="패스_1390" data-name="패스 1390" d="M481.732,183.084a.756.756,0,1,1-.756-.755A.756.756,0,0,1,481.732,183.084Z" transform="translate(-475.822 -182.329)" fill="#fff"/>
          <path id="패스_1391" data-name="패스 1391" d="M490.746,183.084a.756.756,0,1,1-.755-.755A.755.755,0,0,1,490.746,183.084Z" transform="translate(-480.435 -182.329)" fill="#fff"/>
          <path id="패스_1392" data-name="패스 1392" d="M499.761,183.084a.755.755,0,1,1-.755-.755A.755.755,0,0,1,499.761,183.084Z" transform="translate(-485.05 -182.329)" fill="#fff"/>
          <path id="패스_1393" data-name="패스 1393" d="M508.776,183.084a.755.755,0,1,1-.756-.755A.756.756,0,0,1,508.776,183.084Z" transform="translate(-489.665 -182.329)" fill="#fff"/>
          <path id="패스_1394" data-name="패스 1394" d="M517.789,183.084a.756.756,0,1,1-.755-.755A.756.756,0,0,1,517.789,183.084Z" transform="translate(-494.278 -182.329)" fill="#fff"/>
          <path id="패스_1395" data-name="패스 1395" d="M526.8,183.084a.756.756,0,1,1-.756-.755A.756.756,0,0,1,526.8,183.084Z" transform="translate(-498.893 -182.329)" fill="#fff"/>
          <path id="패스_1396" data-name="패스 1396" d="M535.819,183.084a.755.755,0,1,1-.756-.755A.756.756,0,0,1,535.819,183.084Z" transform="translate(-503.507 -182.329)" fill="#fff"/>
        </g>
        <g id="그룹_1018" data-name="그룹 1018" transform="translate(1.871 19.756)">
          <path id="패스_1397" data-name="패스 1397" d="M476.551,188.867a.756.756,0,1,1-.756-.756A.756.756,0,0,1,476.551,188.867Z" transform="translate(-475.04 -188.111)" fill="#fff"/>
          <path id="패스_1398" data-name="패스 1398" d="M485.566,188.867a.755.755,0,1,1-.756-.756A.756.756,0,0,1,485.566,188.867Z" transform="translate(-479.655 -188.111)" fill="#fff"/>
          <path id="패스_1399" data-name="패스 1399" d="M494.58,188.867a.756.756,0,1,1-.756-.756A.757.757,0,0,1,494.58,188.867Z" transform="translate(-484.269 -188.111)" fill="#fff"/>
          <path id="패스_1400" data-name="패스 1400" d="M503.594,188.867a.756.756,0,1,1-.756-.756A.756.756,0,0,1,503.594,188.867Z" transform="translate(-488.883 -188.111)" fill="#fff"/>
          <path id="패스_1401" data-name="패스 1401" d="M512.609,188.867a.755.755,0,1,1-.755-.756A.755.755,0,0,1,512.609,188.867Z" transform="translate(-493.498 -188.111)" fill="#fff"/>
          <path id="패스_1402" data-name="패스 1402" d="M521.623,188.867a.756.756,0,1,1-.756-.756A.756.756,0,0,1,521.623,188.867Z" transform="translate(-498.111 -188.111)" fill="#fff"/>
          <path id="패스_1403" data-name="패스 1403" d="M530.637,188.867a.756.756,0,1,1-.756-.756A.756.756,0,0,1,530.637,188.867Z" transform="translate(-502.725 -188.111)" fill="#fff"/>
        </g>
        <g id="그룹_1019" data-name="그룹 1019" transform="translate(0 22.577)">
          <path id="패스_1404" data-name="패스 1404" d="M472.719,194.647a.755.755,0,1,1-.756-.756A.757.757,0,0,1,472.719,194.647Z" transform="translate(-471.208 -193.891)" fill="#fff"/>
          <path id="패스_1405" data-name="패스 1405" d="M481.732,194.647a.756.756,0,1,1-.756-.756A.756.756,0,0,1,481.732,194.647Z" transform="translate(-475.822 -193.891)" fill="#fff"/>
          <path id="패스_1406" data-name="패스 1406" d="M490.746,194.647a.756.756,0,1,1-.755-.756A.756.756,0,0,1,490.746,194.647Z" transform="translate(-480.435 -193.891)" fill="#fff"/>
          <path id="패스_1407" data-name="패스 1407" d="M499.761,194.647a.755.755,0,1,1-.755-.756A.756.756,0,0,1,499.761,194.647Z" transform="translate(-485.05 -193.891)" fill="#fff"/>
          <path id="패스_1408" data-name="패스 1408" d="M508.776,194.647a.755.755,0,1,1-.756-.756A.756.756,0,0,1,508.776,194.647Z" transform="translate(-489.665 -193.891)" fill="#fff"/>
          <path id="패스_1409" data-name="패스 1409" d="M517.789,194.647a.756.756,0,1,1-.755-.756A.756.756,0,0,1,517.789,194.647Z" transform="translate(-494.278 -193.891)" fill="#fff"/>
          <path id="패스_1410" data-name="패스 1410" d="M526.8,194.647a.756.756,0,1,1-.756-.756A.756.756,0,0,1,526.8,194.647Z" transform="translate(-498.893 -193.891)" fill="#fff"/>
          <path id="패스_1411" data-name="패스 1411" d="M535.819,194.647a.755.755,0,1,1-.756-.756A.756.756,0,0,1,535.819,194.647Z" transform="translate(-503.507 -193.891)" fill="#fff"/>
        </g>
        <g id="그룹_1020" data-name="그룹 1020" transform="translate(1.871 25.4)">
          <path id="패스_1412" data-name="패스 1412" d="M476.551,200.429a.756.756,0,1,1-.756-.756A.755.755,0,0,1,476.551,200.429Z" transform="translate(-475.04 -199.673)" fill="#fff"/>
          <path id="패스_1413" data-name="패스 1413" d="M485.566,200.429a.755.755,0,1,1-.756-.756A.755.755,0,0,1,485.566,200.429Z" transform="translate(-479.655 -199.673)" fill="#fff"/>
          <path id="패스_1414" data-name="패스 1414" d="M494.58,200.429a.756.756,0,1,1-.756-.756A.756.756,0,0,1,494.58,200.429Z" transform="translate(-484.269 -199.673)" fill="#fff"/>
          <path id="패스_1415" data-name="패스 1415" d="M503.594,200.429a.756.756,0,1,1-.756-.756A.755.755,0,0,1,503.594,200.429Z" transform="translate(-488.883 -199.673)" fill="#fff"/>
          <path id="패스_1416" data-name="패스 1416" d="M512.609,200.429a.755.755,0,1,1-.755-.756A.755.755,0,0,1,512.609,200.429Z" transform="translate(-493.498 -199.673)" fill="#fff"/>
          <path id="패스_1417" data-name="패스 1417" d="M521.623,200.429a.756.756,0,1,1-.756-.756A.755.755,0,0,1,521.623,200.429Z" transform="translate(-498.111 -199.673)" fill="#fff"/>
          <path id="패스_1418" data-name="패스 1418" d="M530.637,200.429a.756.756,0,1,1-.756-.756A.755.755,0,0,1,530.637,200.429Z" transform="translate(-502.725 -199.673)" fill="#fff"/>
        </g>
        <g id="그룹_1021" data-name="그룹 1021" transform="translate(0 28.222)">
          <path id="패스_1419" data-name="패스 1419" d="M472.719,206.21a.755.755,0,1,1-.756-.755A.756.756,0,0,1,472.719,206.21Z" transform="translate(-471.208 -205.455)" fill="#fff"/>
          <path id="패스_1420" data-name="패스 1420" d="M481.732,206.21a.756.756,0,1,1-.756-.755A.755.755,0,0,1,481.732,206.21Z" transform="translate(-475.822 -205.455)" fill="#fff"/>
          <path id="패스_1421" data-name="패스 1421" d="M490.746,206.21a.756.756,0,1,1-.755-.755A.755.755,0,0,1,490.746,206.21Z" transform="translate(-480.435 -205.455)" fill="#fff"/>
          <path id="패스_1422" data-name="패스 1422" d="M499.761,206.21a.755.755,0,1,1-.755-.755A.755.755,0,0,1,499.761,206.21Z" transform="translate(-485.05 -205.455)" fill="#fff"/>
          <path id="패스_1423" data-name="패스 1423" d="M508.776,206.21a.755.755,0,1,1-.756-.755A.755.755,0,0,1,508.776,206.21Z" transform="translate(-489.665 -205.455)" fill="#fff"/>
          <path id="패스_1424" data-name="패스 1424" d="M517.789,206.21a.756.756,0,1,1-.755-.755A.755.755,0,0,1,517.789,206.21Z" transform="translate(-494.278 -205.455)" fill="#fff"/>
          <path id="패스_1425" data-name="패스 1425" d="M526.8,206.21a.756.756,0,1,1-.756-.755A.755.755,0,0,1,526.8,206.21Z" transform="translate(-498.893 -205.455)" fill="#fff"/>
          <path id="패스_1426" data-name="패스 1426" d="M535.819,206.21a.755.755,0,1,1-.756-.755A.756.756,0,0,1,535.819,206.21Z" transform="translate(-503.507 -205.455)" fill="#fff"/>
        </g>
        <g id="그룹_1022" data-name="그룹 1022" transform="translate(0 11.289)">
          <path id="패스_1427" data-name="패스 1427" d="M472.719,171.521a.755.755,0,1,1-.756-.756A.756.756,0,0,1,472.719,171.521Z" transform="translate(-471.208 -170.765)" fill="#fff"/>
          <path id="패스_1428" data-name="패스 1428" d="M481.732,171.521a.756.756,0,1,1-.756-.756A.756.756,0,0,1,481.732,171.521Z" transform="translate(-475.822 -170.765)" fill="#fff"/>
          <path id="패스_1429" data-name="패스 1429" d="M490.746,171.521a.756.756,0,1,1-.755-.756A.756.756,0,0,1,490.746,171.521Z" transform="translate(-480.435 -170.765)" fill="#fff"/>
          <path id="패스_1430" data-name="패스 1430" d="M499.761,171.521a.755.755,0,1,1-.755-.756A.756.756,0,0,1,499.761,171.521Z" transform="translate(-485.05 -170.765)" fill="#fff"/>
          <path id="패스_1431" data-name="패스 1431" d="M508.776,171.521a.755.755,0,1,1-.756-.756A.756.756,0,0,1,508.776,171.521Z" transform="translate(-489.665 -170.765)" fill="#fff"/>
          <path id="패스_1432" data-name="패스 1432" d="M517.789,171.521a.756.756,0,1,1-.755-.756A.756.756,0,0,1,517.789,171.521Z" transform="translate(-494.278 -170.765)" fill="#fff"/>
          <path id="패스_1433" data-name="패스 1433" d="M526.8,171.521a.756.756,0,1,1-.756-.756A.756.756,0,0,1,526.8,171.521Z" transform="translate(-498.893 -170.765)" fill="#fff"/>
          <path id="패스_1434" data-name="패스 1434" d="M535.819,171.521a.755.755,0,1,1-.756-.756A.756.756,0,0,1,535.819,171.521Z" transform="translate(-503.507 -170.765)" fill="#fff"/>
        </g>
        <g id="그룹_1023" data-name="그룹 1023" transform="translate(1.871 8.467)">
          <path id="패스_1435" data-name="패스 1435" d="M476.551,165.738a.756.756,0,1,1-.756-.755A.756.756,0,0,1,476.551,165.738Z" transform="translate(-475.04 -164.983)" fill="#fff"/>
          <path id="패스_1436" data-name="패스 1436" d="M485.566,165.738a.755.755,0,1,1-.756-.755A.756.756,0,0,1,485.566,165.738Z" transform="translate(-479.655 -164.983)" fill="#fff"/>
          <path id="패스_1437" data-name="패스 1437" d="M494.58,165.738a.756.756,0,1,1-.756-.755A.756.756,0,0,1,494.58,165.738Z" transform="translate(-484.269 -164.983)" fill="#fff"/>
          <path id="패스_1438" data-name="패스 1438" d="M503.594,165.738a.756.756,0,1,1-.756-.755A.756.756,0,0,1,503.594,165.738Z" transform="translate(-488.883 -164.983)" fill="#fff"/>
          <path id="패스_1439" data-name="패스 1439" d="M512.609,165.738a.755.755,0,1,1-.755-.755A.755.755,0,0,1,512.609,165.738Z" transform="translate(-493.498 -164.983)" fill="#fff"/>
          <path id="패스_1440" data-name="패스 1440" d="M521.623,165.738a.756.756,0,1,1-.756-.755A.756.756,0,0,1,521.623,165.738Z" transform="translate(-498.111 -164.983)" fill="#fff"/>
          <path id="패스_1441" data-name="패스 1441" d="M530.637,165.738a.756.756,0,1,1-.756-.755A.756.756,0,0,1,530.637,165.738Z" transform="translate(-502.725 -164.983)" fill="#fff"/>
        </g>
        <g id="그룹_1024" data-name="그룹 1024" transform="translate(1.871 14.111)">
          <path id="패스_1442" data-name="패스 1442" d="M476.551,177.3a.756.756,0,1,1-.756-.755A.756.756,0,0,1,476.551,177.3Z" transform="translate(-475.04 -176.547)" fill="#fff"/>
          <path id="패스_1443" data-name="패스 1443" d="M485.566,177.3a.755.755,0,1,1-.756-.755A.756.756,0,0,1,485.566,177.3Z" transform="translate(-479.655 -176.547)" fill="#fff"/>
          <path id="패스_1444" data-name="패스 1444" d="M494.58,177.3a.756.756,0,1,1-.756-.755A.757.757,0,0,1,494.58,177.3Z" transform="translate(-484.269 -176.547)" fill="#fff"/>
          <path id="패스_1445" data-name="패스 1445" d="M503.594,177.3a.756.756,0,1,1-.756-.755A.756.756,0,0,1,503.594,177.3Z" transform="translate(-488.883 -176.547)" fill="#fff"/>
          <path id="패스_1446" data-name="패스 1446" d="M512.609,177.3a.755.755,0,1,1-.755-.755A.756.756,0,0,1,512.609,177.3Z" transform="translate(-493.498 -176.547)" fill="#fff"/>
          <path id="패스_1447" data-name="패스 1447" d="M521.623,177.3a.756.756,0,1,1-.756-.755A.756.756,0,0,1,521.623,177.3Z" transform="translate(-498.111 -176.547)" fill="#fff"/>
          <path id="패스_1448" data-name="패스 1448" d="M530.637,177.3a.756.756,0,1,1-.756-.755A.756.756,0,0,1,530.637,177.3Z" transform="translate(-502.725 -176.547)" fill="#fff"/>
        </g>
      </g>
    </g>
    <text id="_안심人_이_되어가는_여정_" data-name="&quot;안심人&quot;이 되어가는 여정!" transform="translate(50 114)" fill="#fff" font-size="24" font-family="NotoSansCJKkr-Bold, Noto Sans CJK KR" font-weight="700" letter-spacing="-0.03em"><tspan x="0" y="0">&quot;안심人&quot;이 되어가는 여정!</tspan></text>
    <text id="_3만원_10만원_50만원_상상_" data-name="3만원 / 10만원 / 50만원 / 상상↑" transform="translate(176 140)" fill="#fff" font-size="16" font-family="NotoSansCJKkr-Medium, Noto Sans CJK KR" font-weight="500" letter-spacing="-0.03em" opacity="0.39"><tspan x="-104.56" y="0">3만원 / 10만원 / 50만원 / 상상↑</tspan></text>
    <g id="그룹_1103" data-name="그룹 1103" transform="translate(-290.496 -586.165)">
      <g id="그룹_1100" data-name="그룹 1100" transform="translate(605.47 762.393)">
        <g id="그룹_1091" data-name="그룹 1091" transform="translate(3.77 15.816)">
          <path id="패스_1516" data-name="패스 1516" d="M710.273,817.408v2.677a1.413,1.413,0,0,1-1.413,1.412H687.11a1.46,1.46,0,0,1-.332-.039,1.414,1.414,0,0,1-1.08-1.373v-2.677A1.412,1.412,0,0,1,687.11,816h21.751A1.412,1.412,0,0,1,710.273,817.408Z" transform="translate(-685.698 -815.997)" fill="#ffa93c"/>
        </g>
        <g id="그룹_1092" data-name="그룹 1092" transform="translate(1.604 21.277)">
          <path id="패스_1517" data-name="패스 1517" d="M693.155,834.545v5.461H679.77a1.388,1.388,0,0,1-.595-.133,1.409,1.409,0,0,1-.817-1.279v-2.676a1.412,1.412,0,0,1,1.412-1.413H681.6a1.459,1.459,0,0,0,.332.039Z" transform="translate(-678.358 -834.506)" fill="#fecf5b"/>
          <path id="패스_1518" data-name="패스 1518" d="M709.6,834.545H689.691a1.459,1.459,0,0,1-.332-.039h19.916A1.436,1.436,0,0,1,709.6,834.545Z" transform="translate(-686.113 -834.506)" fill="#fee8b4"/>
        </g>
        <g id="그룹_1093" data-name="그룹 1093" transform="translate(0.397 26.644)">
          <path id="패스_1519" data-name="패스 1519" d="M697.587,858.188a1.427,1.427,0,0,1-.159.009H675.677a1.413,1.413,0,0,1-1.411-1.413v-2.676a1.412,1.412,0,0,1,1.411-1.411h.613a1.388,1.388,0,0,0,.595.133h11.827v5.358Z" transform="translate(-674.266 -852.697)" fill="#ffa93c"/>
        </g>
        <g id="그룹_1094" data-name="그룹 1094" transform="translate(4.221 32.135)">
          <path id="패스_1520" data-name="패스 1520" d="M711.8,872.72v2.674a1.413,1.413,0,0,1-1.413,1.414h-1.759a1.377,1.377,0,0,0-.6-.133H688.04a1.414,1.414,0,0,1-.814-1.281V872.72a1.411,1.411,0,0,1,1.253-1.4,1.356,1.356,0,0,1,.159-.009h21.75A1.413,1.413,0,0,1,711.8,872.72Z" transform="translate(-687.226 -871.307)" fill="#fecf5b"/>
        </g>
        <g id="그룹_1095" data-name="그룹 1095" transform="translate(1.866 37.502)">
          <path id="패스_1521" data-name="패스 1521" d="M692.222,889.5V895H680.657a1.414,1.414,0,0,1-1.412-1.413V890.91a1.412,1.412,0,0,1,1.412-1.411Z" transform="translate(-679.245 -889.499)" fill="#ffa93c"/>
        </g>
        <g id="그룹_1097" data-name="그룹 1097" transform="translate(4.044 0)">
          <g id="그룹_1096" data-name="그룹 1096" transform="translate(0 0.881)">
            <path id="패스_1522" data-name="패스 1522" d="M697.939,765.378l.411,5.485-10.005.75a1.417,1.417,0,0,1-1.514-1.3l-.2-2.668a1.412,1.412,0,0,1,1.3-1.513Z" transform="translate(-686.627 -765.378)" fill="#ffa93c"/>
          </g>
          <path id="패스_1523" data-name="패스 1523" d="M738.164,763.7l.2,2.668a1.414,1.414,0,0,1-1.3,1.515l-11.685.876-.411-5.485,11.686-.877A1.412,1.412,0,0,1,738.164,763.7Z" transform="translate(-713.654 -762.393)" fill="#f2941d"/>
        </g>
        <g id="그룹_1099" data-name="그룹 1099" transform="translate(0 7.435)">
          <g id="그룹_1098" data-name="그룹 1098">
            <path id="패스_1524" data-name="패스 1524" d="M697.645,791.161l-.249,2.664a1.414,1.414,0,0,1-1.538,1.276L674.2,793.074a1.413,1.413,0,0,1-1.274-1.538l.249-2.663a1.414,1.414,0,0,1,1.537-1.276l2.951.276s20.3,1.951,19.506,1.873A1.824,1.824,0,0,1,697.645,791.161Z" transform="translate(-672.921 -787.591)" fill="#fecf5b"/>
          </g>
          <path id="패스_1525" data-name="패스 1525" d="M737.249,794.71,737,797.374a1.414,1.414,0,0,1-1.538,1.276l-6.36-.6.508-5.429,7.165.67A1.824,1.824,0,0,1,737.249,794.71Z" transform="translate(-712.525 -791.14)" fill="#ffa93c"/>
        </g>
        <path id="패스_1526" data-name="패스 1526" d="M738.287,836.012v2.675a1.413,1.413,0,0,1-1.413,1.411h-8.365v-5.461H737.2A1.414,1.414,0,0,1,738.287,836.012Z" transform="translate(-712.108 -813.322)" fill="#ffa93c"/>
        <path id="패스_1527" data-name="패스 1527" d="M723.228,821.5V816h12.089a1.412,1.412,0,0,1,1.413,1.411v2.677a1.413,1.413,0,0,1-1.413,1.412Z" transform="translate(-708.385 -800.181)" fill="#f2941d"/>
        <path id="패스_1528" data-name="패스 1528" d="M734.826,890.91v2.676A1.414,1.414,0,0,1,733.413,895H723.228v-5.5h10.185a1.377,1.377,0,0,1,.6.133A1.407,1.407,0,0,1,734.826,890.91Z" transform="translate(-708.385 -851.997)" fill="#f2941d"/>
        <path id="패스_1529" data-name="패스 1529" d="M733.357,854.426V857.1a1.411,1.411,0,0,1-1.254,1.4h-8.875v-5.358h9.314A1.413,1.413,0,0,1,733.357,854.426Z" transform="translate(-708.385 -826.37)" fill="#f2941d"/>
        <path id="패스_1530" data-name="패스 1530" d="M744.626,872.72v2.674a1.413,1.413,0,0,1-1.413,1.414h-1.759a1.377,1.377,0,0,0-.6-.133H733.79v-5.368h9.423A1.413,1.413,0,0,1,744.626,872.72Z" transform="translate(-715.831 -839.172)" fill="#ffa93c"/>
      </g>
      <g id="그룹_1102" data-name="그룹 1102" transform="translate(577.24 772.107)">
        <g id="그룹_1101" data-name="그룹 1101" transform="translate(0 0)">
          <path id="패스_1531" data-name="패스 1531" d="M610.474,818.082a17.1,17.1,0,1,1-10.469-21.8A17.1,17.1,0,0,1,610.474,818.082Z" transform="translate(-577.24 -795.317)" fill="#fed97f"/>
          <path id="패스_1532" data-name="패스 1532" d="M615.235,824.856a13.806,13.806,0,1,1-8.454-17.6A13.806,13.806,0,0,1,615.235,824.856Z" transform="translate(-585.106 -803.182)" fill="#ffa93c"/>
        </g>
        <text id="P" transform="translate(8.754 22.406) rotate(19.343)" fill="#fff" font-size="21" font-family="SegoeUI, Segoe UI"><tspan x="0" y="0">P</tspan></text>
      </g>
    </g>
    <g id="그룹_1079" data-name="그룹 1079" transform="translate(-87.426 -308.314)">
      <g id="그룹_1078" data-name="그룹 1078" transform="translate(399.586 380.645)">
        <path id="패스_1495" data-name="패스 1495" d="M267.392,659.521a1.447,1.447,0,0,0-2.1.133,1.58,1.58,0,0,0,.128,2.173c.083.075.166.151.25.224a1.447,1.447,0,0,0,2.092-.182,1.58,1.58,0,0,0-.176-2.17C267.524,659.64,267.458,659.58,267.392,659.521Z" transform="translate(-260.866 -637.155)" fill="#fff"/>
        <path id="패스_1496" data-name="패스 1496" d="M262.288,608.084c.051-.072.1-.143.156-.213a1.579,1.579,0,0,0-.251-2.163,1.45,1.45,0,0,0-2.085.26c-.07.092-.137.185-.2.278a1.578,1.578,0,0,0,.307,2.154,1.444,1.444,0,0,0,.87.3A1.466,1.466,0,0,0,262.288,608.084Z" transform="translate(-257.259 -600.659)" fill="#fff"/>
        <path id="패스_1497" data-name="패스 1497" d="M286.64,591.982a1.494,1.494,0,0,0-1.693-1.288c-.109.018-.219.037-.328.056a1.537,1.537,0,0,0-1.2,1.787,1.471,1.471,0,0,0,1.722,1.245l.258-.044A1.533,1.533,0,0,0,286.64,591.982Z" transform="translate(-273.406 -590.675)" fill="#fff"/>
        <path id="패스_1498" data-name="패스 1498" d="M255.248,634.634a1.5,1.5,0,0,0-1.613-1.395,1.525,1.525,0,0,0-1.345,1.673c.01.114.021.229.034.343a1.505,1.505,0,0,0,1.459,1.364,1.434,1.434,0,0,0,.185-.01,1.528,1.528,0,0,0,1.306-1.706Q255.259,634.769,255.248,634.634Z" transform="translate(-252.284 -619.57)" fill="#fff"/>
        <path id="패스_1499" data-name="패스 1499" d="M292.937,669c-.087,0-.174.008-.261.011a1.542,1.542,0,0,0,.027,3.079h.058c.11,0,.221-.008.331-.014a1.52,1.52,0,0,0,1.405-1.618A1.5,1.5,0,0,0,292.937,669Z" transform="translate(-278.728 -643.854)" fill="#fff"/>
        <path id="패스_1500" data-name="패스 1500" d="M326.376,626.716c-.016-.114-.033-.228-.051-.341a1.492,1.492,0,0,0-1.711-1.263,1.534,1.534,0,0,0-1.217,1.774c.014.09.028.179.04.268a1.476,1.476,0,0,0,1.862,1.266A1.541,1.541,0,0,0,326.376,626.716Z" transform="translate(-300.552 -614.042)" fill="#fff"/>
        <path id="패스_1501" data-name="패스 1501" d="M319.457,653.732a1.452,1.452,0,0,0-2.06.424c-.049.076-.1.151-.148.225a1.577,1.577,0,0,0,.362,2.145,1.438,1.438,0,0,0,1.245.225,1.48,1.48,0,0,0,.823-.6c.063-.094.126-.188.188-.283A1.576,1.576,0,0,0,319.457,653.732Z" transform="translate(-296.209 -633.311)" fill="#fff"/>
        <path id="패스_1502" data-name="패스 1502" d="M311.8,602.925a1.58,1.58,0,0,0-.232-2.164c-.088-.073-.176-.144-.266-.214a1.449,1.449,0,0,0-2.08.3,1.577,1.577,0,0,0,.287,2.157c.069.054.136.109.2.164a1.445,1.445,0,0,0,1.32.284A1.481,1.481,0,0,0,311.8,602.925Z" transform="translate(-290.736 -597.165)" fill="#fff"/>
      </g>
    </g>
    <path id="패스_1534" data-name="패스 1534" d="M1242.715,493.617a20.089,20.089,0,0,0-5.354,2.936c-1.694,1.584-3.3,6.5-3.3,6.5s-1.376-4.123-3.041-6.009-5.61-3.172-5.61-3.172,3.862-1.034,5.5-2.892,2.831-6.013,2.831-6.013,1.212,4.483,3.07,5.958S1242.715,493.617,1242.715,493.617Z" transform="translate(-1122.064 -419.604)" fill="#fff"/>
    <g id="그룹_980" data-name="그룹 980" transform="translate(-1199.764 -264.239)">
      <path id="패스_1329" data-name="패스 1329" d="M1359.944,370.692s-4.091,1.511-5.984,3.281-3.684,7.267-3.684,7.267-1.538-4.609-3.4-6.717-6.27-3.546-6.27-3.546,4.316-1.156,6.148-3.233,3.164-6.721,3.164-6.721,1.355,5.011,3.431,6.66S1359.944,370.692,1359.944,370.692Z" transform="translate(-120.181 15.107)" fill="#fff"/>
    </g>
    <g id="그룹_1111" data-name="그룹 1111" transform="translate(-866.646 -578.227)">
      <path id="패스_1536" data-name="패스 1536" d="M1149.506,765.911l16.126.443,1.213-5.373-14.753-6.526Z" transform="translate(-49.116)" fill="#b73434"/>
      <path id="패스_1537" data-name="패스 1537" d="M1293.262,765.911l-16.126.443-1.213-5.373,14.753-6.526Z" transform="translate(-152.698)" fill="#b73434"/>
      <g id="그룹_1105" data-name="그룹 1105" transform="translate(1117.096 760.405)">
        <rect id="사각형_892" data-name="사각형 892" width="6.774" height="3.638" transform="translate(0)" fill="#9e2d2d"/>
      </g>
      <g id="그룹_1110" data-name="그룹 1110" transform="translate(1089.563 763.442)">
        <g id="그룹_1106" data-name="그룹 1106" transform="translate(2.244 7.801)">
          <rect id="사각형_893" data-name="사각형 893" width="57.679" height="27.655" fill="#fadf71"/>
        </g>
        <g id="그룹_1107" data-name="그룹 1107" transform="translate(2.244 2.997)">
          <path id="패스_1538" data-name="패스 1538" d="M1101.986,830.389V820.8h57.679v9.591" transform="translate(-1101.986 -820.798)" fill="#e5c953"/>
        </g>
        <g id="그룹_1108" data-name="그룹 1108" transform="translate(0 0.275)">
          <rect id="사각형_894" data-name="사각형 894" width="62.168" height="8.312" fill="#fadf71"/>
        </g>
        <g id="그룹_1109" data-name="그룹 1109" transform="translate(27.533 0)">
          <rect id="사각형_895" data-name="사각형 895" width="6.774" height="35.457" fill="#b73434"/>
        </g>
      </g>
      <path id="패스_1539" data-name="패스 1539" d="M1301,830.138l-4.314-2.783-4.314,2.783v-25.95H1301Z" transform="translate(-166.178 -40.75)" fill="#9e2d2d"/>
    </g>
    <text id="상품에_도전해보세요_" data-name="상품에 도전해보세요!" transform="translate(100 145)" fill="#fff" font-size="18" font-family="NotoSansCJKkr-Regular, Noto Sans CJK KR"><tspan x="0" y="21">상품에 도전해보세요!</tspan></text>
    <text id="_3만원" data-name="3만원" transform="translate(90 140)" fill="#fff" font-size="16" font-family="NotoSansCJKkr-Medium, Noto Sans CJK KR" font-weight="500" letter-spacing="-0.03em"><tspan x="-18.8" y="0">3만원</tspan></text>
  </g>
</svg>
