<svg xmlns="http://www.w3.org/2000/svg" width="20" height="12" viewBox="0 0 20 12"><path d="M10.833,10.143a2.572,2.572,0,1,0-2.5-2.571,2.536,2.536,0,0,0,2.5,2.571m0-3.429A.857.857,0,1,1,10,7.571a.845.845,0,0,1,.833-.857m3.425,3.309a4.386,4.386,0,0,0,0-4.9A2.363,2.363,0,0,1,15,5a2.572,2.572,0,0,1,0,5.143,2.363,2.363,0,0,1-.742-.12m-3.425,1.834c-5,0-5,3.429-5,3.429V17h10V15.286s0-3.429-5-3.429M7.5,15.286c0-.249.267-1.714,3.333-1.714,2.917,0,3.283,1.337,3.333,1.714m5.833,0V17H17.5V15.286A4.86,4.86,0,0,0,16,11.909c4,.42,4,3.377,4,3.377M6.667,11h-2.5v2.571H2.5V11H0V9.286H2.5V6.714H4.167V9.286h2.5Z" transform="translate(0 -5)"/></svg>