<svg xmlns="http://www.w3.org/2000/svg" width="71.001" height="81.998" viewBox="0 0 71.001 81.998"><defs><style>.a{fill:#e2e2e2;stroke:#f7f7f7;}.b{fill:none;stroke:#e2e2e2;stroke-linecap:round;stroke-width:5px;}</style></defs><g transform="translate(-144.5 -285.5)"><g transform="translate(145 286)"><path class="a" d="M176.1,470.272l35-.042,0-2.838-8.474-8.374-.028-23.452a26.233,26.233,0,0,0-20.448-25.535l-.744-.175,0-3.607a5.359,5.359,0,0,0-5.293-5.319h-.094a5.359,5.359,0,0,0-5.286,5.326v3.607l-.744.174A26.233,26.233,0,0,0,149.561,435.6V459.05l-8.464,8.384v2.838Zm-.016-6.469H156.092V435.6a19.985,19.985,0,0,1,39.968-.025l.035,28.2-20.01.024Z" transform="translate(-141.097 -400.93)"/><path class="a" d="M169.62,475.733a7.363,7.363,0,0,0,7.29,6.4h.007a7.363,7.363,0,0,0,7.282-6.413Z" transform="translate(-141.905 -404.138)"/></g><line class="b" x2="52.953" y2="71.125" transform="translate(153.5 292.875)"/></g></svg>