<svg xmlns="http://www.w3.org/2000/svg" width="33" height="37" viewBox="0 0 33 37">
  <g id="그룹_988" data-name="그룹 988" transform="translate(-719.197 -487.77)">
    <g id="그룹_983" data-name="그룹 983" transform="translate(733.859 491.045)">
      <g id="그룹_982" data-name="그룹 982" transform="translate(0 0)">
        <path id="패스_1340" data-name="패스 1340" d="M891.9,529.945a5.61,5.61,0,1,1-4.425-6.586A5.61,5.61,0,0,1,891.9,529.945Z" transform="translate(-880.783 -523.254)" fill="#fecf5b"/>
        <path id="패스_1341" data-name="패스 1341" d="M901.464,540.36a4.53,4.53,0,1,1-3.573-5.318A4.53,4.53,0,0,1,901.464,540.36Z" transform="translate(-891.407 -533.876)" fill="#ffa93c"/>
      </g>
      <text id="P" transform="translate(3.841 4.247) rotate(11.105)" fill="#fff" font-size="4" font-family="SegoeUI, Segoe UI"><tspan x="0" y="0">P</tspan></text>
    </g>
    <g id="그룹_985" data-name="그룹 985" transform="translate(730.328 487.77)">
      <g id="그룹_984" data-name="그룹 984" transform="translate(0 0)">
        <path id="패스_1342" data-name="패스 1342" d="M852.991,494.462a5.61,5.61,0,1,1-4.425-6.586A5.61,5.61,0,0,1,852.991,494.462Z" transform="translate(-841.874 -487.77)" fill="#fecf5b"/>
        <path id="패스_1343" data-name="패스 1343" d="M862.555,504.876a4.53,4.53,0,1,1-3.573-5.318A4.53,4.53,0,0,1,862.555,504.876Z" transform="translate(-852.498 -498.392)" fill="#ffa93c"/>
      </g>
      <text id="P-2" data-name="P" transform="translate(3.841 4.247) rotate(11.105)" fill="#fff" font-size="4" font-family="SegoeUI, Segoe UI"><tspan x="0" y="0">P</tspan></text>
    </g>
    <g id="그룹_987" data-name="그룹 987" transform="translate(726.672 491.258)">
      <g id="그룹_986" data-name="그룹 986" transform="translate(0 0)">
        <path id="패스_1344" data-name="패스 1344" d="M809.766,528.292a4.318,4.318,0,1,1-5.6-2.436A4.318,4.318,0,0,1,809.766,528.292Z" transform="translate(-801.43 -525.555)" fill="#fecf5b"/>
        <path id="패스_1345" data-name="패스 1345" d="M817.168,536.773a3.486,3.486,0,1,1-4.521-1.967A3.486,3.486,0,0,1,817.168,536.773Z" transform="translate(-809.605 -533.731)" fill="#ffa93c"/>
      </g>
      <text id="P-3" data-name="P" transform="translate(2.909 4.956) rotate(-21.486)" fill="#fff" font-size="4" font-family="SegoeUI, Segoe UI"><tspan x="0" y="0">P</tspan></text>
    </g>
    <path id="패스_1346" data-name="패스 1346" d="M745.823,601.545H725.57c-7.716,0-6.265-8.525-6.265-8.525.636-7.444,7.712-14.806,7.712-14.806l-2.966-5.862h23.29l-2.88,5.862h-.043s7.035,7.363,7.67,14.806C752.089,593.02,753.54,601.545,745.823,601.545Z" transform="translate(0 -76.774)" fill="#f05a29"/>
    <path id="패스_1347" data-name="패스 1347" d="M912.665,601.844H902.67V572.351H914.2l-2.913,5.922h-.043s7.115,7.438,7.757,14.958C919,593.232,920.469,601.844,912.665,601.844Z" transform="translate(-166.914 -77.074)" fill="#d64d20"/>
    <rect id="사각형_864" data-name="사각형 864" width="19.056" height="1.294" transform="translate(726.169 500.81)" fill="#3a3a3a"/>
    <text id="POINT" transform="translate(725.233 514.757)" fill="#fff" font-size="5" font-family="SegoeUI, Segoe UI"><tspan x="0" y="0">POINT</tspan></text>
  </g>
</svg>
