<svg xmlns="http://www.w3.org/2000/svg" width="37.461" height="28.85" viewBox="0 0 37.461 28.85">
  <g id="그룹_1006" data-name="그룹 1006" transform="translate(-577.24 -762.393)">
    <g id="그룹_1003" data-name="그룹 1003" transform="translate(595.785 762.393)">
      <g id="그룹_994" data-name="그룹 994" transform="translate(2.476 10.389)">
        <path id="패스_1348" data-name="패스 1348" d="M701.842,816.924v1.759a.928.928,0,0,1-.928.927H686.625a.957.957,0,0,1-.218-.026.929.929,0,0,1-.71-.9v-1.759a.928.928,0,0,1,.927-.927h14.288A.928.928,0,0,1,701.842,816.924Z" transform="translate(-685.698 -815.997)" fill="#ffa93c"/>
      </g>
      <g id="그룹_995" data-name="그룹 995" transform="translate(1.054 13.977)">
        <path id="패스_1349" data-name="패스 1349" d="M688.078,834.532v3.587h-8.793a.912.912,0,0,1-.391-.087.925.925,0,0,1-.536-.84v-1.758a.928.928,0,0,1,.927-.928h1.2a.955.955,0,0,0,.218.026Z" transform="translate(-678.358 -834.506)" fill="#fecf5b"/>
        <path id="패스_1350" data-name="패스 1350" d="M702.658,834.532H689.577a.955.955,0,0,1-.218-.026h13.083A.942.942,0,0,1,702.658,834.532Z" transform="translate(-687.227 -834.506)" fill="#fee8b4"/>
      </g>
      <g id="그룹_996" data-name="그룹 996" transform="translate(0.261 17.502)">
        <path id="패스_1351" data-name="패스 1351" d="M689.586,856.3a.933.933,0,0,1-.1.006H675.193a.928.928,0,0,1-.927-.928v-1.758a.928.928,0,0,1,.927-.927h.4a.913.913,0,0,0,.391.087h7.769v3.52Z" transform="translate(-674.266 -852.697)" fill="#ffa93c"/>
      </g>
      <g id="그룹_997" data-name="그룹 997" transform="translate(2.773 21.109)">
        <path id="패스_1352" data-name="패스 1352" d="M703.369,872.235v1.756a.928.928,0,0,1-.928.929h-1.155a.906.906,0,0,0-.391-.087H687.761a.929.929,0,0,1-.535-.841v-1.756a.927.927,0,0,1,.823-.922.878.878,0,0,1,.1-.006h14.288A.928.928,0,0,1,703.369,872.235Z" transform="translate(-687.226 -871.307)" fill="#fecf5b"/>
      </g>
      <g id="그룹_998" data-name="그룹 998" transform="translate(1.226 24.635)">
        <path id="패스_1353" data-name="패스 1353" d="M687.77,889.5v3.613h-7.6a.929.929,0,0,1-.927-.928v-1.758a.928.928,0,0,1,.927-.927Z" transform="translate(-679.245 -889.499)" fill="#ffa93c"/>
      </g>
      <g id="그룹_1000" data-name="그룹 1000" transform="translate(2.657)">
        <g id="그룹_999" data-name="그룹 999" transform="translate(0 0.578)">
          <path id="패스_1354" data-name="패스 1354" d="M694.058,765.378l.27,3.6-6.573.493a.931.931,0,0,1-.994-.856l-.131-1.753a.927.927,0,0,1,.855-.994Z" transform="translate(-686.627 -765.378)" fill="#ffa93c"/>
        </g>
        <path id="패스_1355" data-name="패스 1355" d="M733.635,763.251l.132,1.753a.929.929,0,0,1-.856,1l-7.676.576-.27-3.6,7.676-.576A.928.928,0,0,1,733.635,763.251Z" transform="translate(-717.535 -762.393)" fill="#f2941d"/>
      </g>
      <g id="그룹_1002" data-name="그룹 1002" transform="translate(0 4.884)">
        <g id="그룹_1001" data-name="그룹 1001">
          <path id="패스_1356" data-name="패스 1356" d="M689.162,789.936l-.164,1.75a.929.929,0,0,1-1.011.838l-14.226-1.331a.928.928,0,0,1-.837-1.011l.164-1.75a.929.929,0,0,1,1.01-.838l1.938.181s13.333,1.282,12.814,1.231A1.2,1.2,0,0,1,689.162,789.936Z" transform="translate(-672.921 -787.591)" fill="#fecf5b"/>
        </g>
        <path id="패스_1357" data-name="패스 1357" d="M734.453,793.995l-.164,1.75a.929.929,0,0,1-1.01.838l-4.178-.391.334-3.566,4.707.44A1.2,1.2,0,0,1,734.453,793.995Z" transform="translate(-718.212 -791.649)" fill="#ffa93c"/>
      </g>
      <path id="패스_1358" data-name="패스 1358" d="M734.933,835.541V837.3a.928.928,0,0,1-.928.927h-5.5v-3.587h5.711A.929.929,0,0,1,734.933,835.541Z" transform="translate(-717.735 -820.636)" fill="#ffa93c"/>
      <path id="패스_1359" data-name="패스 1359" d="M723.228,819.61V816h7.942a.928.928,0,0,1,.928.927v1.759a.928.928,0,0,1-.928.927Z" transform="translate(-713.478 -805.608)" fill="#f2941d"/>
      <path id="패스_1360" data-name="패스 1360" d="M730.847,890.426v1.758a.929.929,0,0,1-.928.928h-6.691V889.5h6.691a.9.9,0,0,1,.391.087A.924.924,0,0,1,730.847,890.426Z" transform="translate(-713.478 -864.864)" fill="#f2941d"/>
      <path id="패스_1361" data-name="패스 1361" d="M729.882,853.987v1.758a.927.927,0,0,1-.824.922h-5.83v-3.52h6.119A.928.928,0,0,1,729.882,853.987Z" transform="translate(-713.478 -835.557)" fill="#f2941d"/>
      <path id="패스_1362" data-name="패스 1362" d="M740.908,872.235v1.756a.928.928,0,0,1-.928.929h-1.155a.905.905,0,0,0-.391-.087H733.79v-3.526h6.19A.928.928,0,0,1,740.908,872.235Z" transform="translate(-721.992 -850.198)" fill="#ffa93c"/>
    </g>
    <g id="그룹_1005" data-name="그룹 1005" transform="translate(577.24 768.775)">
      <g id="그룹_1004" data-name="그룹 1004" transform="translate(0)">
        <path id="패스_1363" data-name="패스 1363" d="M599.072,810.271a11.231,11.231,0,1,1-6.877-14.318A11.231,11.231,0,0,1,599.072,810.271Z" transform="translate(-577.24 -795.317)" fill="#fed97f"/>
        <path id="패스_1364" data-name="패스 1364" d="M606.027,818.549a9.069,9.069,0,1,1-5.554-11.561A9.069,9.069,0,0,1,606.027,818.549Z" transform="translate(-586.235 -804.311)" fill="#ffa93c"/>
      </g>
      <text id="P" transform="translate(6.118 13.672) rotate(19.343)" fill="#fff" font-size="13" font-family="SegoeUI, Segoe UI"><tspan x="0" y="0">P</tspan></text>
    </g>
  </g>
</svg>
