<svg xmlns="http://www.w3.org/2000/svg" width="33.403" height="33.186" viewBox="0 0 33.403 33.186">
  <g id="그룹_935" data-name="그룹 935" transform="translate(-165.055 -75.683)">
    <path id="패스_598" data-name="패스 598" d="M194.707,97.548a12.811,12.811,0,1,0-15.072,2.25A12.807,12.807,0,0,0,194.707,97.548Z" fill="#6db2c3"/>
    <path id="패스_599" data-name="패스 599" d="M170.068,108.01l8.808-8.808a10.05,10.05,0,0,1-4.152-4.152l-8.809,8.807a2.937,2.937,0,1,0,4.153,4.153Z" fill="#ffc000" opacity="0.6"/>
    <path id="패스_600" data-name="패스 600" d="M192.12,94.961a9.167,9.167,0,1,0-9.723,2.075A9.15,9.15,0,0,0,192.12,94.961Z" fill="#6db2c3"/>
    <path id="패스_601" data-name="패스 601" d="M192.12,94.961a9.167,9.167,0,1,0-9.723,2.075A9.15,9.15,0,0,0,192.12,94.961Z" fill="none" stroke="#fff" stroke-linecap="round" stroke-linejoin="round" stroke-width="1.5"/>
    <g id="그룹_934" data-name="그룹 934">
      <line id="선_278" data-name="선 278" x1="7.515" transform="translate(181.973 88.329)" fill="none" stroke="#fff" stroke-linecap="round" stroke-linejoin="round" stroke-width="1.5"/>
      <line id="선_279" data-name="선 279" y2="7.515" transform="translate(185.73 84.572)" fill="none" stroke="#fff" stroke-linecap="round" stroke-linejoin="round" stroke-width="1.5"/>
    </g>
  </g>
</svg>
