<svg xmlns="http://www.w3.org/2000/svg" width="46.584" height="40.156" viewBox="0 0 46.584 40.156">
  <g id="그룹_1236" data-name="그룹 1236" transform="translate(0.25 0.039)">
    <path id="합치기_2" data-name="합치기 2" d="M-5722.712,3411l-.146-.8a.6.6,0,0,1,.48-.7.6.6,0,0,1,.7.483l.145.8a.6.6,0,0,1-.479.7.543.543,0,0,1-.109.01A.6.6,0,0,1-5722.712,3411Zm3.109-.632-.54-.606a.6.6,0,0,1-.15-.432.593.593,0,0,1,.2-.414.6.6,0,0,1,.434-.152.605.605,0,0,1,.414.2l.54.6a.605.605,0,0,1,.122.587.6.6,0,0,1-.448.4.614.614,0,0,1-.121.012A.6.6,0,0,1-5719.6,3410.366Zm1.661-2.544-.79-.25a.6.6,0,0,1-.376-.747.6.6,0,0,1,.737-.4l.79.25a.6.6,0,0,1,.414.664.6.6,0,0,1-.593.509A.549.549,0,0,1-5717.942,3407.822Zm-1.034-8.877a.6.6,0,0,1-.184-.586.6.6,0,0,1,.428-.441l.79-.25a.6.6,0,0,1,.752.391.606.606,0,0,1-.04.458.6.6,0,0,1-.352.294l-.79.25a.606.606,0,0,1-.206.036A.6.6,0,0,1-5718.977,3398.945Zm-.84-2.228a.6.6,0,0,1-.447-.4.6.6,0,0,1,.122-.587l.54-.606a.607.607,0,0,1,.414-.2.6.6,0,0,1,.432.152.594.594,0,0,1,.2.414.591.591,0,0,1-.151.432l-.54.606a.606.606,0,0,1-.449.2A.6.6,0,0,1-5719.817,3396.717Zm-2.565-.728a.6.6,0,0,1-.48-.7l.146-.8h0a.6.6,0,0,1,.7-.483.6.6,0,0,1,.482.7l-.146.8a.6.6,0,0,1-.589.493A.7.7,0,0,1-5722.382,3395.989Z" transform="translate(-3379.146 -5717.162) rotate(-90)" fill="#fff" stroke="#fff" stroke-width="0.07"/>
    <path id="합치기_3" data-name="합치기 3" d="M-5684.136,3417.867h-.042a.866.866,0,0,1-.842-.841c-.021-.4-.036-.812-.036-.914v-.217a2.993,2.993,0,0,0-.823-2.074,16.474,16.474,0,0,1-3.557-5.1c-1.229-3.251-2.9-6.984-3.851-8a1.822,1.822,0,0,1-.444-.614,1.821,1.821,0,0,1-.444.614c-.957,1.011-2.623,4.745-3.851,7.994a16.509,16.509,0,0,1-3.558,5.1,2.992,2.992,0,0,0-.822,2.074v.217c0,.1-.016.512-.037.914a.866.866,0,0,1-.842.841h-9.618a1.708,1.708,0,0,1-1.657-1.755v-1.8a.568.568,0,0,0-.146-.4c-2.042-1.977-2.064-5.271-2.064-5.41v-14.043a2.354,2.354,0,0,1,2.044-2.432,2.094,2.094,0,0,1,1.271.306v-2.555a2.372,2.372,0,0,1,1.1-2.027,2.111,2.111,0,0,1,2.212,0v-.267a2.314,2.314,0,0,1,2.252-2.386,2.282,2.282,0,0,1,2.169,2.34v.314a2.094,2.094,0,0,1,2.146-.036,2.343,2.343,0,0,1,1.155,1.917l.07,2.222a.546.546,0,0,1-.063.106v8.934a6.9,6.9,0,0,0,.264,2.042.571.571,0,0,0,.4.39.508.508,0,0,0,.5-.138,8.173,8.173,0,0,0,1.139-1.449c1.027-1.625,2.964-4.356,4.435-4.356a2.146,2.146,0,0,1,1.94,1.184,2.149,2.149,0,0,1,1.941-1.184c1.469,0,3.407,2.73,4.433,4.356a8.2,8.2,0,0,0,1.141,1.449.512.512,0,0,0,.5.139.572.572,0,0,0,.4-.392,6.807,6.807,0,0,0,.264-2.042v-8.934a.549.549,0,0,1-.063-.106l.072-2.222a2.344,2.344,0,0,1,1.153-1.917,2.1,2.1,0,0,1,2.146.036v-.314a2.283,2.283,0,0,1,2.169-2.34,2.316,2.316,0,0,1,2.254,2.387v.265a2.1,2.1,0,0,1,2.211,0,2.369,2.369,0,0,1,1.1,2.027v2.554a2.1,2.1,0,0,1,1.271-.306,2.355,2.355,0,0,1,2.046,2.432v14.043c0,.139-.024,3.435-2.064,5.412a.55.55,0,0,0-.146.4v1.8a1.71,1.71,0,0,1-1.659,1.755Zm-8.63-18.733a.734.734,0,0,0,.26.766c1.469,1.555,3.67,7.26,4.095,8.389a15.814,15.814,0,0,0,3.3,4.7,4.2,4.2,0,0,1,1.156,2.911v.217a.569.569,0,0,0,.552.585h8.839a.569.569,0,0,0,.552-.585v-1.8a1.763,1.763,0,0,1,.505-1.261,7.168,7.168,0,0,0,1.706-4.55v-14.043a1.223,1.223,0,0,0-1.017-1.265,1.07,1.07,0,0,0-.835.308,1.2,1.2,0,0,0-.354.858v5.95a.569.569,0,0,1-.552.585.569.569,0,0,1-.552-.585v-10.531a1.14,1.14,0,0,0-1.106-1.171,1.138,1.138,0,0,0-1.1,1.171v9.947a.57.57,0,0,1-.554.584.568.568,0,0,1-.553-.584v-12.288a1.146,1.146,0,0,0-1.1-1.171,1.14,1.14,0,0,0-1.106,1.171v12.288a.568.568,0,0,1-.552.584.568.568,0,0,1-.552-.584v-9.947a1.14,1.14,0,0,0-1.106-1.171,1.139,1.139,0,0,0-1.1,1.171V3400.9a8.045,8.045,0,0,1-.321,2.417,1.71,1.71,0,0,1-1.177,1.152,1.577,1.577,0,0,1-1.526-.422,9.341,9.341,0,0,1-1.3-1.653c-1.585-2.518-2.967-3.835-3.512-3.835h-.033A1.078,1.078,0,0,0-5692.766,3399.134Zm-21.882-5.937a1.224,1.224,0,0,0-1.019,1.265v14.043a7.18,7.18,0,0,0,1.706,4.55,1.752,1.752,0,0,1,.5,1.261v1.8a.569.569,0,0,0,.553.584h8.839a.568.568,0,0,0,.552-.584v-.217a4.211,4.211,0,0,1,1.158-2.912,15.8,15.8,0,0,0,3.3-4.7c.426-1.128,2.625-6.832,4.095-8.387.263-.28.35-.537.261-.766a1.078,1.078,0,0,0-.976-.575c-.545,0-1.927,1.317-3.512,3.835a9.416,9.416,0,0,1-1.3,1.653,1.578,1.578,0,0,1-1.527.422,1.709,1.709,0,0,1-1.176-1.152,8.1,8.1,0,0,1-.321-2.417v-11.118a1.138,1.138,0,0,0-1.1-1.169,1.139,1.139,0,0,0-1.1,1.169v9.947a.569.569,0,0,1-.552.585.57.57,0,0,1-.554-.585v-12.287a1.139,1.139,0,0,0-1.1-1.171,1.148,1.148,0,0,0-1.106,1.171v12.287a.568.568,0,0,1-.552.585.568.568,0,0,1-.552-.585v-9.947a1.139,1.139,0,0,0-1.106-1.169,1.139,1.139,0,0,0-1.1,1.169v10.532a.57.57,0,0,1-.554.585.57.57,0,0,1-.552-.585v-5.95a1.2,1.2,0,0,0-.354-.858,1.072,1.072,0,0,0-.75-.312C-5714.593,3393.193-5714.621,3393.195-5714.648,3393.2Z" transform="translate(5716.772 -3378)" fill="#fff" stroke="#fff" stroke-miterlimit="10" stroke-width="0.5"/>
  </g>
</svg>
