<svg xmlns="http://www.w3.org/2000/svg" width="57.281" height="61.785" viewBox="0 0 57.281 61.785"><defs><style>.a{fill:#f09a98;}</style></defs><g transform="translate(-245.719 -492)"><circle class="a" cx="20.5" cy="20.5" r="20.5" transform="translate(262 492)"/><g transform="translate(-307.852 -1212.071)"><path d="M560.6,1763.512h-3.516a1.173,1.173,0,0,1-1.172-1.172v-1.172h21.1a1.172,1.172,0,1,0,0-2.344h-21.1V1717.8a1.173,1.173,0,0,1,1.172-1.172h19.925a1.172,1.172,0,1,0,0-2.344H557.087a3.52,3.52,0,0,0-3.516,3.516v44.538a3.52,3.52,0,0,0,3.516,3.516H560.6a1.172,1.172,0,0,0,0-2.344Z" transform="translate(0 0)"/><circle cx="1.758" cy="1.758" r="1.758" transform="translate(569.394 1718.388)"/><path d="M713.732,1742.415a1.171,1.171,0,0,0,1.172-1.172v-8.2a3.52,3.52,0,0,0-3.516-3.516h-2.344v-1.172a3.52,3.52,0,0,0-3.516-3.516V1717.8a3.52,3.52,0,0,0-3.516-3.516H698.5a1.172,1.172,0,1,0,0,2.344h3.516a1.173,1.173,0,0,1,1.172,1.172v7.032h-21.1a3.52,3.52,0,0,0-3.516,3.516v2.344a1.172,1.172,0,0,0,2.344,0v-2.344a1.173,1.173,0,0,1,1.172-1.172h23.441a1.173,1.173,0,0,1,1.172,1.172v14.065a1.173,1.173,0,0,1-1.172,1.172H692.636a1.171,1.171,0,0,0-.681.219l-6.351,4.536v-3.583a1.172,1.172,0,0,0-1.172-1.172h-2.344a1.173,1.173,0,0,1-1.172-1.172v-7.032a1.172,1.172,0,0,0-2.344,0v7.032a3.52,3.52,0,0,0,3.516,3.516h1.172v4.688a1.172,1.172,0,0,0,1.853.953l1.335-.953h14.017l2.72,1.942v6.262H698.5a1.172,1.172,0,1,0,0,2.344h4.688v1.172a1.173,1.173,0,0,1-1.172,1.172H682.087a1.172,1.172,0,0,0,0,2.344h19.925a3.52,3.52,0,0,0,3.516-3.516v-8.1l2.835,2.025a1.165,1.165,0,0,0,.681.219,1.178,1.178,0,0,0,1.172-1.172v-4.688h1.172a3.52,3.52,0,0,0,3.516-3.516v-1.172a1.172,1.172,0,0,0-2.344,0v1.172a1.173,1.173,0,0,1-1.172,1.172h-2.344a1.171,1.171,0,0,0-1.172,1.172v3.583l-6.351-4.536a1.171,1.171,0,0,0-.681-.219H689.729l3.282-2.344h12.517a3.52,3.52,0,0,0,3.516-3.516v-10.548h2.344a1.173,1.173,0,0,1,1.172,1.172v8.2A1.171,1.171,0,0,0,713.732,1742.415Z" transform="translate(-116.796 0)"/><path d="M751.172,1948.773h18.753a1.172,1.172,0,0,0,0-2.344H751.172a1.172,1.172,0,0,0,0,2.344Z" transform="translate(-183.537 -216.906)"/><path d="M751.172,2020.2h9.376a1.172,1.172,0,1,0,0-2.344h-9.376a1.172,1.172,0,1,0,0,2.344Z" transform="translate(-183.537 -283.646)"/><path d="M751.172,2091.63h18.753a1.172,1.172,0,1,0,0-2.344H751.172a1.172,1.172,0,1,0,0,2.344Z" transform="translate(-183.537 -350.387)"/></g></g></svg>