<svg xmlns="http://www.w3.org/2000/svg" width="27.136" height="27.036" viewBox="0 0 27.136 27.036">
  <g id="그룹_812" data-name="그룹 812" transform="translate(-267.336 -397.236)">
    <g id="그룹_810" data-name="그룹 810" transform="translate(273.061 397.236)">
      <path id="패스_406" data-name="패스 406" d="M298.572,424.272H280.79a1.82,1.82,0,0,1-1.815-1.815v-5.371l.71.707.742-.735v5.4a.364.364,0,0,0,.363.363h17.782a.366.366,0,0,0,.363-.363V404.343h-4.194a1.82,1.82,0,0,1-1.815-1.815v-3.841H280.79a.362.362,0,0,0-.363.363v4.664h-1.452V399.05a1.822,1.822,0,0,1,1.815-1.814h12.877a1.547,1.547,0,0,1,1.206.465l4.95,4.678a1.58,1.58,0,0,1,.563,1.27v18.809a1.818,1.818,0,0,1-1.815,1.815Z" transform="translate(-278.975 -397.236)" fill="#0b0d18"/>
      <path id="패스_407" data-name="패스 407" d="M289.888,437.891h.847a1.81,1.81,0,0,0,2.048-1.78V436.1a1.735,1.735,0,0,0-1.939-1.751h-2.069v5.065h1.114Zm0-2.54h.861c.557,0,.9.268.9.767v.014a.784.784,0,0,1-.883.767h-.882Z" transform="translate(-283.954 -416.093)" fill="#040505"/>
      <path id="패스_408" data-name="패스 408" d="M299.777,439.259a1.424,1.424,0,0,0,1.208-.63v.557h1.1V433.9h-1.1v1.91a1.49,1.49,0,0,0-1.208-.578,1.817,1.817,0,0,0-1.765,2v.014A1.825,1.825,0,0,0,299.777,439.259Zm-.666-2.019a.951.951,0,1,1,1.888,0v.014a.951.951,0,1,1-1.888,0Z" transform="translate(-288.648 -415.869)" fill="#040505"/>
      <path id="패스_409" data-name="패스 409" d="M308.2,439.134h1.1V436.2h.875v-.9h-.89v-.152c0-.289.145-.42.4-.42a1.387,1.387,0,0,1,.5.094v-.911a2.423,2.423,0,0,0-.781-.109,1.2,1.2,0,0,0-.89.3,1.277,1.277,0,0,0-.311.94v.246h-.456v.9h.456Z" transform="translate(-293.596 -415.816)" fill="#040505"/>
    </g>
    <path id="패스_410" data-name="패스 410" d="M277.546,412.5h-7.514v5.608h-2.7l6.435,6.413,6.471-6.413h-2.7Z" transform="translate(0 -7.755)" fill="#177e71"/>
  </g>
</svg>
