<svg id="icon_crosshair" xmlns="http://www.w3.org/2000/svg" width="16" height="16" viewBox="0 0 16 16">
  <rect id="사각형_948" data-name="사각형 948" width="16" height="16" fill="#fff" opacity="0"/>
  <path id="타원_134" data-name="타원 134" d="M6-1a7,7,0,0,1,7,7,7,7,0,0,1-7,7A7,7,0,0,1-1,6,7,7,0,0,1,6-1ZM6,11.727A5.727,5.727,0,1,0,.273,6,5.734,5.734,0,0,0,6,11.727Z" transform="translate(2 2)" fill="#222"/>
  <path id="선_308" data-name="선 308" d="M2.03.212H-.394A.606.606,0,0,1-1-.394.606.606,0,0,1-.394-1H2.03a.606.606,0,0,1,.606.606A.606.606,0,0,1,2.03.212Z" transform="translate(12.364 8.394)" fill="#222"/>
  <path id="선_309" data-name="선 309" d="M2.03.212H-.394A.606.606,0,0,1-1-.394.606.606,0,0,1-.394-1H2.03a.606.606,0,0,1,.606.606A.606.606,0,0,1,2.03.212Z" transform="translate(2 8.394)" fill="#222"/>
  <path id="선_310" data-name="선 310" d="M-.394,2.636A.606.606,0,0,1-1,2.03V-.394A.606.606,0,0,1-.394-1a.606.606,0,0,1,.606.606V2.03A.606.606,0,0,1-.394,2.636Z" transform="translate(8.394 2)" fill="#222"/>
  <path id="선_311" data-name="선 311" d="M-.394,2.636A.606.606,0,0,1-1,2.03V-.394A.606.606,0,0,1-.394-1a.606.606,0,0,1,.606.606V2.03A.606.606,0,0,1-.394,2.636Z" transform="translate(8.394 12.364)" fill="#222"/>
</svg>
