<svg xmlns="http://www.w3.org/2000/svg" width="28.871" height="21.499" viewBox="0 0 28.871 21.499">
  <g id="그룹_809" data-name="그룹 809" transform="translate(-266.586 -348.707)">
    <path id="패스_402" data-name="패스 402" d="M283.1,371.2a2.946,2.946,0,0,1-4.166,0l-1.354-1.352-10.248,6.3v2.1a.589.589,0,0,0,.588.589h26.193a.59.59,0,0,0,.591-.589v-2.1l-10.25-6.3Z" transform="translate(0 -9.382)" fill="#fff" stroke="#0b0d18" stroke-width="1.5"/>
    <path id="패스_403" data-name="패스 403" d="M267.336,352.052v15.907l10.248-6.055Z" transform="translate(0 -1.194)" fill="#fff" stroke="#0b0d18" stroke-width="1.5"/>
    <path id="패스_404" data-name="패스 404" d="M299.049,361.866l10.25,6.067V351.995Z" transform="translate(-14.592 -1.168)" fill="#fff" stroke="#0b0d18" stroke-width="1.5"/>
    <path id="패스_405" data-name="패스 405" d="M294.116,349.457H267.924a.589.589,0,0,0-.588.589v.168l11.6,11.6a2.946,2.946,0,0,0,4.166,0l11.6-11.6v-.168A.59.59,0,0,0,294.116,349.457Z" transform="translate(0)" fill="#167e71" stroke="#0b0d18" stroke-width="1.5"/>
  </g>
</svg>
