<svg xmlns="http://www.w3.org/2000/svg" width="14" height="15" viewBox="0 0 14 15">
  <g id="bx-user" transform="translate(-4 -4)">
    <circle id="타원_129" data-name="타원 129" cx="3" cy="3" r="3" transform="translate(8 4)" fill="none"/>
    <path id="패스_1749" data-name="패스 1749" d="M10,2a3.948,3.948,0,1,0,3.889,3.947A3.923,3.923,0,0,0,10,2Zm0,6.316a2.369,2.369,0,1,1,2.333-2.368A2.354,2.354,0,0,1,10,8.316ZM17,17v-.789a5.493,5.493,0,0,0-5.444-5.526H8.444A5.492,5.492,0,0,0,3,16.211V17H4.556v-.789a3.923,3.923,0,0,1,3.889-3.947h3.111a3.923,3.923,0,0,1,3.889,3.947V17Z" transform="translate(1 2)"/>
  </g>
</svg>
