<svg xmlns="http://www.w3.org/2000/svg" width="24" height="24" viewBox="0 0 24 24">
  <path id="패스_433" data-name="패스 433" d="M528.237,96.116l1.936,6.23a1.315,1.315,0,0,0,1.244.945h6.265a1.378,1.378,0,0,1,.769,2.474l-5.068,3.85a1.4,1.4,0,0,0-.476,1.529l1.936,6.23a1.323,1.323,0,0,1-2.013,1.529l-5.068-3.85a1.263,1.263,0,0,0-1.538,0l-5.068,3.85a1.324,1.324,0,0,1-2.013-1.529l1.937-6.23a1.4,1.4,0,0,0-.476-1.529l-5.068-3.85a1.378,1.378,0,0,1,.769-2.474h6.264a1.315,1.315,0,0,0,1.245-.945l1.936-6.23A1.291,1.291,0,0,1,528.237,96.116Z" transform="translate(-514.993 -95.171)" fill="#999"/>
</svg>
