<svg xmlns="http://www.w3.org/2000/svg" width="82.337" height="61.403" viewBox="0 0 82.337 61.403">
  <g id="그룹_1079" data-name="그룹 1079" transform="translate(-50.336 -519.245)">
    <g id="icon_menu02" transform="translate(-173.724 269.03)">
      <g id="그룹_430" data-name="그룹 430" transform="translate(224.06 263.74)">
        <path id="패스_212" data-name="패스 212" d="M547.2,361.3a18.664,18.664,0,1,1-18.664-18.664A18.664,18.664,0,0,1,547.2,361.3Z" transform="translate(-509.875 -342.633)" fill="#ffcf67"/>
      </g>
    </g>
    <g id="그룹_1061" data-name="그룹 1061" transform="translate(65 519.245)">
      <g id="그룹_1060" data-name="그룹 1060" transform="translate(0 0)">
        <g id="그룹_1057" data-name="그룹 1057" transform="translate(9.471 5.177)">
          <rect id="사각형_877" data-name="사각형 877" width="14.484" height="2.947" fill="#040505"/>
        </g>
        <g id="그룹_1058" data-name="그룹 1058">
          <path id="패스_1481" data-name="패스 1481" d="M271.175,226.552H248.162a6.962,6.962,0,0,1-6.954-6.954V172.1a6.962,6.962,0,0,1,6.954-6.954h16.9V168.1h-16.9a4.011,4.011,0,0,0-4.007,4.006V219.6a4.011,4.011,0,0,0,4.007,4.007h23.013a4.011,4.011,0,0,0,4.007-4.007V203.249h2.947V219.6A6.962,6.962,0,0,1,271.175,226.552Z" transform="translate(-241.208 -165.149)" fill="#040505"/>
        </g>
        <g id="그룹_1059" data-name="그룹 1059" transform="translate(26.577)">
          <path id="패스_1482" data-name="패스 1482" d="M332.8,203.989l6.166-10.872h-6.911V165.149h41.1v27.967H351.441Zm2.2-13.82h9.024l-3.271,5.767,9.888-5.767h19.561V168.1H335Z" transform="translate(-332.057 -165.149)" fill="#040505"/>
        </g>
      </g>
    </g>
    <g id="그룹_1064" data-name="그룹 1064" transform="translate(100.109 525.13)">
      <g id="그룹_1062" data-name="그룹 1062" transform="translate(0 0)">
        <path id="패스_1483" data-name="패스 1483" d="M363.348,192.342a3.538,3.538,0,1,1,3.538-3.538A3.542,3.542,0,0,1,363.348,192.342Zm0-5.292A1.754,1.754,0,1,0,365.1,188.8,1.755,1.755,0,0,0,363.348,187.05Z" transform="translate(-359.81 -185.266)" fill="#040505"/>
      </g>
      <g id="그룹_1063" data-name="그룹 1063" transform="translate(9.079 2.646)">
        <rect id="사각형_878" data-name="사각형 878" width="15.258" height="1.784" fill="#040505"/>
      </g>
    </g>
    <g id="그룹_1067" data-name="그룹 1067" transform="translate(100.37 534.227)">
      <g id="그룹_1065" data-name="그룹 1065" transform="translate(0 0)">
        <path id="패스_1484" data-name="패스 1484" d="M364.239,223.436a3.538,3.538,0,1,1,3.538-3.538A3.542,3.542,0,0,1,364.239,223.436Zm0-5.292a1.754,1.754,0,1,0,1.754,1.754A1.756,1.756,0,0,0,364.239,218.144Z" transform="translate(-360.701 -216.36)" fill="#040505"/>
      </g>
      <g id="그룹_1066" data-name="그룹 1066" transform="translate(9.079 2.646)">
        <rect id="사각형_879" data-name="사각형 879" width="15.258" height="1.784" fill="#040505"/>
      </g>
    </g>
  </g>
</svg>
