<svg xmlns="http://www.w3.org/2000/svg" width="30" height="25" viewBox="0 0 30 25"><defs><style>.a{fill:#80bfcf;}.b{fill:#fc0;}</style></defs><g transform="translate(-267.591 -838.958)"><path class="a" d="M285.191,861.62h-15.1a2.6,2.6,0,0,1-2.5-2.518V841.476a2.6,2.6,0,0,1,2.5-2.518h25a2.6,2.6,0,0,1,2.5,2.518v13.257a7.434,7.434,0,0,0-5-1.926,7.533,7.533,0,0,0-7.5,7.554,8.285,8.285,0,0,0,.1,1.259m-7.6-8.926c-2.5,0-7.5,1.372-7.5,3.89v1.259h15v-1.259c0-2.518-5-3.89-7.5-3.89m0-9.959a3.777,3.777,0,1,0,3.75,3.777,3.774,3.774,0,0,0-3.75-3.777m16.25,5.036h-8.75v1.259h8.75v-1.259m1.25-2.518h-10v1.259h10v-1.259m0-2.518h-10v1.259h10Z" transform="translate(0 0)"/><path class="b" d="M353.681,910.687l3.062,1.837-.812-3.465,2.75-2.318-3.612-.308-1.388-3.255-1.412,3.255-3.587.308,2.725,2.318-.85,3.465,3.125-1.837" transform="translate(-61.529 -48.566)"/></g></svg>