<svg xmlns="http://www.w3.org/2000/svg" width="40.2" height="40.2" viewBox="0 0 40.2 40.2">
  <g id="그룹_1212" data-name="그룹 1212" transform="translate(0.1 0.1)">
    <path id="패스_2085" data-name="패스 2085" d="M121.1,224.221a.869.869,0,0,0-1.228.068,9.674,9.674,0,0,1-14.357,0,.87.87,0,0,0-1.3,1.16,11.413,11.413,0,0,0,16.948,0A.87.87,0,0,0,121.1,224.221Z" transform="translate(-92.696 -199.652)" fill="#fff" stroke="#fff" stroke-width="0.2"/>
    <path id="패스_2086" data-name="패스 2086" d="M20,0A20,20,0,1,0,40,20,20.023,20.023,0,0,0,20,0Zm0,38.261A18.261,18.261,0,1,1,38.261,20,18.281,18.281,0,0,1,20,38.261Z" fill="#fff" stroke="#fff" stroke-width="0.2"/>
    <path id="패스_2087" data-name="패스 2087" d="M212.348,128A4.353,4.353,0,0,0,208,132.348a.87.87,0,1,0,1.739,0,2.609,2.609,0,0,1,5.217,0,.87.87,0,1,0,1.739,0A4.353,4.353,0,0,0,212.348,128Z" transform="translate(-185.391 -114.087)" fill="#fff" stroke="#fff" stroke-width="0.2"/>
    <path id="패스_2088" data-name="패스 2088" d="M86.957,132.348a.87.87,0,1,0,1.739,0,4.348,4.348,0,0,0-8.7,0,.87.87,0,1,0,1.739,0,2.609,2.609,0,0,1,5.217,0Z" transform="translate(-71.304 -114.087)" fill="#fff" stroke="#fff" stroke-width="0.2"/>
  </g>
</svg>
