<svg xmlns="http://www.w3.org/2000/svg" width="18" height="20" viewBox="0 0 18 20"><defs><style>.a{fill:#222;}</style></defs><path class="a" d="M150.1,418.689l9-.011v-.727l-2.179-2.145-.007-6.006a6.725,6.725,0,0,0-5.258-6.54l-.191-.045v-.924a1.375,1.375,0,0,0-1.361-1.362h-.024a1.375,1.375,0,0,0-1.359,1.364v.924l-.191.045a6.724,6.724,0,0,0-5.25,6.546v6.006l-2.176,2.147v.727Zm0-1.657h-5.141v-7.223a5.139,5.139,0,0,1,10.277-.006l.009,7.224-5.145.006Z" transform="translate(-141.097 -400.93)"/><path class="a" d="M169.62,475.726a1.906,1.906,0,0,0,1.887,1.657h0a1.905,1.905,0,0,0,1.885-1.66Z" transform="translate(-162.505 -457.384)"/></svg>