<svg xmlns="http://www.w3.org/2000/svg" width="23" height="14" viewBox="0 0 23 14"><defs><style>.a{fill:#26a69a;}</style></defs><path class="a" d="M13,11a3,3,0,1,0-3-3,3,3,0,0,0,3,3m0-4a1,1,0,1,1-1,1,1,1,0,0,1,1-1m4.11,3.86a5,5,0,0,0,0-5.72A2.91,2.91,0,0,1,18,5a3,3,0,0,1,0,6,2.91,2.91,0,0,1-.89-.14M13,13c-6,0-6,4-6,4v2H19V17s0-4-6-4M9,17c0-.29.32-2,4-2,3.5,0,3.94,1.56,4,2m7,0v2H21V17a5.6,5.6,0,0,0-1.8-3.94C24,13.55,24,17,24,17M7.34,8.92,8.5,10.33,3.75,15.08,1,12.08l1.16-1.16L3.75,12.5,7.34,8.92" transform="translate(-1 -5)"/></svg>