<svg xmlns="http://www.w3.org/2000/svg" width="40.2" height="38.2" viewBox="0 0 40.2 38.2">
  <g id="그룹_1237" data-name="그룹 1237" transform="translate(0.1 -1.9)">
    <g id="hat" transform="translate(0 2)">
      <g id="그룹_1210" data-name="그룹 1210">
        <path id="패스_2080" data-name="패스 2080" d="M38.788,18.82a2.273,2.273,0,0,1-.723-1.659C38.065,7.7,29.961,0,20,0S1.935,7.7,1.935,17.161a2.275,2.275,0,0,1-.723,1.659L0,19.971v1.174l.258.184a12.093,12.093,0,0,0,2.323,1.165v3.861c0,6.214,5.154,11.292,11.613,11.614V38H25.806v-.031c6.459-.322,11.613-5.4,11.613-11.614V22.494a12.179,12.179,0,0,0,2.323-1.165L40,21.145V19.972ZM3.871,26.355V22.97q.59.2,1.29.4v2.984a9.456,9.456,0,0,0,9.677,9.194h.017a2.974,2.974,0,0,0-.588,1.2A10.676,10.676,0,0,1,3.871,26.355Zm18.71,7.968H14.839a8.2,8.2,0,0,1-8.387-7.968V23.713A57.056,57.056,0,0,0,20,25.129a57.023,57.023,0,0,0,13.548-1.416v2.642a8.2,8.2,0,0,1-8.387,7.968Zm-6.986,2.452a1.935,1.935,0,0,1,1.825-1.226h5.161a1.935,1.935,0,0,1,1.825,1.226ZM36.129,26.355a10.675,10.675,0,0,1-10.4,10.392,2.97,2.97,0,0,0-.588-1.2h.017a9.456,9.456,0,0,0,9.677-9.194V23.371c.466-.134.9-.268,1.29-.4Zm2.581-5.848c-1.2.692-6.665,3.4-18.71,3.4S2.486,21.2,1.29,20.507l.721-.709C4.693,20.977,10.25,22.677,20,22.677a53.329,53.329,0,0,0,15.194-1.867l-.389-1.169A52,52,0,0,1,20,21.452c-9.409,0-14.793-1.656-17.191-2.658a3.412,3.412,0,0,0,.417-1.633C3.226,8.374,10.751,1.226,20,1.226S36.774,8.375,36.774,17.161a3.407,3.407,0,0,0,.415,1.63c-.4.169-.824.335-1.282.495l.443,1.151c.592-.205,1.128-.424,1.635-.646l.724.688v.027Z" fill="#fff" stroke="#fff" stroke-width="0.2"/>
      </g>
    </g>
    <path id="패스_2083" data-name="패스 2083" d="M13,7.037H11V10H8.037v2H11v2.963h2V12h2.963V10H13Z" transform="translate(8.128 4)" fill="#fff"/>
  </g>
</svg>
