<svg xmlns="http://www.w3.org/2000/svg" width="18.2" height="20.2" viewBox="0 0 18.2 20.2"><defs><style>.a{fill:#222;stroke:#222;stroke-width:0.2px;}</style></defs><g transform="translate(-244.948 -53.562)"><path class="a" d="M260.383,55.794h-2.719a2.325,2.325,0,0,0-2.429-2.132H252.86a2.325,2.325,0,0,0-2.429,2.132h-2.719a2.542,2.542,0,0,0-2.665,2.391v.982a.741.741,0,0,0,.778.7h.457V70.957a2.875,2.875,0,0,0,3.014,2.7h9.5a2.875,2.875,0,0,0,3.014-2.7V59.866h.457a.741.741,0,0,0,.778-.7v-.982A2.542,2.542,0,0,0,260.383,55.794Zm-7.523-.736h2.376a.843.843,0,0,1,.874.736h-4.124A.843.843,0,0,1,252.86,55.058ZM246.6,58.185a1.058,1.058,0,0,1,1.109-1h12.671a1.058,1.058,0,0,1,1.109,1v.284H246.6Zm13.654,12.772a1.391,1.391,0,0,1-1.458,1.309h-9.5a1.391,1.391,0,0,1-1.458-1.309V59.866h12.419Z" transform="translate(0 0)"/><path class="a" d="M273.245,113.713a.7.7,0,0,0,.7-.7v-6.442a.7.7,0,1,0-1.4,0v6.442A.7.7,0,0,0,273.245,113.713Z" transform="translate(-22.403 -43.613)"/><path class="a" d="M290.547,113.713a.7.7,0,0,0,.7-.7v-6.442a.7.7,0,1,0-1.4,0v6.442A.7.7,0,0,0,290.547,113.713Z" transform="translate(-36.499 -43.613)"/><path class="a" d="M307.85,113.713a.7.7,0,0,0,.7-.7v-6.442a.7.7,0,1,0-1.4,0v6.442A.7.7,0,0,0,307.85,113.713Z" transform="translate(-50.596 -43.613)"/></g></svg>