<svg xmlns="http://www.w3.org/2000/svg" width="57.378" height="53.232" viewBox="0 0 57.378 53.232"><defs><style>.a{fill:#ffcf67;}</style></defs><g transform="translate(-214.035 -260.973)"><g transform="translate(224.06 263.74)"><path class="a" d="M547.2,361.3a18.664,18.664,0,1,1-18.664-18.664A18.664,18.664,0,0,1,547.2,361.3Z" transform="translate(-509.875 -342.633)"/></g><path d="M215.682,303.706h18.276v4.951h-4.475a1.511,1.511,0,0,0-1.51,1.51v3.278a.761.761,0,0,0,.761.761h27.33a.761.761,0,0,0,.761-.761v-3.278a1.511,1.511,0,0,0-1.509-1.51H251.49v-4.951h18.275a1.649,1.649,0,0,0,1.647-1.647V262.62a1.649,1.649,0,0,0-1.647-1.647H215.682a1.649,1.649,0,0,0-1.647,1.647v39.438A1.649,1.649,0,0,0,215.682,303.706Zm35.047,6.472H255.3v2.506H229.5v-2.506h5.223a.761.761,0,0,0,.761-.761v-5.711h14.489v5.711A.761.761,0,0,0,250.73,310.178Zm19.036-7.994H215.682a.126.126,0,0,1-.126-.126V298.51h54.335v3.548A.126.126,0,0,1,269.766,302.185Zm-54.209-35.5h54.335v30.3H215.557Zm.126-4.194h54.083a.126.126,0,0,1,.126.126v2.547H215.557V262.62A.126.126,0,0,1,215.682,262.495Z"/><path d="M349.337,580.707a6.883,6.883,0,0,0-5.175,2.33,6.913,6.913,0,0,0-10.559,8.919l.02.025c1.371,1.656,9.465,9.381,9.809,9.709a.761.761,0,0,0,1.033.016c.375-.336,9.19-8.259,10.485-10.1a5.686,5.686,0,0,0,1.3-3.984A6.921,6.921,0,0,0,349.337,580.707ZM343.972,600.1c-1.537-1.473-6.149-5.9-8.267-8.1h3.147a.761.761,0,0,0,.713-.5l.37-.995.857,4.844a.761.761,0,0,0,.707.627h.043a.761.761,0,0,0,.729-.546l1.028-3.487h1.331a.761.761,0,0,0,.524-.209l.315,2.009a.761.761,0,0,0,1.486.082l.545-2h1.2a.761.761,0,0,0,.73-.546l.321-1.088.283,1.056a.761.761,0,0,0,.735.564h1.98C350.711,593.949,346.282,598.015,343.972,600.1ZM354,590.3h-2.644l-.831-3.106a.761.761,0,0,0-.725-.564.771.771,0,0,0-.739.546l-.925,3.138h-1.215a.759.759,0,0,0-.428.132l-.333-2.125a.761.761,0,0,0-1.484-.088l-.619,2.2h-1.324a.761.761,0,0,0-.73.546l-.274.929-.781-4.414a.761.761,0,0,0-1.462-.133l-1.16,3.123h-3.909a5.324,5.324,0,0,1-.82-2.858,5.391,5.391,0,0,1,9.927-2.915.761.761,0,0,0,1.279,0,5.391,5.391,0,0,1,9.927,2.915A4.006,4.006,0,0,1,354,590.3Z" transform="translate(-114.039 -308.899)"/><path d="M1207,513.623a7.844,7.844,0,1,0-7.844-7.845A7.854,7.854,0,0,0,1207,513.623Zm0-14.167a6.323,6.323,0,1,1-6.323,6.323A6.33,6.33,0,0,1,1207,499.456Z" transform="translate(-951.743 -228.931)"/><path d="M1284.714,587.5v2.192a.847.847,0,0,0,.846.846h2.329a.847.847,0,0,0,.846-.846V587.5h2.192a.847.847,0,0,0,.846-.846v-2.328a.847.847,0,0,0-.846-.846h-2.192v-2.192a.847.847,0,0,0-.846-.846h-2.329a.847.847,0,0,0-.846.846v2.192h-2.192a.847.847,0,0,0-.846.846v2.328a.847.847,0,0,0,.846.846ZM1283.2,585h2.277a.761.761,0,0,0,.761-.761V581.96h.978v2.278a.761.761,0,0,0,.761.761h2.277v.977h-2.277a.761.761,0,0,0-.761.761v2.278h-.978v-2.278a.761.761,0,0,0-.761-.761H1283.2Z" transform="translate(-1031.462 -308.639)"/><path d="M1116.722,1012.16h-21.246a.761.761,0,0,0,0,1.522h21.246a.761.761,0,0,0,0-1.522Z" transform="translate(-850.837 -725.732)"/><path d="M1116.722,1150.727h-21.246a.761.761,0,1,0,0,1.521h21.246a.761.761,0,1,0,0-1.521Z" transform="translate(-850.837 -859.604)"/></g></svg>