<svg xmlns="http://www.w3.org/2000/svg" width="15.541" height="15.678" viewBox="0 0 15.541 15.678">
  <g id="그룹_770" data-name="그룹 770" transform="translate(-1045.459 -1734.128)">
    <path id="icon_search_ov" d="M9.847,12.819c-.343.578.267,1.2.1,1.874-2.639.225-6.083,1.477-6.083,2.045v1.078h5.2a6.815,6.815,0,0,0,.785,1.862H2v-2.94c0-2.023,3.148-3.266,6.089-3.772a11.2,11.2,0,0,1,1.758-.148M9.847,4A3.92,3.92,0,1,1,5.923,7.92,3.92,3.92,0,0,1,9.847,4m0,1.862a2.058,2.058,0,1,0,2.06,2.058,2.059,2.059,0,0,0-2.06-2.058" transform="translate(1043.459 1730.128)" fill="#111"/>
    <path id="icon_search_ov-2" data-name="icon_search_ov" d="M5.923,12.819a5.118,5.118,0,0,0,.253,1.874s5.73,1.477,5.73,2.045v1.078H5.2c-1.65.811,1.065,1.293.722,1.862H13.77v-2.94c0-2.023-3.148-3.266-6.089-3.772a11.2,11.2,0,0,0-1.758-.148" transform="translate(1047.23 1730.128)" fill="#111"/>
  </g>
</svg>
