<svg xmlns="http://www.w3.org/2000/svg" width="18.682" height="18.682" viewBox="0 0 18.682 18.682">
  <g id="그룹_1072" data-name="그룹 1072" transform="translate(-925.589 -262.946)">
    <path id="패스_1488" data-name="패스 1488" d="M943.521,273.562v-2.551l-2.289-.7a6.6,6.6,0,0,0-.453-1.084l1.128-2.116-1.8-1.8-2.115,1.128a6.65,6.65,0,0,0-1.084-.452l-.7-2.29h-2.552l-.7,2.29a6.64,6.64,0,0,0-1.083.452l-2.116-1.128-1.8,1.8,1.129,2.116a6.366,6.366,0,0,0-.453,1.084l-2.29.7v2.551l2.29.7a6.4,6.4,0,0,0,.453,1.084l-1.129,2.116,1.8,1.8,2.116-1.129a6.564,6.564,0,0,0,1.083.453l.7,2.29h2.552l.7-2.29a6.574,6.574,0,0,0,1.084-.453l2.115,1.129,1.8-1.8-1.128-2.116a6.555,6.555,0,0,0,.453-1.084Z" fill="#fff"/>
    <path id="패스_1489" data-name="패스 1489" d="M943.521,273.562v-2.551l-2.289-.7a6.6,6.6,0,0,0-.453-1.084l1.128-2.116-1.8-1.8-2.115,1.128a6.65,6.65,0,0,0-1.084-.452l-.7-2.29h-2.552l-.7,2.29a6.64,6.64,0,0,0-1.083.452l-2.116-1.128-1.8,1.8,1.129,2.116a6.366,6.366,0,0,0-.453,1.084l-2.29.7v2.551l2.29.7a6.4,6.4,0,0,0,.453,1.084l-1.129,2.116,1.8,1.8,2.116-1.129a6.564,6.564,0,0,0,1.083.453l.7,2.29h2.552l.7-2.29a6.574,6.574,0,0,0,1.084-.453l2.115,1.129,1.8-1.8-1.128-2.116a6.555,6.555,0,0,0,.453-1.084Z" fill="none" stroke="#161614" stroke-linejoin="round" stroke-width="1.5"/>
    <path id="패스_1490" data-name="패스 1490" d="M937.775,272.891a2.241,2.241,0,1,1-2.241-2.239,2.24,2.24,0,0,1,2.241,2.239" transform="translate(-0.605 -0.605)" fill="#fff"/>
    <path id="패스_1491" data-name="패스 1491" d="M937.775,272.891a2.241,2.241,0,1,1-2.241-2.239A2.24,2.24,0,0,1,937.775,272.891Z" transform="translate(-0.605 -0.605)" fill="none" stroke="#161614" stroke-linejoin="round" stroke-width="2"/>
  </g>
</svg>
