<svg xmlns="http://www.w3.org/2000/svg" width="11.556" height="16" viewBox="0 0 11.556 16">
  <g id="icon_navi_b" transform="translate(-538.351 -241.36)">
    <path id="패스_175" data-name="패스 175" d="M544.134,241.36h-.01a5.811,5.811,0,0,0-4.082,1.665,5.6,5.6,0,0,0-.979,6.744l2.578,3.863.012.018,2.476,3.711,2.463-3.692.015-.022,2.588-3.878a5.564,5.564,0,0,0,.712-2.732A5.728,5.728,0,0,0,544.134,241.36Zm0,9.2a3.537,3.537,0,1,1,3.6-3.537A3.569,3.569,0,0,1,544.129,250.563Z" transform="translate(0 0)" fill="#888"/>
    <circle id="타원_53" data-name="타원 53" cx="2.388" cy="2.388" r="2.388" transform="translate(541.741 244.766)" fill="#888"/>
  </g>
</svg>
