<svg xmlns="http://www.w3.org/2000/svg" width="78" height="65" viewBox="0 0 78 65"><defs><style>.a{fill:#9dd0f1;}</style></defs><g transform="translate(-215 -337)"><circle class="a" cx="20.5" cy="20.5" r="20.5" transform="translate(215 361)"/><g transform="translate(-282 220)"><path d="M535,175h-6v-2h4v-4.3l.75-.193a14.942,14.942,0,0,0,3.856-1.6l.668-.393,3.039,3.039,4.244-4.243-3.039-3.04.393-.668a14.941,14.941,0,0,0,1.6-3.856l.193-.75H549v-6h-4.3l-.193-.75a14.941,14.941,0,0,0-1.6-3.856l-.393-.668,3.039-3.04-4.244-4.243-3.039,3.039-.668-.393a14.942,14.942,0,0,0-3.856-1.6L533,139.3V135h-2.687v-2H535v4.769a16.932,16.932,0,0,1,2.943,1.216l3.37-3.37,7.072,7.071-3.37,3.371A16.9,16.9,0,0,1,546.231,149H551v10h-4.769a16.9,16.9,0,0,1-1.216,2.943l3.37,3.371-7.072,7.071-3.37-3.37A16.932,16.932,0,0,1,535,170.231Z"/><path d="M530,165v-2a9,9,0,0,0,0-18v-2a11,11,0,0,1,0,22Z"/><path d="M575,179H522v-2h51V131h-3v-2h5Z"/><rect width="30" height="2" transform="translate(530 129)"/><path d="M530,161v-2a4.993,4.993,0,0,0,2.5-.668l1,1.731A7,7,0,0,1,530,161Z"/><path d="M535.352,158.511l-1.529-1.289A5,5,0,0,0,530,149v-2a7,7,0,0,1,5.352,11.511Z"/><path d="M568,159h-6a3,3,0,0,1-3-3V127.808l3.7-9.25a2.476,2.476,0,0,1,4.6,0l3.7,9.249V156A3,3,0,0,1,568,159Zm-7-30.808V156a1,1,0,0,0,1,1h6a1,1,0,0,0,1-1V128.192l-3.558-8.892a.5.5,0,0,0-.884,0h0Z"/><rect width="10" height="2" transform="translate(560 127)"/><rect width="2" height="23" transform="translate(564 128)"/><rect width="10" height="2" transform="translate(560 150)"/><path d="M571,175H551V161h20Zm-18-2h16V163H553Z"/><rect width="8" height="2" transform="translate(559 165)"/><rect width="2" height="2" transform="translate(555 165)"/><rect width="8" height="2" transform="translate(555 169)"/><rect width="2" height="2" transform="translate(565 169)"/><path d="M522,179a9.01,9.01,0,0,1-9-9V130a9,9,0,0,1,18,0v40A9.01,9.01,0,0,1,522,179Zm0-56a7.009,7.009,0,0,0-7,7v40a7,7,0,0,0,14,0V130A7.009,7.009,0,0,0,522,123Z"/><path d="M522,175a5,5,0,1,1,5-5h-2a3,3,0,1,0-3,3Z"/><path d="M531,170h-2a7,7,0,0,0-14,0h-2a9,9,0,0,1,18,0Z"/></g></g></svg>