<svg xmlns="http://www.w3.org/2000/svg" width="20" height="20" viewBox="0 0 20 20">
  <g id="bx-edit" transform="translate(-3 -2.478)">
    <path id="패스_2066" data-name="패스 2066" d="M7,17.013,11.413,17l9.632-9.54a2,2,0,0,0,0-2.828L19.459,3.044a2.05,2.05,0,0,0-2.825,0L7,12.583ZM18.045,4.458l1.589,1.583-1.6,1.582L16.451,6.038ZM9,13.417l6.03-5.973L16.616,9.03,10.587,15,9,15.006Z" transform="translate(1.369)"/>
    <path id="패스_2067" data-name="패스 2067" d="M5.152,22.478H20.217a2.16,2.16,0,0,0,2.152-2.164v-9.38L20.217,13.1v7.216H8.55c-.028,0-.057.011-.085.011s-.071-.01-.108-.011H5.152V5.164H12.52L14.672,3H5.152A2.16,2.16,0,0,0,3,5.164v15.15A2.16,2.16,0,0,0,5.152,22.478Z" transform="translate(0 0)"/>
  </g>
</svg>
