<svg xmlns="http://www.w3.org/2000/svg" width="71" height="62" viewBox="0 0 71 62"><defs><style>.a{fill:#9dd0f1;}</style></defs><g transform="translate(-66 -185)"><circle class="a" cx="20.5" cy="20.5" r="20.5" transform="translate(96 193)"/><g transform="translate(-63 68)"><rect width="2" height="2" transform="translate(157 127)"/><rect width="2" height="2" transform="translate(162 128)"/><rect width="2" height="2" transform="translate(167 129)"/><rect width="2" height="2" transform="translate(152 137)"/><path d="M191,135H180.807a1.989,1.989,0,0,0-1.469-1.128l-2.338-.4V132a15,15,0,0,0-29.561-3.6l-1.1-.189a2,2,0,0,0-2.338,1.97v1.972a1.994,1.994,0,0,0,1.662,1.971l1.338.229V135h-3.424a4.99,4.99,0,0,0-9.152,0H129v20h5v6.5a5.46,5.46,0,0,0,6.288,5.437l.006.019.13-.04a5.46,5.46,0,0,0,1.356-.417l9.671-2.976A29.36,29.36,0,0,0,151,168.63V179h29.31L177.3,167.962l.916-.166-3.01-12.8H191Zm-29-16a12.967,12.967,0,0,1,9.865,4.557l-1.665,1.116a10.991,10.991,0,0,0-16.262-.153l-1.4-1.4A13.016,13.016,0,0,1,162,119Zm-10.731,5.682,2.843,2.838.692-.918a8.99,8.99,0,0,1,14.4.007l.569.758,3.272-2.192A12.9,12.9,0,0,1,175,132v1.128l-25.579-4.385A12.886,12.886,0,0,1,151.269,124.682Zm-5.269,5.5,33,5.658v1.972l-5.831-1-.338,1.97,1.8.308A13.074,13.074,0,0,1,165,148.632v-2.667a3.5,3.5,0,0,0-.5-6.965,1.5,1.5,0,0,1-1.5-1.5v-.4l7.831,1.342.338-1.97L146,132.157Zm15,6.572v.743a3.5,3.5,0,0,0,3.5,3.5,1.5,1.5,0,0,1,0,3H163v4.954c-.331.025-.664.046-1,.046a13.015,13.015,0,0,1-13-13v-1.3ZM139,134a3,3,0,0,1,3,3v2a3,3,0,0,1-6,0v-2A3,3,0,0,1,139,134Zm-8,3h3v2a5,5,0,0,0,10,0v-2h3.051a15.017,15.017,0,0,0,10.4,13.291A29.2,29.2,0,0,0,155.527,153H131Zm5,24.5V155h7v6.5a3.494,3.494,0,0,1-1.987,3.142l-.993.305a3.432,3.432,0,0,1-.52.053A3.5,3.5,0,0,1,136,161.5Zm8.6,2.037a5.459,5.459,0,0,0,.4-2.037V155h9.369a29.288,29.288,0,0,0-2.425,6.278Zm8.4,5.093a27.281,27.281,0,0,1,6.643-17.834A15.011,15.011,0,0,0,162,151a14.787,14.787,0,0,0,1.88-.134,6.381,6.381,0,0,0-1.717,5.956l3.077,13.332,1.914-.348,1.6,7.194H153ZM177.69,177H170.8l-1.678-7.552,6.2-1.127Zm-10.93-9.154-2.648-11.473A4.388,4.388,0,0,1,168.387,151h.346A4.372,4.372,0,0,1,173,154.382l2.781,11.822ZM189,153H174.649a6.334,6.334,0,0,0-5.313-3.949,15.052,15.052,0,0,0,7.266-9.619l2.06.353a1.951,1.951,0,0,0,.339.03,2,2,0,0,0,2-2V137h8Z"/></g></g></svg>