<svg xmlns="http://www.w3.org/2000/svg" width="41.349" height="34.89" viewBox="0 0 41.349 34.89">
  <g id="아이콘" transform="translate(-1104.802 -459.395)">
    <g id="그룹_346" data-name="그룹 346" transform="translate(1105.052 459.645)">
      <g id="그룹_345" data-name="그룹 345" transform="translate(0 0)">
        <g id="그룹_340" data-name="그룹 340">
          <path id="패스_680" data-name="패스 680" d="M448.541,471.053a.683.683,0,0,1-.683-.683v-4.29h-2.267a5.429,5.429,0,0,1-5.379-5.466V449.531a5.429,5.429,0,0,1,5.379-5.466H463.96a5.429,5.429,0,0,1,5.379,5.466v11.082a5.429,5.429,0,0,1-5.379,5.466h-8.945l-6.047,4.824A.683.683,0,0,1,448.541,471.053Zm-2.95-25.621a4.061,4.061,0,0,0-4.012,4.1v11.082a4.061,4.061,0,0,0,4.012,4.1h2.951a.683.683,0,0,1,.683.683v3.554l5.125-4.088a.684.684,0,0,1,.426-.149h9.185a4.062,4.062,0,0,0,4.013-4.1V449.531a4.062,4.062,0,0,0-4.013-4.1Z" transform="translate(-440.212 -444.065)" fill="#333" stroke="#333" stroke-width="0.5"/>
        </g>
        <g id="그룹_341" data-name="그룹 341" transform="translate(16.039 11.387)">
          <path id="패스_681" data-name="패스 681" d="M504.832,500.4a.682.682,0,0,1-.426-.149l-5.078-4.051H491.81a4.691,4.691,0,0,1-4.648-4.723v-1.539h1.366v1.539a3.324,3.324,0,0,0,3.282,3.356h7.757a.684.684,0,0,1,.426.149l4.156,3.315v-2.781a.683.683,0,0,1,.683-.683h2.492a3.324,3.324,0,0,0,3.282-3.356V482.12a3.323,3.323,0,0,0-3.282-3.356H501.84V477.4h5.484a4.691,4.691,0,0,1,4.648,4.722v9.358a4.691,4.691,0,0,1-4.648,4.723h-1.808v3.517a.684.684,0,0,1-.683.683Z" transform="translate(-487.162 -477.397)" fill="#333" stroke="#000" stroke-miterlimit="10" stroke-width="0.5"/>
        </g>
        <g id="그룹_342" data-name="그룹 342" transform="translate(8.184 10.399)">
          <path id="패스_682" data-name="패스 682" d="M464.853,475.864a.687.687,0,0,1-.482-.2.678.678,0,0,1-.2-.485.883.883,0,0,1,.014-.133.77.77,0,0,1,.038-.126.793.793,0,0,1,.065-.12.633.633,0,0,1,.085-.1.7.7,0,0,1,.963,0,.68.68,0,0,1,0,.967.667.667,0,0,1-.482.2Z" transform="translate(-464.17 -474.507)" fill="#333" stroke="#000" stroke-miterlimit="10" stroke-width="1"/>
        </g>
        <g id="그룹_343" data-name="그룹 343" transform="translate(13.879 10.391)">
          <path id="패스_683" data-name="패스 683" d="M481.523,475.848a.687.687,0,0,1-.482-.2.679.679,0,0,1-.2-.485.694.694,0,0,1,.2-.482.641.641,0,0,1,.1-.085.817.817,0,0,1,.12-.061.89.89,0,0,1,.126-.041.681.681,0,0,1,.816.669.675.675,0,0,1-.2.485A.689.689,0,0,1,481.523,475.848Z" transform="translate(-480.84 -474.482)" fill="#333" stroke="#000" stroke-miterlimit="10" stroke-width="1"/>
        </g>
        <g id="그룹_344" data-name="그룹 344" transform="translate(19.574 10.391)">
          <path id="패스_684" data-name="패스 684" d="M498.2,475.848a.681.681,0,0,1-.263-.051.742.742,0,0,1-.222-.147.679.679,0,0,1-.2-.485.693.693,0,0,1,.2-.482.6.6,0,0,1,.222-.147.9.9,0,0,1,.126-.041.716.716,0,0,1,.27,0,.9.9,0,0,1,.126.041.823.823,0,0,1,.12.061.637.637,0,0,1,.1.085.69.69,0,0,1,.2.482.675.675,0,0,1-.2.485A.687.687,0,0,1,498.2,475.848Z" transform="translate(-497.51 -474.482)" fill="#333" stroke="#000" stroke-miterlimit="10" stroke-width="1"/>
        </g>
      </g>
      <path id="패스_685" data-name="패스 685" d="M448.169,448.183a4.01,4.01,0,0,0-3.961,4.047v10.94a4.01,4.01,0,0,0,3.961,4.047h2.912a.675.675,0,0,1,.674.674V471.4l5.06-4.036a.674.674,0,0,1,.421-.147H466.3a4.009,4.009,0,0,0,3.961-4.047V452.23a4.009,4.009,0,0,0-3.961-4.047Z" transform="translate(-442.674 -446.626)" fill="#4dd5c8"/>
      <circle id="타원_11" data-name="타원 11" cx="1.396" cy="1.396" r="1.396" transform="translate(7.843 9.558)" fill="#fff"/>
      <circle id="타원_12" data-name="타원 12" cx="1.396" cy="1.396" r="1.396" transform="translate(12.532 9.558)" fill="#fff"/>
      <circle id="타원_13" data-name="타원 13" cx="1.396" cy="1.396" r="1.396" transform="translate(27.761 20.096)" fill="#008f84"/>
      <circle id="타원_14" data-name="타원 14" cx="1.396" cy="1.396" r="1.396" transform="translate(32.45 20.096)" fill="#008f84"/>
      <circle id="타원_15" data-name="타원 15" cx="1.396" cy="1.396" r="1.396" transform="translate(17.29 9.558)" fill="#fff"/>
    </g>
  </g>
</svg>
