<svg xmlns="http://www.w3.org/2000/svg" width="40.289" height="40.501" viewBox="0 0 40.289 40.501">
  <g id="clapping" transform="translate(0.25 0.25)">
    <path id="패스_2070" data-name="패스 2070" d="M35.972,5.568a.6.6,0,0,0-.752-.391l-.79.25a.6.6,0,1,0,.36,1.144l.79-.25a.6.6,0,0,0,.392-.753Zm0,0" transform="translate(4)" fill="#fff" stroke="#fff" stroke-width="0.07"/>
    <path id="패스_2071" data-name="패스 2071" d="M34.407,2.586a.6.6,0,0,0-.847.048l-.54.605a.6.6,0,0,0,.9.8l.54-.605a.6.6,0,0,0-.048-.847Zm0,0" transform="translate(4)" fill="#fff" stroke="#fff" stroke-width="0.07"/>
    <path id="패스_2072" data-name="패스 2072" d="M30.447,2l-.147.8a.6.6,0,0,0,.48.7.557.557,0,0,0,.109.01.6.6,0,0,0,.59-.493l.146-.8A.6.6,0,1,0,30.443,2Zm0,0" transform="translate(4)" fill="#fff" stroke="#fff" stroke-width="0.07"/>
    <path id="패스_2073" data-name="패스 2073" d="M35.4,32.361a.6.6,0,0,0,.18-1.173l-.79-.25a.6.6,0,0,0-.36,1.144l.79.25a.6.6,0,0,0,.18.028Zm0,0" transform="translate(4 4)" fill="#fff" stroke="#fff" stroke-width="0.07"/>
    <path id="패스_2074" data-name="패스 2074" d="M33.068,33.423a.6.6,0,0,0-.048.847l.54.605a.6.6,0,0,0,.9-.8l-.54-.605a.6.6,0,0,0-.847-.048Zm0,0" transform="translate(4 4)" fill="#fff" stroke="#fff" stroke-width="0.07"/>
    <path id="패스_2075" data-name="패스 2075" d="M30.784,34.011a.6.6,0,0,0-.48.7l.146.8a.6.6,0,0,0,.59.492.557.557,0,0,0,.109-.01.6.6,0,0,0,.48-.7l-.146-.8a.6.6,0,0,0-.7-.482Zm0,0" transform="translate(4 4)" fill="#fff" stroke="#fff" stroke-width="0.07"/>
    <path id="패스_2076" data-name="패스 2076" d="M2.014,37.333H4.076a.623.623,0,0,1,.458.177C6.8,39.972,10.583,40,10.743,40H26.857a2.746,2.746,0,0,0,2.791-2.467A2.629,2.629,0,0,0,29.3,36h2.932a2.689,2.689,0,0,0,2.326-1.333,2.65,2.65,0,0,0,0-2.667h.359a2.667,2.667,0,1,0,0-5.334h-.361a2.638,2.638,0,0,0,.041-2.589,2.675,2.675,0,0,0-2.2-1.392,2.612,2.612,0,0,0-.31-3.8l2.737-1.046a2.667,2.667,0,0,0,1.715-2.661,2.489,2.489,0,0,0-.175-.782,2.635,2.635,0,0,0-.82-1.119l.336-.128a2.608,2.608,0,0,0,1.379-1.2A2.645,2.645,0,0,0,36.942,8.9a2.692,2.692,0,0,0-2.993-.735l-.331.126A2.657,2.657,0,0,0,32.649,5.8a2.7,2.7,0,0,0-2.657-.409L18.091,9.95a7.549,7.549,0,0,1-2.3.533.663.663,0,0,1-.6-.289.631.631,0,0,1-.067-.612A9.942,9.942,0,0,1,16.182,7.7l.044-.062c1.524-2.145,3.1-4.362,2.491-5.929A2.626,2.626,0,0,0,16.45,0a2.08,2.08,0,0,0-1.96,1.4c-.575,1.279-3.021,3.5-5.179,5.449-.515.467-1.024.927-1.505,1.373a18.664,18.664,0,0,0-3.911,6.094,3.314,3.314,0,0,1-1.852,1.771l-.763.291A1.987,1.987,0,0,0,0,18.241V35.333a2.007,2.007,0,0,0,2.014,2ZM33.572,25.339a1.338,1.338,0,0,1-1.343,1.333H20.814a.667.667,0,1,0,0,1.333h14.1a1.333,1.333,0,1,1,0,2.667h-14.1a.667.667,0,1,0,0,1.333H32.229a1.333,1.333,0,1,1,0,2.667H20.143a.667.667,0,1,0,0,1.333h6.828a1.348,1.348,0,0,1,.984.427,1.328,1.328,0,0,1,.354,1.006,1.422,1.422,0,0,1-1.452,1.228H10.743c-.033,0-3.345-.023-5.22-2.057A1.97,1.97,0,0,0,4.076,36H2.014a.669.669,0,0,1-.671-.667V24.672a.669.669,0,0,1,.671-.667h.249A4.7,4.7,0,0,0,5.6,22.611a18.161,18.161,0,0,1,5.388-3.985c1.295-.513,7.84-3.166,9.625-4.938.32-.317.615-.422.879-.315a1.31,1.31,0,0,1,.661,1.177c0,.658-1.511,2.324-4.4,4.236a10.861,10.861,0,0,0-1.9,1.572,1.97,1.97,0,0,0-.483,1.841A2.018,2.018,0,0,0,16.7,23.619a8.837,8.837,0,0,0,2.774.387H32.228a1.338,1.338,0,0,1,1.343,1.332Zm-31.8-7.717.748-.288A4.666,4.666,0,0,0,5.13,14.841,17.914,17.914,0,0,1,8.716,9.2c.48-.444.986-.9,1.5-1.365,2.366-2.143,4.812-4.358,5.506-5.9.179-.407.42-.607.7-.607a1.317,1.317,0,0,1,1.045.859c.349.9-1.2,3.086-2.336,4.681l-.044.062A11.057,11.057,0,0,0,13.9,9.04l-.018.039a7.7,7.7,0,0,0-.336,4.241.672.672,0,0,0,1.327-.2,8.7,8.7,0,0,1-.1-1.563,2.066,2.066,0,0,0,1.079.267,8.88,8.88,0,0,0,2.723-.624l11.9-4.555a1.353,1.353,0,0,1,1.329.207,1.331,1.331,0,0,1-.361,2.285l-.006,0h-.007l-5.5,2.247a.665.665,0,0,0-.366.87.673.673,0,0,0,.876.363l5.492-2.244,2.5-.956a1.353,1.353,0,0,1,1.739.763,1.305,1.305,0,0,1-.086,1.127,1.288,1.288,0,0,1-.684.6l-2.489.955h-.018L24.6,16.044a.668.668,0,0,0,.485,1.245l8.285-3.18h.01l.009,0a1.352,1.352,0,0,1,1.727.782,1.226,1.226,0,0,1,.085.381,1.333,1.333,0,0,1-.86,1.333l-4.885,1.866-.022.009-4.067,1.551a.666.666,0,0,0,.241,1.289.68.68,0,0,0,.242-.045l4.066-1.555h0l.016-.007a1.339,1.339,0,0,1,1.746.87,1.4,1.4,0,0,1-.909,1.667l-.927.353a.613.613,0,0,0-.121.076H19.471a7.507,7.507,0,0,1-2.342-.318.677.677,0,0,1-.449-.481.637.637,0,0,1,.159-.6A9.536,9.536,0,0,1,18.5,19.9c1.867-1.238,5-3.575,5-5.348a2.61,2.61,0,0,0-1.49-2.408,2.113,2.113,0,0,0-2.342.6c-1.161,1.153-5.444,3.162-9.175,4.644a18.967,18.967,0,0,0-5.851,4.291,3.349,3.349,0,0,1-2.38.992H2.014a2,2,0,0,0-.671.123V18.241a.66.66,0,0,1,.425-.619Zm0,0" transform="translate(0)" fill="#fff" stroke="#fff" stroke-width="0.5"/>
  </g>
</svg>
