<svg xmlns="http://www.w3.org/2000/svg" width="14" height="12" viewBox="0 0 14 12"><defs><style>.a{fill:#333;}</style></defs><g transform="translate(-367.152 -408.101)"><path class="a" d="M375.389,414.207a1.879,1.879,0,1,0,1.879,1.879A1.881,1.881,0,0,0,375.389,414.207Z" transform="translate(-1.169 -1.336)"/><path class="a" d="M379.754,409.434h-2.219l-1.281-1.333h-4.2l-1.281,1.333h-2.219a1.372,1.372,0,0,0-1.4,1.334v8a1.373,1.373,0,0,0,1.4,1.333h11.2a1.372,1.372,0,0,0,1.4-1.333v-8A1.371,1.371,0,0,0,379.754,409.434Zm-5.6,8.666a3.335,3.335,0,1,1,3.5-3.333,3.42,3.42,0,0,1-3.5,3.333Z"/></g></svg>