<svg xmlns="http://www.w3.org/2000/svg" width="16" height="16" viewBox="0 0 16 16"><defs><style>.a{fill:#333;}</style></defs><path class="a" d="M8.525,18.871c1.5-.622,1.17-2.338.413-3.423a10.516,10.516,0,0,0-2.829-2.614A8.425,8.425,0,0,1,4.139,11c-.236-.293-.716-.836-.227-.942s1.356.409,1.793.6a15.528,15.528,0,0,1,2.231,1.191l.85-1.511A11.554,11.554,0,0,0,4.223,8.379,1.708,1.708,0,0,0,2.084,9.455a2.917,2.917,0,0,0,.648,2.463c1.153,1.627,2.947,2.409,4.285,3.814a3.572,3.572,0,0,1,.8,1.049c.177.391.135.418-.261.418a6.953,6.953,0,0,1-3.2-1.431l-.85,1.511c1.288.836,3.444,2.143,5.018,1.592M17.862,5a.513.513,0,0,0,0-.7L16.768,3.143a.455.455,0,0,0-.657,0l-.859.907L17,5.9M9.578,10.042v1.849h1.751l5.178-5.468L14.755,4.574Z" transform="translate(-2.001 -3.002)"/></svg>