<svg xmlns="http://www.w3.org/2000/svg" xmlns:xlink="http://www.w3.org/1999/xlink" width="26" height="22" viewBox="0 0 26 22"><defs><style>.a,.b{fill-rule:evenodd;}.a{fill:url(#a);}.b{fill:#fc0;}</style><linearGradient id="a" x1="0.362" y1="0.206" x2="0.768" y2="1" gradientUnits="objectBoundingBox"><stop offset="0" stop-color="#bfbfbf"/><stop offset="1" stop-color="#c3c3c3"/></linearGradient></defs><g transform="translate(-76.468 -595)"><path class="a" d="M144.535,354.937h3.9c.755-4.341,4.581-7.189,8.547-6.363a7.51,7.51,0,0,1,5.434,4.926h1.273a3.967,3.967,0,0,1,3.757,4.112h0a4,4,0,0,1-3.535,4.09H144.535a3.261,3.261,0,0,1-3.091-3.383h0a3.261,3.261,0,0,1,3.091-3.383Z" transform="translate(-64.977 246.569)"/><path class="b" d="M1.973,15.514l8.613-8.72H5.409L8.783,0,0,9.136H4.656s-2.942,6.733-2.681,6.378Z" transform="translate(84.311 601.29) rotate(1)"/></g></svg>