<svg xmlns="http://www.w3.org/2000/svg" width="16" height="16" viewBox="0 0 16 16"><defs><style>.a{fill:#008f84;}</style></defs><path class="a" d="M2.667,2.667h4v4h-4v-4m10.667,0v4h-4v-4h4M9.333,10h1.333V8.667H9.333V7.333h1.333V8.667H12V7.333h1.333V8.667H12V10h1.333v2H12v1.333H10.667V12h-2v1.333H7.333V10.667h2V10m1.333,0v2H12V10H10.667m-8,3.333v-4h4v4h-4M4,4V5.333H5.333V4H4m6.667,0V5.333H12V4H10.667M4,10.667V12H5.333V10.667H4M2.667,7.333H4V8.667H2.667V7.333M6,7.333H8.667V10H7.333V8.667H6V7.333M7.333,4H8.667V6.667H7.333V4m-6-2.667V4H0V1.333A1.333,1.333,0,0,1,1.333,0H4V1.333H1.333M14.667,0A1.333,1.333,0,0,1,16,1.333V4H14.667V1.333H12V0h2.667M1.333,12v2.667H4V16H1.333A1.333,1.333,0,0,1,0,14.667V12H1.333m13.333,2.667V12H16v2.667A1.333,1.333,0,0,1,14.667,16H12V14.667Z"/></svg>