<svg xmlns="http://www.w3.org/2000/svg" width="27.5" height="27.5" viewBox="0 0 27.5 27.5"><defs><style>.a{stroke:#fff;stroke-width:0.5px;}</style></defs><path class="a" d="M11.45,29a1.35,1.35,0,0,1-1.35-1.35V23.6H4.7A2.7,2.7,0,0,1,2,20.9V4.7A2.7,2.7,0,0,1,4.7,2H26.3A2.7,2.7,0,0,1,29,4.7V20.9a2.7,2.7,0,0,1-2.7,2.7H18.065L13.07,28.608a1.376,1.376,0,0,1-.945.392H11.45m1.35-8.1v4.158L16.958,20.9H26.3V4.7H4.7V20.9h8.1m8.775-10.8L14.15,17.525,9.425,12.8l1.9-1.9L14.15,13.7,19.671,8.2Z" transform="translate(-1.75 -1.75)"/></svg>