<svg xmlns="http://www.w3.org/2000/svg" width="55.415" height="59.902" viewBox="0 0 55.415 59.902"><defs><style>.a{fill:#008f84;}</style></defs><g transform="translate(-945.981 -511.542)"><path class="a" d="M975.244,533.658h-21.49a.929.929,0,0,0-.352.086c-.013.006-.023.019-.036.026a.913.913,0,0,0-.247.179l-.014.01a1.056,1.056,0,0,0-.055.091.885.885,0,0,0-.12.194.974.974,0,0,0-.036.153,1.026,1.026,0,0,0-.037.157c0,.013.006.024.006.037s-.006.025-.006.038a.964.964,0,0,0,.04.169.864.864,0,0,0,.034.144.938.938,0,0,0,.109.176.876.876,0,0,0,.081.117.927.927,0,0,0,.171.125.79.79,0,0,0,.114.078.915.915,0,0,0,.358.087h21.48l.012,0h.051a.924.924,0,0,0,.281-.067c.006,0,.014,0,.02-.005a.924.924,0,0,0,.3-1.545A.907.907,0,0,0,975.244,533.658Z"/><path class="a" d="M953.409,529.216a.891.891,0,0,0-.121.083.979.979,0,0,0-.165.12c-.005.006-.013.008-.018.013a.957.957,0,0,0-.072.118.9.9,0,0,0-.1.165.921.921,0,0,0-.038.164.874.874,0,0,0-.036.151c0,.013.006.024.006.036s-.006.024-.006.036a.853.853,0,0,0,.036.151.883.883,0,0,0,.038.164.953.953,0,0,0,.1.165,1.112,1.112,0,0,0,.073.118c.005.006.013.008.018.013a.927.927,0,0,0,.183.132.881.881,0,0,0,.1.071.935.935,0,0,0,.346.083h21.553a.885.885,0,0,0,.123-.03.935.935,0,0,0,.2-.048.954.954,0,0,0,.135-.085.828.828,0,0,0,.135-.086.282.282,0,0,0,.021-.028c.009-.009.021-.012.03-.022a.929.929,0,0,0,.079-.127.943.943,0,0,0,.093-.151.916.916,0,0,0,.043-.181.936.936,0,0,0,.033-.139c0-.012-.006-.023-.006-.036s.007-.023.006-.036a3324.06,3324.06,0,0,1-.076-.32.943.943,0,0,0-.093-.151.993.993,0,0,0-.079-.127c-.009-.009-.021-.013-.03-.022s-.012-.02-.021-.028a.83.83,0,0,0-.124-.077.592.592,0,0,0-.349-.142,1.046,1.046,0,0,0-.12-.029H953.754A.906.906,0,0,0,953.409,529.216Z"/><path class="a" d="M953.558,524.781a1.041,1.041,0,0,0-.169.042.966.966,0,0,0-.28.191l-.005,0a.88.88,0,0,0-.091.137.547.547,0,0,0-.149.373.925.925,0,0,0-.029.137l0,.007,0,.007a.888.888,0,0,0,.029.136.921.921,0,0,0,.045.216.877.877,0,0,0,.1.154.943.943,0,0,0,.093.142l.005,0a.954.954,0,0,0,.295.2,1.019,1.019,0,0,0,.127.026.856.856,0,0,0,.231.048h4.185a.917.917,0,0,0,.345-.071c.026-.011.045-.033.07-.046a.9.9,0,0,0,.224-.149l.005-.007.005,0a.908.908,0,0,0,.072-.11.919.919,0,0,0,.125-.19.818.818,0,0,0,.032-.158.88.88,0,0,0,.039-.19v-.013a.877.877,0,0,0-.039-.191.819.819,0,0,0-.032-.158.947.947,0,0,0-.125-.19.822.822,0,0,0-.072-.109l-.005,0-.005-.008a.5.5,0,0,0-.063-.038.92.92,0,0,0-.563-.223c-.011,0-.022-.006-.034-.007h-4.164A.881.881,0,0,0,953.558,524.781Z"/><path class="a" d="M1000.467,559.127h-.231a10.074,10.074,0,0,0,.813-3.924V540.845a3.229,3.229,0,0,0-3.221-3.219,3.177,3.177,0,0,1-4.57-2.727,3.174,3.174,0,0,0-1.355.31v-.631a3.217,3.217,0,0,0-3.277-3.16,3.235,3.235,0,0,0-1.295.3v-2.512a3.219,3.219,0,0,0-3.2-3.227h-.012a3.2,3.2,0,0,0-1.349.307v-2.741h9.1a.934.934,0,0,0,.933-.932v-5.129l-.053-.762-.008-.083a5.932,5.932,0,0,0-5.88-5.1h-.007v0H955.288a5.959,5.959,0,0,0-5.943,5.943v41.7a.936.936,0,0,0,.351.725l-3.572,5.689a.933.933,0,0,0,.295,1.286.934.934,0,0,0,.786.1l5.113-1.684.705,5.336a.937.937,0,0,0,.729.791.985.985,0,0,0,.2.02.926.926,0,0,0,.791-.438l4.346-6.925,3.943,6.287a.935.935,0,0,0,.791.439,1.3,1.3,0,0,0,.2-.022.936.936,0,0,0,.726-.79l.7-5.337,5.117,1.686a.956.956,0,0,0,.957-.231.928.928,0,0,0,.269-.661.912.912,0,0,0-.182-.545l-3-4.784h12.662v6.39a.931.931,0,0,0,1.863,0v-5.52h16.4v5.529a.936.936,0,0,0,.932.9h.037a.94.94,0,0,0,.9-.906v-6.451A.934.934,0,0,0,1000.467,559.127Zm-17.65-42.264a4.054,4.054,0,0,1,4.028-3.454h0a4.068,4.068,0,0,1,4.031,3.455l.047.647v4.171h-8.15Zm-31.605,39.1q.243.367.519.709l-.52.829Zm.35-5.045a7.29,7.29,0,0,1,.037-.744c0-.015.005-.029.007-.044a7.291,7.291,0,1,1-.044.788Zm2.966,16.907-.51-3.885a.933.933,0,0,0-.312-.579c-.005-.005-.014-.007-.02-.012a.917.917,0,0,0-.588-.219h-.015a.862.862,0,0,0-.234.039c-.016.005-.033,0-.048.008l-.129.042-3.595,1.185,4-6.374c.03.024.062.044.092.068.185.147.374.286.569.418.051.034.1.069.152.1.22.142.445.276.676.4l.081.046c.259.134.523.257.793.366.067.028.137.049.2.075.193.073.387.141.584.2.043.013.084.032.127.044l1.619,2.579Zm14.153-4.063-3.717-1.226c-.011,0-.022,0-.033,0a1.04,1.04,0,0,0-.141-.032c-.027,0-.053.007-.08.006a.9.9,0,0,0-.221.017.84.84,0,0,0-.13.037.888.888,0,0,0-.19.1.91.91,0,0,0-.121.094.817.817,0,0,0-.12.135.9.9,0,0,0-.1.176.733.733,0,0,0-.04.072.893.893,0,0,0-.032.136c0,.013-.011.023-.012.037l-.509,3.877-4.443-7.077c.03,0,.064,0,.089,0,.291,0,.58-.015.867-.042.04,0,.078-.012.117-.016.243-.027.485-.059.723-.1.082-.015.161-.038.242-.055.194-.042.388-.085.578-.14.1-.028.193-.063.29-.1.17-.055.34-.109.506-.174.1-.04.205-.088.308-.133.155-.067.309-.133.46-.208.105-.053.206-.112.309-.169.144-.079.288-.158.427-.245.1-.063.2-.132.3-.2.135-.092.27-.184.4-.283.1-.073.189-.151.283-.228s.171-.133.253-.205Zm13.566-50.012c-.086.106-.178.206-.257.318a5.856,5.856,0,0,0-.312.516c-.052.093-.113.181-.16.276a5.927,5.927,0,0,0-.3.749c-.012.036-.03.071-.042.108a5.766,5.766,0,0,0-.212.927.807.807,0,0,0-.01.129s-.047.691-.048.715v5.122h0v6.459l0,.037c0,.034,0,.069,0,.1v14.144a8.36,8.36,0,0,0-2.329-1.507,4.124,4.124,0,0,0-2.323-.3l-.015,0a4.385,4.385,0,0,0-2.967,2.55.941.941,0,0,0,.281,1.078,59.423,59.423,0,0,1,7.353,7.349v2.68c0,.093,0,.181.006.266l0,2.074v.715H967.435l-1.175-1.874c.083-.112.144-.239.222-.355.134-.2.262-.4.38-.607.053-.094.122-.179.172-.275s.082-.184.126-.275l.015-.033c.12-.253.23-.508.325-.766.007-.02.013-.04.02-.06.092-.256.175-.512.243-.771.006-.022.009-.044.015-.065.067-.263.125-.526.168-.791,0-.016,0-.031.006-.047.043-.275.075-.55.093-.826V551.5q.027-.434.014-.864v-.005q-.015-.44-.07-.873v-.01c0-.02-.008-.039-.01-.059-.037-.268-.082-.533-.142-.795-.02-.09-.047-.177-.07-.266-.049-.191-.1-.382-.16-.57-.042-.132-.094-.259-.143-.388-.054-.144-.106-.288-.167-.429s-.129-.272-.2-.406-.128-.265-.2-.4-.138-.229-.208-.343c-.09-.146-.179-.291-.277-.432-.056-.081-.117-.158-.176-.236-.126-.17-.255-.338-.394-.5-.035-.04-.073-.079-.109-.119-.17-.192-.347-.378-.535-.557l-.036-.032c-.21-.2-.43-.386-.662-.566l0,0-.025-.017a9.01,9.01,0,0,0-5.593-1.9h-.005c-.038,0-.075.005-.113.005-.235,0-.468.013-.7.034-.14.012-.277.033-.416.052s-.258.034-.387.057c-.2.035-.387.079-.579.126-.067.016-.135.032-.2.05q-.335.09-.658.206l-.11.039c-.229.084-.455.177-.676.28l-.087.041q-.33.156-.646.337l-.114.069c-.2.118-.391.24-.579.373-.058.04-.113.084-.169.125-.168.124-.334.25-.494.386-.07.059-.135.122-.2.183-.118.107-.241.208-.355.322-.028.028-.051.059-.079.087-.045.047-.087.1-.131.144a9.432,9.432,0,0,0-.964,1.2V517.492a4.09,4.09,0,0,1,4.079-4.078h27.225C982.419,513.518,982.338,513.637,982.247,513.748Zm-1.352,32.16v3.774c-.037-.041-.077-.078-.114-.119-.826-.921-1.681-1.821-2.568-2.69l-.038-.036c-.922-.9-1.87-1.777-2.846-2.613a2.24,2.24,0,0,1,1.259-.848c1.068-.18,2.472.623,4.075,2.354A.891.891,0,0,0,980.9,545.908Zm18.29-.771V555.2a8.176,8.176,0,0,1-1.012,3.924h-14.4a8.154,8.154,0,0,1-1.006-3.924l-.006-9.82h.009l-.008-.715h0v-15.46a1.353,1.353,0,1,1,2.707,0v14.483a.832.832,0,0,0,.046.27.933.933,0,0,0,.889.657.952.952,0,0,0,.273-.041.925.925,0,0,0,.656-.889v-9.1a1.354,1.354,0,0,1,2.707,0v3.532h0v5.573a.932.932,0,1,0,1.865,0v-5.573a1.354,1.354,0,1,1,2.707,0v2.726h0v2.848a.932.932,0,1,0,1.865,0v-2.847a1.354,1.354,0,1,1,2.709,0Z"/><path class="a" d="M958.881,556.495l.25-.005v-.006c.025,0,.048-.009.073-.01a5.583,5.583,0,0,0,.958-.138l.1-.026a5.635,5.635,0,0,0,.918-.322l.063-.031a5.556,5.556,0,0,0,.855-.5l.032-.023a5.6,5.6,0,0,0,.763-.661l.012-.013a5.581,5.581,0,0,0,.64-.8l0-.005a5.687,5.687,0,0,0,.487-.923v0a5.455,5.455,0,0,0,.309-1.018v0a5.473,5.473,0,0,0,.109-1.086v-.005h0c0-.049-.007-.1-.008-.145a5.58,5.58,0,0,0-5.568-5.432h0a5.582,5.582,0,0,0-5.575,5.576v0A5.582,5.582,0,0,0,958.881,556.495Zm-3.636-6.326.005-.017a3.726,3.726,0,0,1,2.151-2.637c.013-.005.025-.014.038-.02a3.666,3.666,0,0,1,.531-.165c.058-.015.112-.04.171-.052a3.653,3.653,0,0,1,.516-.052c.075-.005.147-.022.222-.022h0c.1,0,.188.02.282.028a3.569,3.569,0,0,1,.455.046c.087.017.168.053.252.076a3.7,3.7,0,0,1,.448.139c.063.027.12.067.181.1a3.879,3.879,0,0,1,.453.246c.079.054.148.123.223.183a3.79,3.79,0,0,1,.563.555c.074.09.158.175.222.271a3.593,3.593,0,0,1,.225.414c.038.074.087.144.119.221a3.754,3.754,0,0,1,.122.394c.03.1.072.2.093.307s.02.2.032.307a3.829,3.829,0,0,1,.041.428,3.721,3.721,0,0,1-3.711,3.712,3.712,3.712,0,0,1-3.636-4.459Z"/></g></svg>