<svg xmlns="http://www.w3.org/2000/svg" width="67.269" height="70.164" viewBox="0 0 67.269 70.164"><defs><style>.a{fill:#f09a98;}.b{fill:none;}.b,.c{stroke:#000;stroke-width:0.5px;}.c{fill:#161611;}</style></defs><g transform="translate(-65.731 -333)"><circle class="a" cx="20.5" cy="20.5" r="20.5" transform="translate(92 333)"/><g transform="translate(-100.455 -1330.889)"><path class="b" d="M225.812,1900.7l5.07,8.076.6-4.575a.683.683,0,0,1,.89-.56l4.384,1.446-4.269-6.8a8.9,8.9,0,0,1-6.119,2.433C226.183,1900.718,226,1900.71,225.812,1900.7Z" transform="translate(-47.261 -178.261)"/><path class="b" d="M219.89,1720.373a59.45,59.45,0,0,0-7.443-7.451.686.686,0,0,1-.208-.789,4.115,4.115,0,0,1,2.795-2.4c1.463-.268,3.095.447,4.856,2.126v-14.706c0-.056.006-.109.009-.164v-11.559a.674.674,0,0,1,.047-.245l0-.474a.653.653,0,0,1,.006-.089,5.64,5.64,0,0,1,1.61-3.219c.107-.105.217-.2.328-.3H194.038a4.333,4.333,0,0,0-4.329,4.328v29.291a8.933,8.933,0,1,1,14.989,9.591l1.342,2.139H219.9v-2.976c0-.108-.009-.218-.009-.328Zm-27.382-27.445h4.163a.683.683,0,1,1,0,1.366h-4.163a.683.683,0,0,1,0-1.366Zm0,4.395h21.481a.683.683,0,1,1,0,1.365H192.508a.683.683,0,0,1,0-1.365Zm0,5.889a.683.683,0,0,1,0-1.365h21.481a.683.683,0,1,1,0,1.365Z" transform="translate(-18.515 -5.334)"/><path class="b" d="M198.981,1829.224a7.571,7.571,0,1,0,7.572,7.571A7.578,7.578,0,0,0,198.981,1829.224Zm0,12.9a5.326,5.326,0,1,1,5.326-5.326A5.332,5.332,0,0,1,198.981,1842.12Z" transform="translate(-19.87 -123.274)"/><path class="b" d="M309.175,1828.055a2.475,2.475,0,0,0-1.541,1.143,57.775,57.775,0,0,1,6.149,6.068v-4.6a.675.675,0,0,1-.3-.184C311.815,1828.681,310.325,1827.844,309.175,1828.055Z" transform="translate(-112.409 -122.318)"/><circle class="b" cx="3.962" cy="3.962" r="3.962" transform="translate(175.149 1709.559)"/><path class="b" d="M177.583,1906.629l4.384-1.445a.657.657,0,0,1,.215-.035.684.684,0,0,1,.676.593l.6,4.577,3.905-6.221-1.754-2.794a8.942,8.942,0,0,1-3.5-1.883Z" transform="translate(-8.861 -179.166)"/><path class="b" d="M189.709,1889.975l1.07-1.7a9.067,9.067,0,0,1-1.07-1.6Z" transform="translate(-18.515 -169.017)"/><path class="b" d="M344.574,1689.871h8.652v-4.421l-.048-.665a4.343,4.343,0,0,0-4.279-3.687,4.327,4.327,0,0,0-4.279,3.667Z" transform="translate(-141.821 -5.334)"/><path class="c" d="M344.514,1836.945l-.008,0v.215h.008Z" transform="translate(-141.766 -129.422)"/><path class="c" d="M284.634,1892.88a9.752,9.752,0,0,1-.929-3.857V1892H269.846l.857,1.365H284.1A.679.679,0,0,1,284.634,1892.88Z" transform="translate(-82.321 -170.887)"/><path class="c" d="M337.851,1706.5l.047-5.369a.675.675,0,0,0-.047.245Z" transform="translate(-136.468 -21.285)"/><path class="c" d="M338.048,1727.962a.684.684,0,0,1-.2-.487v6.436a2.963,2.963,0,0,1,1.364-2.335v-3.412h-.682A.686.686,0,0,1,338.048,1727.962Z" transform="translate(-136.467 -42.26)"/><path class="c" d="M184.375,1717.658a8.913,8.913,0,0,1,0-8.276v-29.291a4.333,4.333,0,0,1,4.329-4.328H216.56a5.648,5.648,0,0,1,3.7-1.365H188.7a5.7,5.7,0,0,0-5.694,5.693v41.7a.683.683,0,0,0,.441.637l.924-1.473Z" transform="translate(-13.182)"/><path class="c" d="M339.519,1676.063a5.64,5.64,0,0,0-1.61,3.219.647.647,0,0,0-.006.089l0,.475-.047,5.369a.68.68,0,0,0,.682.688h10.024a.683.683,0,0,0,.682-.683v-5.128c0-.017,0-.033,0-.05l-.052-.713c0-.016,0-.032-.005-.046a5.717,5.717,0,0,0-5.634-4.884,5.648,5.648,0,0,0-3.7,1.365C339.735,1675.858,339.626,1675.958,339.519,1676.063Zm4.027-.3a4.343,4.343,0,0,1,4.279,3.688l.048.665v4.421h-8.652l.046-5.107a4.327,4.327,0,0,1,4.279-3.667Z" transform="translate(-136.467)"/><path class="c" d="M302.866,1821.374a4.115,4.115,0,0,0-2.795,2.4.686.686,0,0,0,.208.789,59.475,59.475,0,0,1,7.443,7.451v-2.092a57.77,57.77,0,0,0-6.149-6.068,2.475,2.475,0,0,1,1.541-1.143c1.15-.212,2.64.625,4.309,2.422a.673.673,0,0,0,.3.184V1823.5C305.961,1821.821,304.329,1821.106,302.866,1821.374Z" transform="translate(-106.348 -116.98)"/><path class="c" d="M337.816,1748.1c0,.054-.009.108-.009.164v15.928a.683.683,0,1,1,1.365,0v-15.928a1.6,1.6,0,0,1,3.207,0v5.379a2.967,2.967,0,0,1,1.365-2.494v-2.885a2.966,2.966,0,0,0-5.928-.164Z" transform="translate(-136.433 -56.451)"/><path class="c" d="M360.242,1774.657v9.1a.657.657,0,0,0,.035.2.68.68,0,0,0,1.33-.2v-9.1a1.6,1.6,0,0,1,3.207,0v3.531a2.969,2.969,0,0,1,1.365-2.5v-1.036a2.969,2.969,0,0,0-5.937,0Z" transform="translate(-154.296 -77.464)"/><path class="c" d="M382.679,1791.979v5.574a.682.682,0,1,0,1.365,0v-5.574a1.6,1.6,0,1,1,3.207,0v2.726a2.964,2.964,0,0,1,1.364-2.494v-.233a2.968,2.968,0,0,0-5.936,0Z" transform="translate(-172.16 -91.255)"/><path class="c" d="M405.115,1805.362v2.848a.682.682,0,0,0,1.364,0v-2.848a1.6,1.6,0,0,1,3.209,0v4.291a.682.682,0,1,1,1.364,0v-4.291a2.972,2.972,0,0,0-2.969-2.969,2.977,2.977,0,0,0-2.969,2.969Z" transform="translate(-190.024 -101.911)"/><path class="c" d="M423.915,1834.665a.681.681,0,0,0-.681.683v10.066a8.408,8.408,0,0,1-1.106,4.174h1.537a9.759,9.759,0,0,0,.933-4.174v-10.066A.683.683,0,0,0,423.915,1834.665Z" transform="translate(-203.57 -127.606)"/><path class="c" d="M339.172,1835.348a.683.683,0,1,0-1.365,0v10.066c0,.111,0,.22.009.329a9.752,9.752,0,0,0,.929,3.857.643.643,0,0,1,.116-.012h1.417a8.407,8.407,0,0,1-1.1-4.174Z" transform="translate(-136.433 -127.606)"/><path class="c" d="M358.582,1907.893H340.315a.632.632,0,0,0-.116.012.679.679,0,0,0-.538.484.7.7,0,0,0-.027.188v6.452a.681.681,0,1,0,1.363,0v-5.769h16.9v5.769a.683.683,0,0,0,1.365,0v-6.452A.683.683,0,0,0,358.582,1907.893Z" transform="translate(-137.887 -185.911)"/><path class="c" d="M174.6,1906.413l-.6-4.577a.684.684,0,0,0-.676-.593.657.657,0,0,0-.215.035l-4.383,1.445,4.525-7.208a9.085,9.085,0,0,1-.983-1l-1.07,1.7-.924,1.473-3.709,5.91a.683.683,0,0,0,.791,1.012l5.4-1.78.745,5.636a.681.681,0,0,0,.53.578.733.733,0,0,0,.146.016.682.682,0,0,0,.579-.321l4.56-7.266-.805-1.284Z" transform="translate(0 -175.26)"/><path class="c" d="M226.414,1893.131a9.009,9.009,0,0,1-.952,1.05l4.269,6.8-4.384-1.446a.683.683,0,0,0-.89.56l-.6,4.575-5.07-8.076a8.928,8.928,0,0,1-1.8-.3l1.754,2.794.805,1.284L223.7,1907a.679.679,0,0,0,.578.32.741.741,0,0,0,.145-.016.681.681,0,0,0,.531-.578l.744-5.636,5.4,1.779a.77.77,0,0,0,.223.034.682.682,0,0,0,.535-1.1l-3.247-5.173-.857-1.365Z" transform="translate(-40.231 -174.158)"/><path class="c" d="M193.646,1822.524a8.931,8.931,0,0,0-7.917,13.073,8.92,8.92,0,0,0,2.053,2.6,8.9,8.9,0,0,0,5.3,2.183c.186.01.371.018.56.018a8.9,8.9,0,0,0,6.119-2.433,9,9,0,0,0,.952-1.05,8.928,8.928,0,0,0-7.071-14.389Zm0,16.507a7.571,7.571,0,1,1,7.572-7.572A7.579,7.579,0,0,1,193.646,1839.031Z" transform="translate(-14.535 -117.94)"/><path class="c" d="M207.748,1840.234a5.326,5.326,0,1,0,5.326,5.327A5.333,5.333,0,0,0,207.748,1840.234Zm0,9.289a3.962,3.962,0,1,1,3.961-3.962A3.966,3.966,0,0,1,207.748,1849.523Z" transform="translate(-28.637 -132.04)"/><path class="c" d="M200.779,1740.519h4.163a.683.683,0,1,0,0-1.366h-4.163a.683.683,0,0,0,0,1.366Z" transform="translate(-26.786 -51.558)"/><path class="c" d="M200.779,1762.082H222.26a.683.683,0,1,0,0-1.365H200.779a.683.683,0,0,0,0,1.365Z" transform="translate(-26.786 -68.728)"/><path class="c" d="M222.943,1783.6a.683.683,0,0,0-.683-.683H200.779a.683.683,0,0,0,0,1.365H222.26A.683.683,0,0,0,222.943,1783.6Z" transform="translate(-26.786 -86.401)"/></g></g></svg>