<svg xmlns="http://www.w3.org/2000/svg" width="23" height="20" viewBox="0 0 23 20"><defs><style>.a{fill:#222;}</style></defs><g transform="translate(-951.121 -529.494)"><path class="a" d="M972.205,542.334l-2.133-2.081-6.951,6.951v2.089h2.205Z" transform="translate(-0.23 0.201)"/><path class="a" d="M951.321,548.172h9.039v-1.829h-7.2v-1.511c0-1.033,4.04-2.678,7.4-2.678a14.07,14.07,0,0,1,3.278.427l1.483-1.483a16.822,16.822,0,0,0-4.765-.789c-3.133,0-9.236,1.594-9.236,4.519h-.2v0h.2Z" transform="translate(0 0.201)"/><path class="a" d="M960.561,538.733a4.52,4.52,0,1,0,0-9.039l0-.2v.2a4.52,4.52,0,1,0,0,9.039Zm0-7.08a2.56,2.56,0,0,1,0,5.121h0a2.56,2.56,0,1,1,0-5.121Z" transform="translate(-0.08)"/><path class="a" d="M972.714,538.308a.451.451,0,0,0-.628,0l-1.035,1.036,2.133,2.08,1.04-1.04.028.028a.449.449,0,0,0-.029-.6Z" transform="translate(-0.23 0.105)"/></g></svg>