<svg id="idea" xmlns="http://www.w3.org/2000/svg" width="32" height="32" viewBox="0 0 32 32">
  <g id="그룹_1156" data-name="그룹 1156" transform="translate(4.038 4.095)">
    <g id="그룹_1155" data-name="그룹 1155">
      <path id="패스_1550" data-name="패스 1550" d="M75.151,74.949l-2.4-2.4a.85.85,0,0,0-1.2,1.2l2.4,2.4a.85.85,0,0,0,1.2-1.2Z" transform="translate(-71.298 -72.298)" fill="#666"/>
    </g>
  </g>
  <g id="그룹_1158" data-name="그룹 1158" transform="translate(0 15.213)">
    <g id="그룹_1157" data-name="그룹 1157">
      <path id="패스_1551" data-name="패스 1551" d="M4.3,242H.85a.85.85,0,0,0,0,1.7H4.3a.85.85,0,0,0,0-1.7Z" transform="translate(0 -242)" fill="#666"/>
    </g>
  </g>
  <g id="그룹_1160" data-name="그룹 1160" transform="translate(26.846 15.213)">
    <g id="그룹_1159" data-name="그룹 1159">
      <path id="패스_1552" data-name="패스 1552" d="M425.3,242H421.85a.85.85,0,0,0,0,1.7H425.3a.85.85,0,0,0,0-1.7Z" transform="translate(-421 -242)" fill="#666"/>
    </g>
  </g>
  <g id="그룹_1162" data-name="그룹 1162" transform="translate(23.86 4.095)">
    <g id="그룹_1161" data-name="그룹 1161">
      <path id="패스_1553" data-name="패스 1553" d="M372.134,72.547a.849.849,0,0,0-1.2,0l-2.4,2.4a.85.85,0,0,0,1.2,1.2l2.4-2.4A.849.849,0,0,0,372.134,72.547Z" transform="translate(-368.281 -72.298)" fill="#666"/>
    </g>
  </g>
  <g id="그룹_1164" data-name="그룹 1164" transform="translate(15.15)">
    <g id="그룹_1163" data-name="그룹 1163">
      <path id="패스_1554" data-name="패스 1554" d="M241.85,0a.849.849,0,0,0-.85.85V4.361a.85.85,0,0,0,1.7,0V.85A.849.849,0,0,0,241.85,0Z" transform="translate(-241)" fill="#666"/>
    </g>
  </g>
  <g id="그룹_1166" data-name="그룹 1166" transform="translate(8.358 8.638)">
    <g id="그룹_1165" data-name="그룹 1165">
      <path id="패스_1555" data-name="패스 1555" d="M133.472,123.671a7.68,7.68,0,0,0-6.593-1.427,7.533,7.533,0,0,0-5.573,5.488,7.686,7.686,0,0,0,2.056,7.392,4.035,4.035,0,0,1,1.1,2.855v.187a.841.841,0,0,0,.85.85h2.549V133.8a3.391,3.391,0,0,1-2.549-3.279.85.85,0,0,1,1.7,0,1.7,1.7,0,0,0,3.4,0,.85.85,0,0,1,1.7,0,3.391,3.391,0,0,1-2.549,3.279v5.217h2.549a.841.841,0,0,0,.85-.85v-.187a4.083,4.083,0,0,1,1.172-2.906,7.672,7.672,0,0,0-.663-11.4Z" transform="translate(-121.072 -122.024)" fill="#666"/>
    </g>
  </g>
  <g id="그룹_1168" data-name="그룹 1168" transform="translate(12.602 28.602)">
    <g id="그룹_1167" data-name="그룹 1167">
      <path id="패스_1556" data-name="패스 1556" d="M196,452v.85a2.552,2.552,0,0,0,2.549,2.549h1.7a2.552,2.552,0,0,0,2.549-2.549V452Z" transform="translate(-196 -452)" fill="#666"/>
    </g>
  </g>
</svg>
