<svg xmlns="http://www.w3.org/2000/svg" width="23" height="23" viewBox="0 0 23 23">
  <g id="bx-images" transform="translate(-2 -2)">
    <path id="패스_1755" data-name="패스 1755" d="M22.1,2H8.3A2.3,2.3,0,0,0,6,4.3V18.1a2.3,2.3,0,0,0,2.3,2.3H22.1a2.3,2.3,0,0,0,2.3-2.3V4.3A2.3,2.3,0,0,0,22.1,2ZM8.3,18.1V4.3H22.1l0,13.8Z" transform="translate(0.6 0)" fill="#fff"/>
    <path id="패스_1756" data-name="패스 1756" d="M4.3,8H2V21.8a2.3,2.3,0,0,0,2.3,2.3H18.1V21.8H4.3Z" transform="translate(0 0.9)" fill="#fff"/>
    <path id="패스_1757" data-name="패스 1757" d="M12.45,12.6,11.3,11.45,9,14.9H20.5L15.9,8Z" transform="translate(1.05 0.9)" fill="#fff"/>
  </g>
</svg>
