<svg xmlns="http://www.w3.org/2000/svg" width="14" height="12" viewBox="0 0 14 12">
  <g id="그룹_1197" data-name="그룹 1197" transform="translate(-67 -266.999)">
    <g id="icon_photo_s" transform="translate(-300.152 -141.102)">
      <path id="패스_66" data-name="패스 66" d="M375.389,414.207a1.879,1.879,0,1,0,1.879,1.879A1.881,1.881,0,0,0,375.389,414.207Z" transform="translate(-1.169 -1.336)" fill="#008f84"/>
      <path id="패스_65" data-name="패스 65" d="M379.754,409.434h-2.219l-1.281-1.333h-4.2l-1.281,1.333h-2.219a1.372,1.372,0,0,0-1.4,1.334v8a1.373,1.373,0,0,0,1.4,1.333h11.2a1.372,1.372,0,0,0,1.4-1.333v-8A1.371,1.371,0,0,0,379.754,409.434Zm-5.6,8.666a3.335,3.335,0,1,1,3.5-3.333,3.42,3.42,0,0,1-3.5,3.333Z" fill="#008f84"/>
    </g>
  </g>
</svg>
