<svg xmlns="http://www.w3.org/2000/svg" width="54" height="54" viewBox="0 0 54 54"><defs><style>.a{fill:#fff;}</style></defs><g transform="translate(-513 -117)"><g transform="translate(526.935 130.935)"><path class="a" d="M534.226,169.581H529v-1.742h3.484v-3.744l.653-.168a13.013,13.013,0,0,0,3.358-1.391l.582-.342,2.647,2.647,3.7-3.7-2.647-2.648.342-.582a13.014,13.014,0,0,0,1.391-3.358l.168-.653h3.744v-5.226h-3.744l-.168-.653a13.014,13.014,0,0,0-1.391-3.358l-.342-.582,2.647-2.648-3.7-3.7-2.647,2.647-.582-.342a13.014,13.014,0,0,0-3.358-1.391l-.653-.168v-3.744h-2.34V133h4.082v4.154a14.744,14.744,0,0,1,2.563,1.059l2.935-2.935,6.159,6.159-2.935,2.936a14.72,14.72,0,0,1,1.059,2.563h4.154v8.71h-4.154a14.721,14.721,0,0,1-1.059,2.563l2.935,2.936-6.159,6.159-2.935-2.935a14.745,14.745,0,0,1-2.563,1.059Z" transform="translate(-529 -133)"/></g><g transform="translate(527.806 139.645)"><path class="a" d="M530,162.161v-1.742a7.839,7.839,0,1,0,0-15.677V143a9.581,9.581,0,0,1,0,19.161Z" transform="translate(-530 -143)"/></g><g transform="translate(520.839 127.452)"><path class="a" d="M568.161,172.548H522v-1.742h44.419V130.742h-2.613V129h4.355Z" transform="translate(-522 -129)"/></g><g transform="translate(528.231 127.615)"><rect class="a" width="26" height="1" transform="translate(-0.231 0.385)"/></g><g transform="translate(527.806 152.999)"><path class="a" d="M530,160.656v-1.742a4.349,4.349,0,0,0,2.177-.582l.873,1.508A6.094,6.094,0,0,1,530,160.656Z" transform="translate(-530 -158.332)"/></g><g transform="translate(527.806 143.129)"><path class="a" d="M534.661,157.026,533.33,155.9a4.355,4.355,0,0,0-3.33-7.161V147a6.1,6.1,0,0,1,4.661,10.026Z" transform="translate(-530 -147)"/></g><g transform="translate(553.065 117)"><path class="a" d="M566.839,153.581h-5.226A2.616,2.616,0,0,1,559,150.968V126.413l3.223-8.056a2.157,2.157,0,0,1,4.006,0l3.223,8.056v24.554A2.616,2.616,0,0,1,566.839,153.581Zm-6.1-26.833v24.22a.871.871,0,0,0,.871.871h5.226a.871.871,0,0,0,.871-.871v-24.22l-3.1-7.745a.433.433,0,0,0-.77,0h0Z" transform="translate(-559 -117)"/></g><g transform="translate(554.077 125.769)"><rect class="a" width="8" height="2" transform="translate(-0.077 0.231)"/></g><g transform="translate(557.769 126.692)"><rect class="a" width="2" height="20" transform="translate(0.231 0.308)"/></g><g transform="translate(554.077 146.077)"><rect class="a" width="8" height="2" transform="translate(-0.077 -0.077)"/></g><g transform="translate(546.097 155.323)"><path class="a" d="M568.419,173.194H551V161h17.419Zm-15.677-1.742h13.936v-8.71H552.742Z" transform="translate(-551 -161)"/></g><g transform="translate(553.154 159)"><rect class="a" width="7" height="2" transform="translate(-0.154)"/></g><g transform="translate(549.462 159)"><rect class="a" width="2" height="2" transform="translate(-0.462)"/></g><g transform="translate(549.462 162.692)"><rect class="a" width="8" height="1" transform="translate(-0.462 0.308)"/></g><g transform="translate(558.692 162.692)"><rect class="a" width="1" height="1" transform="translate(0.308 0.308)"/></g><g transform="translate(513 120.484)"><path class="a" d="M520.839,171.516A7.847,7.847,0,0,1,513,163.677V128.839a7.839,7.839,0,1,1,15.677,0v34.839A7.847,7.847,0,0,1,520.839,171.516Zm0-48.774a6.1,6.1,0,0,0-6.1,6.1v34.839a6.1,6.1,0,1,0,12.193,0V128.839A6.1,6.1,0,0,0,520.839,122.742Z" transform="translate(-513 -121)"/></g><g transform="translate(516.484 158.806)"><path class="a" d="M521.355,173.71a4.355,4.355,0,1,1,4.355-4.355h-1.742a2.613,2.613,0,1,0-2.613,2.613Z" transform="translate(-517 -165)"/></g><g transform="translate(513 155.323)"><path class="a" d="M528.677,168.839h-1.742a6.1,6.1,0,1,0-12.193,0H513a7.839,7.839,0,1,1,15.677,0Z" transform="translate(-513 -161)"/></g></g></svg>