<svg xmlns="http://www.w3.org/2000/svg" width="13" height="12" viewBox="0 0 13 12"><defs><style>.a{fill:#fff;}</style></defs><path class="a" d="M322.251,381.589c0,3.3,3.646,6.384,8.649,5.158a15.525,15.525,0,0,0,4.321,1.383,8.614,8.614,0,0,1-1.08-3.473,4.83,4.83,0,0,0,1.109-3.068c0-3.153-3.067-5.458-6.5-5.458C325.339,376.131,322.251,378.419,322.251,381.589Zm8.4,0a.813.813,0,1,1,.813.818A.815.815,0,0,1,330.647,381.586Zm-2.708,0a.813.813,0,1,1,.813.818A.815.815,0,0,1,327.939,381.586Zm-2.708,0a.813.813,0,1,1,.813.818A.815.815,0,0,1,325.23,381.586Z" transform="translate(-322.251 -376.131)"/></svg>