<svg xmlns="http://www.w3.org/2000/svg" width="31.311" height="41.325" viewBox="0 0 31.311 41.325">
  <g id="아이콘" transform="translate(-1108.802 -446.963)">
    <g id="그룹_329" data-name="그룹 329" transform="translate(1109.052 447.213)">
      <path id="패스_661" data-name="패스 661" d="M536.175,696.875c-3.683,4.6-9.677,5.168-12.745,5.229v-.179h-3.489v.173c-3.14-.091-8.9-.759-12.473-5.222a108.144,108.144,0,0,0-.59,13.535c.2,1.3,1.125,6.02,14.943,6.571v-.289h0c0,.1,0,.192,0,.289,13.819-.551,14.746-5.272,14.943-6.571A108.108,108.108,0,0,0,536.175,696.875Z" transform="translate(-506.417 -676.662)" fill="#4dd5c8"/>
      <path id="패스_662" data-name="패스 662" d="M545.119,634.969a4.567,4.567,0,0,0,1.2.508,5.657,5.657,0,0,1,1.654,1.436,3.811,3.811,0,0,1,.443,1.595,12.607,12.607,0,0,1,.13,3.086,5.333,5.333,0,0,0-2.34-.754,15.939,15.939,0,0,0-2.479,0,15.533,15.533,0,0,0-4.462.672,11.034,11.034,0,0,1,1.347-5.043,2.4,2.4,0,0,1,.863-.854c.5-.258,1.15-.242,1.552-.638a2.242,2.242,0,0,1,.41-.413,1.059,1.059,0,0,1,.626-.067,1.535,1.535,0,0,1,.8.231C544.953,634.8,545.029,634.892,545.119,634.969Z" transform="translate(-528.645 -633.908)" fill="#fedd7b"/>
      <g id="그룹_328" data-name="그룹 328" transform="translate(0)">
        <path id="패스_663" data-name="패스 663" d="M542.738,654.806a10.08,10.08,0,0,0-4.419-5.288,12.015,12.015,0,0,0-2.741-1.243.634.634,0,0,0-.32-.136l-.276-.033a9.214,9.214,0,0,0-2.031-.248,5.406,5.406,0,0,0,5.167-6.7.633.633,0,0,0,.343-1.1,1.41,1.41,0,0,1-.253-.883c0-3.177-1.312-5.185-3.7-5.692l-.3-.51a.635.635,0,0,0-.547-.313h-1.615a.635.635,0,0,0-.549.315l-.285.486c-2.736.428-3.718,3.3-3.718,5.714a1.361,1.361,0,0,1-.3.934.635.635,0,0,0-.027.815.627.627,0,0,0,.413.232,5.416,5.416,0,0,0,5.189,6.7h0a9.289,9.289,0,0,0-2,.24l-.331.04a.631.631,0,0,0-.336.153,12.018,12.018,0,0,0-2.692,1.227,10.09,10.09,0,0,0-4.436,5.323.636.636,0,0,0,1.191.445,8.878,8.878,0,0,1,3.906-4.682,10.874,10.874,0,0,1,2.243-1.047l1.578,2.088-1.135,4.689a.636.636,0,0,0,.468.767.648.648,0,0,0,.15.018.636.636,0,0,0,.617-.486l.865-3.571.89,3.575a.635.635,0,0,0,.616.482.651.651,0,0,0,.154-.019.636.636,0,0,0,.463-.77l-1.168-4.689,1.582-2.093a10.918,10.918,0,0,1,2.267,1.056,8.863,8.863,0,0,1,3.89,4.649.636.636,0,0,0,1.19-.448Zm-13.978-15.633c0-.647.122-3.647,2.215-4.344v.941a.636.636,0,1,0,1.271,0V634.2l.158-.27h.888l.176.3v1.543a.636.636,0,1,0,1.271,0v-.9c1.457.541,2.2,1.983,2.2,4.3q0,.118.008.229a15.625,15.625,0,0,0-8.191,0C528.758,639.329,528.761,639.253,528.761,639.173Zm.375,5.126a4.119,4.119,0,0,1-.023-3.666,14.107,14.107,0,0,1,7.469,0,4.151,4.151,0,0,1-7.446,3.67Zm3.711,6.507-1.162-1.538,1.162-.14,1.162.14Z" transform="translate(-517.454 -632.658)" fill="#333" stroke="#323232" stroke-width="0.5"/>
        <g id="그룹_324" data-name="그룹 324" transform="translate(29.538 18.209)">
          <path id="패스_664" data-name="패스 664" d="M600.011,691.78a.634.634,0,0,1-.636-.634v0a.636.636,0,1,1,.636.638Z" transform="translate(-599.375 -690.506)" fill="#333"/>
        </g>
        <g id="그룹_325" data-name="그룹 325" transform="translate(0 18.209)">
          <path id="패스_665" data-name="패스 665" d="M506.17,691.78a.634.634,0,0,1-.636-.634v0a.636.636,0,1,1,.636.638Z" transform="translate(-505.534 -690.506)" fill="#333"/>
        </g>
        <g id="그룹_326" data-name="그룹 326" transform="translate(0 18.209)">
          <path id="패스_666" data-name="패스 666" d="M506.17,691.78a.634.634,0,0,1-.636-.634v0a.636.636,0,1,1,.636.638Z" transform="translate(-505.534 -690.506)" fill="#333"/>
        </g>
        <g id="그룹_327" data-name="그룹 327" transform="translate(29.538 18.209)">
          <path id="패스_667" data-name="패스 667" d="M600.011,691.78a.634.634,0,0,1-.636-.634v0a.636.636,0,1,1,.636.638Z" transform="translate(-599.375 -690.506)" fill="#333"/>
        </g>
        <path id="패스_668" data-name="패스 668" d="M536.343,686.3v0a.634.634,0,0,0-.046-.219,2.6,2.6,0,0,0-2.577-2.625,3.02,3.02,0,0,0-1.134,5.819.636.636,0,1,0,.478-1.178,1.749,1.749,0,0,1,.656-3.37c1.2,0,1.325,1.223,1.325,1.749a.619.619,0,0,0,.007.065c-.1.7-.736,2.871-4.564,4.338a25.862,25.862,0,0,1-8.545,1.374c-.659.017-1.371.017-2.035,0a25.838,25.838,0,0,1-8.514-1.373c-3.826-1.466-4.462-3.629-4.568-4.336a.614.614,0,0,0,.007-.068c0-.526.129-1.749,1.325-1.749a1.749,1.749,0,0,1,.656,3.37.636.636,0,1,0,.478,1.178,3.02,3.02,0,0,0-1.134-5.819,2.593,2.593,0,0,0-2.576,2.618.63.63,0,0,0-.048.24v14.733A5.191,5.191,0,0,0,507.2,704.5c2.465,2.514,7.088,3.789,13.742,3.789s11.273-1.274,13.737-3.788a5.2,5.2,0,0,0,1.665-3.443v-14.75h0V686.3Zm-2.573,17.311c-1.524,1.554-4.986,3.407-12.829,3.407-13.961,0-14.136-5.894-14.136-5.96V689.33a9.762,9.762,0,0,0,4.134,2.739,27.069,27.069,0,0,0,8.939,1.458c.68.016,1.419.016,2.092,0a27.1,27.1,0,0,0,8.972-1.458,9.755,9.755,0,0,0,4.13-2.738v11.744A4.033,4.033,0,0,1,533.769,703.615Z" transform="translate(-505.533 -667.468)" fill="#333" stroke="#333" stroke-width="0.5"/>
      </g>
    </g>
  </g>
</svg>
