<svg xmlns="http://www.w3.org/2000/svg" width="13" height="18" viewBox="0 0 13 18"><defs><style>.a{fill:#fff;}</style></defs><path class="a" d="M544.857,241.36h-.011a6.538,6.538,0,0,0-4.592,1.873,6.3,6.3,0,0,0-1.1,7.586l2.9,4.346.013.02,2.786,4.175,2.771-4.153.017-.025,2.911-4.363a6.259,6.259,0,0,0,.8-3.074A6.444,6.444,0,0,0,544.857,241.36Zm-.005,10.353a3.979,3.979,0,1,1,4.05-3.979A4.015,4.015,0,0,1,544.851,251.713Z" transform="translate(-538.351 -241.36)"/><circle class="a" cx="2.388" cy="2.388" r="2.388" transform="translate(4.112 4.013)"/></svg>