<svg xmlns="http://www.w3.org/2000/svg" width="11.84" height="15.801" viewBox="0 0 11.84 15.801"><defs><style>.a{fill:#777;stroke:#777;stroke-width:0.8px;}</style></defs><g transform="translate(825.586 -217.346) rotate(90)"><path class="a" d="M232.411,819.352H218.894l4.845-4.619a.31.31,0,0,0,0-.453.348.348,0,0,0-.475,0l-5.418,5.166-.022.023-.009.011-.011.014-.009.014-.008.013-.007.014-.007.014-.005.014-.006.015,0,.014,0,.016c0,.006,0,.011,0,.016s0,.01,0,.015a.3.3,0,0,0,0,.03h0s0,.009,0,.013a.311.311,0,0,0,.1.241l5.418,5.166a.348.348,0,0,0,.475,0,.31.31,0,0,0,0-.453l-4.875-4.648h13.547a.32.32,0,1,0,0-.64Z" transform="translate(0)"/></g></svg>