<svg xmlns="http://www.w3.org/2000/svg" width="40" height="40" viewBox="0 0 40 40">
  <g id="icon_support_no" transform="translate(-172 -254)">
    <g id="타원_133" data-name="타원 133" transform="translate(172 254)" fill="#fff" stroke="#26a69a" stroke-width="2">
      <circle cx="20" cy="20" r="20" stroke="none"/>
      <circle cx="20" cy="20" r="19" fill="none"/>
    </g>
    <g id="그룹_338" data-name="그룹 338" transform="translate(-917.828 179.59)">
      <path id="패스_675" data-name="패스 675" d="M1121.826,98.988a.413.413,0,0,1-.224.412c-.13.067-3.325,1.625-11.774,1.625s-11.643-1.558-11.776-1.625a.409.409,0,0,1,.088-.763c.073-.02,1.884-.526,1.884-3.119,0-7.8,4.15-10.11,7.788-10.636V84.82a.411.411,0,0,1,.412-.41h3.21a.411.411,0,0,1,.412.41v.065c3.636.526,7.786,2.834,7.786,10.634,0,2.619,1.865,3.114,1.884,3.119A.41.41,0,0,1,1121.826,98.988Z" transform="translate(0 0)" fill="#fedd7b"/>
      <g id="그룹_337" data-name="그룹 337" transform="translate(1097.828 84.41)">
        <path id="패스_677" data-name="패스 677" d="M1121.516,98.637c-.018,0-1.884-.5-1.884-3.119,0-7.8-4.15-10.108-7.786-10.634V84.82a.411.411,0,0,0-.412-.41h-3.21a.411.411,0,0,0-.412.41v.063c-3.638.526-7.788,2.837-7.788,10.636,0,2.593-1.81,3.1-1.884,3.119a.409.409,0,0,0-.088.763c.133.067,3.327,1.625,11.776,1.625s11.643-1.558,11.774-1.625a.409.409,0,0,0-.086-.763Zm-11.688,1.568a35.705,35.705,0,0,1-10.577-1.23,3.975,3.975,0,0,0,1.6-3.457c0-5.8,2.342-9.1,6.965-9.808v2.934a.412.412,0,0,0,.823,0V85.23h2.387v3.415a.412.412,0,0,0,.824,0v-2.93c4.621.71,6.963,4.005,6.963,9.8a3.97,3.97,0,0,0,1.6,3.457A35.73,35.73,0,0,1,1109.828,100.206Z" transform="translate(-1097.828 -84.41)" fill="#333" stroke="#333" stroke-width="0.5"/>
      </g>
    </g>
  </g>
</svg>
