<svg xmlns="http://www.w3.org/2000/svg" width="27" height="31" viewBox="0 0 27 31"><path d="M16.848,9.75a7.75,7.75,0,1,1-7.8,7.75,7.775,7.775,0,0,1,7.8-7.75m0,3.1a4.65,4.65,0,1,0,4.679,4.65,4.665,4.665,0,0,0-4.679-4.65m0-10.85,3.728,5.3a11,11,0,0,0-7.456,0L16.848,2M3.34,9.75l6.489-.543A11.179,11.179,0,0,0,7.4,12.075,10.292,10.292,0,0,0,6.1,15.624L3.34,9.75m.031,15.5,2.745-5.844a10.81,10.81,0,0,0,1.295,3.519,11.07,11.07,0,0,0,2.418,2.9L3.371,25.25M30.34,9.75l-2.761,5.875a10.842,10.842,0,0,0-1.295-3.549,11.2,11.2,0,0,0-2.418-2.883l6.473.558m-.016,15.5-6.458.558a11.465,11.465,0,0,0,2.4-2.883,10.843,10.843,0,0,0,1.295-3.55l2.761,5.875M16.848,33l-3.759-5.332a10.529,10.529,0,0,0,7.456,0Z" transform="translate(-3.34 -2)"/></svg>