<svg xmlns="http://www.w3.org/2000/svg" width="40" height="36" viewBox="0 0 40 36">
  <g id="그룹_1211" data-name="그룹 1211" transform="translate(-2 -134.124)">
    <path id="패스_2084" data-name="패스 2084" d="M35.921,160.333a5.047,5.047,0,0,0,.66-1.026,2.984,2.984,0,0,0,.255-1.2,3.085,3.085,0,0,0-.9-2.15,3.775,3.775,0,0,0,1.391-1.047,3.013,3.013,0,0,0-.267-4.15,3.832,3.832,0,0,0,.825-.547,3.036,3.036,0,0,0,.158-4.575,3.864,3.864,0,0,0,.839-.554,3.1,3.1,0,0,0,1.113-2.579,3.707,3.707,0,0,0-3.9-3.124H26.677c1.239-3.414,1.133-6.978-.312-11.114a3.045,3.045,0,0,0-1.264-1.551,3.826,3.826,0,0,0-2.069-.591,3.715,3.715,0,0,0-2.53.948,2.8,2.8,0,0,0-.953,2.252c.278,4.67-2.191,6.277-5.609,8.5a40.622,40.622,0,0,0-3.564,2.516v-1.018a.839.839,0,0,0-.89-.777H.89a.839.839,0,0,0-.89.777v22.025a.839.839,0,0,0,.89.777h8.6a.839.839,0,0,0,.89-.777v-1.954A8.107,8.107,0,0,1,14.5,160.63a4.967,4.967,0,0,0,2.734.817h15.7a4.672,4.672,0,0,0,1.732-.165,2.62,2.62,0,0,0,.852-.507A3.821,3.821,0,0,0,35.921,160.333ZM15.585,159.4a10.381,10.381,0,0,0-5.209-1.565v-13.18a.838.838,0,0,0-.779-.8.855.855,0,0,0-1,.771v15.948H1.781V140.1H8.6v5.252a.838.838,0,0,0,.779.8.855.855,0,0,0,1-.771v-2.835A29.8,29.8,0,0,1,15,139.07c3.42-2.226,6.65-4.328,6.323-9.827a1.4,1.4,0,0,1,.617-1.225,1.8,1.8,0,0,1,.859-.328,1.907,1.907,0,0,1,1.244.277,1.479,1.479,0,0,1,.614.753c1.47,4.206,1.45,7.745-.065,11.137a.7.7,0,0,0-.054.448.872.872,0,0,0,.875.628H36.124a2.005,2.005,0,0,1,2.082,1.585,1.654,1.654,0,0,1-.586,1.466,2.2,2.2,0,0,1-1.45.524H32.546a.885.885,0,0,0-.917.68.823.823,0,0,0,.884.874h2.608a2.036,2.036,0,0,1,2.1,1.678,1.708,1.708,0,0,1-.841,1.558,2.31,2.31,0,0,1-1.244.34H32.546a.885.885,0,0,0-.917.68.823.823,0,0,0,.884.874h1.626a2.028,2.028,0,0,1,2.105,1.707,1.662,1.662,0,0,1-.6,1.344,2.2,2.2,0,0,1-1.449.524H31.569a.885.885,0,0,0-.917.68.823.823,0,0,0,.884.874h1.411a2.029,2.029,0,0,1,2.106,1.7,1.664,1.664,0,0,1-.6,1.347,2.331,2.331,0,0,1-1.36.522l-15.859,0a3,3,0,0,1-1.651-.5Z" transform="translate(2 8)" fill="#fff"/>
  </g>
</svg>
