<svg id="그룹_1177" data-name="그룹 1177" xmlns="http://www.w3.org/2000/svg" width="18" height="18" viewBox="0 0 18 18">
  <path id="패스_1557" data-name="패스 1557" d="M55.865,96.365V90.849a5.78,5.78,0,0,0-11.549,0v5.515a1.616,1.616,0,0,0-1.65,1.576v1.182a.4.4,0,0,0,.412.394H57.1a.4.4,0,0,0,.412-.394V97.94A1.616,1.616,0,0,0,55.865,96.365ZM50.09,87.7a3.232,3.232,0,0,0-3.3,3.152.413.413,0,0,1-.825,0,4.04,4.04,0,0,1,4.125-3.94.394.394,0,1,1,0,.788Z" transform="translate(-41.09 -81.516)" fill="#757575"/>
  <path id="패스_1558" data-name="패스 1558" d="M224.394,2.364a.394.394,0,0,0,.394-.394V.394a.394.394,0,0,0-.788,0V1.97A.394.394,0,0,0,224.394,2.364Z" transform="translate(-215.394)" fill="#757575"/>
  <path id="패스_1559" data-name="패스 1559" d="M331.041,23.3a.393.393,0,0,0,.279-.115l1.183-1.182a.394.394,0,0,0-.557-.557l-1.183,1.182a.394.394,0,0,0,.279.672Z" transform="translate(-317.905 -20.546)" fill="#757575"/>
  <path id="패스_1560" data-name="패스 1560" d="M86.63,23.188a.394.394,0,0,0,.557-.557l-1.181-1.182a.394.394,0,0,0-.557.557Z" transform="translate(-82.045 -20.546)" fill="#757575"/>
  <path id="패스_1561" data-name="패스 1561" d="M407.655,117.56a.4.4,0,0,0-.529-.176l-1.576.788a.394.394,0,0,0,.352.7l1.576-.788A.394.394,0,0,0,407.655,117.56Z" transform="translate(-389.696 -112.826)" fill="#757575"/>
  <path id="패스_1562" data-name="패스 1562" d="M1.969,118.927a.394.394,0,0,0,.176-.746L.57,117.393a.394.394,0,0,0-.352.7l1.576.788A.4.4,0,0,0,1.969,118.927Z" transform="translate(0 -112.835)" fill="#757575"/>
</svg>
