<svg xmlns="http://www.w3.org/2000/svg" width="24" height="22" viewBox="0 0 24 22"><defs><style>.a{fill:#381e1e;}</style></defs><g transform="translate(0 0)"><path class="a" d="M72.04,669.759c-6.628,0-12,4.21-12,9.407,0,3.342,2.225,6.272,5.567,7.944L64.478,691.3a.348.348,0,0,0,.086.362.337.337,0,0,0,.454.015l4.862-3.259a15.391,15.391,0,0,0,2.16.156c6.626,0,12-4.207,12-9.41S78.666,669.759,72.04,669.759ZM65.63,682.143a.7.7,0,0,1-.19.516.662.662,0,0,1-.5.2.7.7,0,0,1-.442-.143.622.622,0,0,1-.232-.386.805.805,0,0,1-.012-.184l0-4.467H62.945a.887.887,0,0,1-.464-.122.512.512,0,0,1-.238-.35c-.008-.039-.014-.086-.019-.132a.522.522,0,0,1,.205-.441.818.818,0,0,1,.512-.161h4a.86.86,0,0,1,.461.122.525.525,0,0,1,.242.351.571.571,0,0,1,.011.129.535.535,0,0,1-.2.446.811.811,0,0,1-.511.158h-1.3Zm5.709.531a.624.624,0,0,1-.461.182.59.59,0,0,1-.619-.39l-.358-1.044H67.677l-.358,1.044a.583.583,0,0,1-.622.39.645.645,0,0,1-.407-.126.58.58,0,0,1-.212-.353.829.829,0,0,1-.012-.146.861.861,0,0,1,.038-.253c.028-.1.06-.2.1-.294l1.784-4.886a.623.623,0,0,1,.252-.336.817.817,0,0,1,.425-.1h.331a.874.874,0,0,1,.453.109.719.719,0,0,1,.286.416l1.668,4.8a2.86,2.86,0,0,1,.111.382,1.444,1.444,0,0,1,.025.165A.6.6,0,0,1,71.338,682.674Zm4.613-.088a.81.81,0,0,1-.513.158H72.558a.919.919,0,0,1-.52-.131.629.629,0,0,1-.26-.427,1.739,1.739,0,0,1-.033-.279l0-4.835a.7.7,0,0,1,.19-.515.652.652,0,0,1,.5-.2.69.69,0,0,1,.442.143.648.648,0,0,1,.229.39.625.625,0,0,1,.014.179l0,4.468h2.309a.8.8,0,0,1,.466.125.52.52,0,0,1,.237.347.808.808,0,0,1,.019.13A.518.518,0,0,1,75.951,682.586Zm5.4-.463v.047a.622.622,0,0,1-.208.526.808.808,0,0,1-.5.16.706.706,0,0,1-.346-.074.865.865,0,0,1-.27-.3l-1.594-2.542-.757.785.006,1.419a.726.726,0,0,1-.19.516.671.671,0,0,1-.508.2.709.709,0,0,1-.442-.143.628.628,0,0,1-.232-.386.786.786,0,0,1-.011-.184l0-5.071a.717.717,0,0,1,.188-.515.663.663,0,0,1,.506-.2.684.684,0,0,1,.44.143.645.645,0,0,1,.234.39.773.773,0,0,1,.014.179l0,2.077,2.169-2.478a1.756,1.756,0,0,1,.263-.236.539.539,0,0,1,.29-.076.714.714,0,0,1,.414.13.508.508,0,0,1,.227.333c0,.006,0,.025.01.054a.208.208,0,0,0,.005.059.551.551,0,0,1-.066.258,1.134,1.134,0,0,1-.165.229l-1.418,1.54,1.68,2.639.05.081a1.51,1.51,0,0,1,.2.4A.194.194,0,0,0,81.351,682.122Z" transform="translate(-60.042 -669.759)"/><path class="a" d="M82.118,691.751l-.793,2.473H82.9l-.769-2.473Z" transform="translate(-73.364 -683.58)"/></g></svg>