<svg xmlns="http://www.w3.org/2000/svg" width="74" height="67" viewBox="0 0 74 67"><defs><style>.a{fill:#ffcf67;}</style></defs><g transform="translate(-63 -492)"><circle class="a" cx="20.5" cy="20.5" r="20.5" transform="translate(96 492)"/><path d="M95,551V501H33v50H66.819L65.2,557.123A2.994,2.994,0,0,0,63,560v3H95v-3a2.994,2.994,0,0,0-2.2-2.877L91.181,551Zm-60-2V503H93v46H90.652l-5.824-22H89V507H39v38H65V527h8.172l-5.824,22Zm52.868,5.066,1.862-.733L90.7,557H80.422l5.52-2.175-.732-1.861L74.964,557H67.3l.541-2.044,20.212-7.962,1.163,4.392-2.079.819Zm-17.959-6.925,2.519-.992-.733-1.861-1.151.454,1.433-5.416,12.719-5.01,1.163,4.392-12.406,4.887.732,1.861,12.189-4.8,1.163,4.392-19.061,7.509ZM63,519v6H57v6a6.006,6.006,0,0,1-6-6H49a8.009,8.009,0,0,0,8,8v3h2v-9h4v16H41V527h6v-2H41v-9h8a8.008,8.008,0,0,0,7.931-7H63v5h2v-5H87v16H84.3l-.529-2H74.23l-.529,2H65v-6Zm-22-5v-5H54.91A6.006,6.006,0,0,1,49,514Zm34.77,11h6.46l.273,1.03-7.822,3.082Zm-1.724,6.512,8.973-3.535,1.162,4.392-11.568,4.557ZM93,561H65v-1a1,1,0,0,1,1-1H92a1,1,0,0,1,1,1Z" transform="translate(30 -4)"/></g></svg>