<svg xmlns="http://www.w3.org/2000/svg" width="69.685" height="40.102" viewBox="0 0 69.685 40.102"><defs><style>.a{fill:#008f84;stroke:#008f84;stroke-width:0.5px;}</style></defs><g transform="translate(-914.69 -1697.524)"><path class="a" d="M983.329,1697.774H915.736a.8.8,0,1,0,0,1.59H919.7a2.738,2.738,0,0,0-.273,1.19V1734.6a2.781,2.781,0,0,0,2.78,2.78h54.656a2.783,2.783,0,0,0,2.78-2.78v-34.042a2.754,2.754,0,0,0-.272-1.19h3.96a.8.8,0,1,0,0-1.59Zm-5.28,36.822a1.192,1.192,0,0,1-1.189,1.19H922.205a1.192,1.192,0,0,1-1.19-1.19v-34.042a1.191,1.191,0,0,1,1.19-1.19h54.656a1.191,1.191,0,0,1,1.189,1.19Z"/><path class="a" d="M970.919,1735.423a24.6,24.6,0,0,0-2.638-.31.946.946,0,0,1-.717-.389,2.751,2.751,0,0,1-.256-1.728c.016-.13.034-.24.049-.312a.795.795,0,0,0-1.551-.351,5.057,5.057,0,0,0,.164,2.768c-.208.123-.428.248-.653.372a11.1,11.1,0,0,1-3.371,1.425h0a12.684,12.684,0,0,1-3.433-1.42l-.284-.148c-.132-.069-.249-.132-.366-.191a5.029,5.029,0,0,0,.179-2.807.009.009,0,0,0,0,0c1.249.957,2.537,1.753,3.374,1.753,1.749,0,5.455-3.005,6.548-3.925a.8.8,0,0,0,.266-.444l1.31-6.144c0-.007,0-.014,0-.02s.008-.031.01-.048l.064-.3.021-.1a.015.015,0,0,1,0-.006l0-.014a8.331,8.331,0,0,0,.14-1.525c0-.149,0-.3-.012-.445s-.022-.314-.038-.471a8.378,8.378,0,0,0-2.743-5.321,0,0,0,0,0,0,0,8.164,8.164,0,0,0-1.137-.856,8.369,8.369,0,0,0-12.242,4.076c0,.009-.007.02-.012.03-.065.17-.124.342-.178.516a8.28,8.28,0,0,0-.325,1.594h0v.009a8.315,8.315,0,0,0,.348,3.406l1.013,4.883a.773.773,0,0,0,.224.407c.488.476,1.479,1.419,2.594,2.335a.771.771,0,0,0-.179.019.8.8,0,0,0-.6.949c.016.072.034.181.051.312a2.77,2.77,0,0,1-.257,1.728.954.954,0,0,1-.717.389,24.54,24.54,0,0,0-2.638.31c-2.6.446-6.237,1.514-7.144,4.027a.8.8,0,0,0,.478,1.018.826.826,0,0,0,.271.047.8.8,0,0,0,.748-.526c.858-2.38,6.353-3.181,8.4-3.29l.053,0a2.809,2.809,0,0,0,1.039-.327c.2.1.476.244.715.37,1.751.919,3.408,1.747,4.45,1.75h.007c1.345,0,4.047-1.542,5.07-2.157a2.786,2.786,0,0,0,1.1.364l.054,0c1.908.1,7.544.917,8.4,3.29a.8.8,0,0,0,.747.526.826.826,0,0,0,.271-.047.8.8,0,0,0,.479-1.018C977.156,1736.937,973.518,1735.87,970.919,1735.423Zm-4.474-18.413a6.776,6.776,0,0,1,1.706,5.291,4.743,4.743,0,0,1-2.292-2.108,2.7,2.7,0,0,1-.266-1.159A3.052,3.052,0,0,1,966.445,1717.01Zm-11.354,2.1a.1.1,0,0,0,.009-.027,6.823,6.823,0,0,1,6.314-4.307,6.74,6.74,0,0,1,3.5.971,4.025,4.025,0,0,1,.245.324,4.53,4.53,0,0,0-1.153,2.964,4.234,4.234,0,0,0,.193,1.257,8.66,8.66,0,0,1-9.463.121A6.822,6.822,0,0,1,955.091,1719.109Zm.869,9.3-1.264-6.1-.015-.066c.046.024.094.049.141.071a10.169,10.169,0,0,0,4.563,1.035,10.441,10.441,0,0,0,3.746-.671,8.142,8.142,0,0,0,1.807-.958,6.049,6.049,0,0,0,1.052,1.084,7.92,7.92,0,0,0,1.85,1.1l-1.11,5.209c-2,1.657-4.537,3.376-5.317,3.376C960.676,1732.491,958.041,1730.414,955.96,1728.411Z" transform="translate(-23.488 -11.753)"/><path class="a" d="M977.034,1839.026H946.254a.795.795,0,1,0,0,1.59h30.779a.795.795,0,1,0,0-1.59Z" transform="translate(-23.276 -107.728)"/><path class="a" d="M1071.594,1738.126h9.767a.795.795,0,0,0,0-1.59h-9.767a.795.795,0,1,0,0,1.59Z" transform="translate(-118.868 -29.562)"/><path class="a" d="M1093.219,1759.625h-21.625a.794.794,0,1,0,0,1.589h21.625a.794.794,0,1,0,0-1.589Z" transform="translate(-118.868 -47.172)"/><path class="a" d="M1093.219,1782.086h-21.625a.8.8,0,0,0,0,1.591h21.625a.8.8,0,0,0,0-1.591Z" transform="translate(-118.868 -64.302)"/><path class="a" d="M1093.219,1803.3h-21.625a.795.795,0,1,0,0,1.59h21.625a.795.795,0,0,0,0-1.59Z" transform="translate(-118.868 -80.484)"/></g></svg>