<svg xmlns="http://www.w3.org/2000/svg" xmlns:xlink="http://www.w3.org/1999/xlink" width="27.633" height="20.012" viewBox="0 0 27.633 20.012"><defs><style>.a{fill:url(#a);}.b{fill:url(#b);}</style><linearGradient id="a" x1="0.197" y1="0.358" x2="0.918" y2="0.868" gradientUnits="objectBoundingBox"><stop offset="0" stop-color="#cbcbcb"/><stop offset="1" stop-color="#b7b7b7"/></linearGradient><linearGradient id="b" x1="0.5" x2="0.5" y2="1" gradientUnits="objectBoundingBox"><stop offset="0" stop-color="#e8e8e8"/><stop offset="1" stop-color="#ededed"/></linearGradient></defs><g transform="translate(-41.968 -135.5)"><path class="a" d="M71.213,341.878a4.961,4.961,0,0,0-.783.062,6.06,6.06,0,0,0,.086-1,6.341,6.341,0,0,0-12.677-.271,6.018,6.018,0,0,0,.313,12.028H71.213a5.411,5.411,0,1,0,.018-10.822h-.018Z" transform="translate(-10.152 -197.188)"/><path class="b" d="M85.675,337.9a2.769,2.769,0,0,0-.373-.178,3,3,0,0,0,.3-.43,3.332,3.332,0,0,0-5.7-3.454,3.16,3.16,0,0,0-3.3.264,7.628,7.628,0,0,1,3.062,5.778,6.672,6.672,0,0,1,5.177,3.256,2.833,2.833,0,0,0,.827-5.232Z" transform="translate(-17.5 -196.775)"/></g></svg>