<svg xmlns="http://www.w3.org/2000/svg" width="31.244" height="32.457" viewBox="0 0 31.244 32.457"><defs><style>.a{fill:#80bfcf;}.b{fill:#fc0;}</style></defs><g transform="translate(-207.568 -132.771)"><path class="a" d="M28.165,4.146A3.155,3.155,0,0,1,31.31,7.291v6.291L15.582,29.31v3.146H6.146A3.155,3.155,0,0,1,3,29.31V7.291A3.155,3.155,0,0,1,6.146,4.146H12.72a4.7,4.7,0,0,1,8.871,0h6.574m-11.01,0a1.573,1.573,0,1,0,1.573,1.573A1.577,1.577,0,0,0,17.155,4.146Z" transform="translate(204.568 131.771)"/><path class="b" d="M28.7,15.53a.839.839,0,0,1,.6.267l2.013,2.013a.836.836,0,0,1,0,1.211l-1.573,1.573L26.513,17.37,28.086,15.8a.874.874,0,0,1,.613-.267m-3.1,2.752,3.224,3.224-9.531,9.547h-3.24v-3.24L25.6,18.282" transform="translate(207.241 134.176)"/></g></svg>