<svg xmlns="http://www.w3.org/2000/svg" width="20" height="20" viewBox="0 0 20 20">
  <g id="bx-user-circle" transform="translate(-2 -2)">
    <path id="패스_1750" data-name="패스 1750" d="M12,8a1.913,1.913,0,0,0-2,2,1.913,1.913,0,0,0,2,2,1.913,1.913,0,0,0,2-2A1.913,1.913,0,0,0,12,8Z" fill="none"/>
    <path id="패스_1751" data-name="패스 1751" d="M12,4a8.106,8.106,0,0,0-8,8,7.978,7.978,0,0,0,2.39,5.641A5.007,5.007,0,0,1,11,14.573h2a5.007,5.007,0,0,1,4.61,3.068A7.978,7.978,0,0,0,20,12,8.106,8.106,0,0,0,12,4Zm0,10a3.913,3.913,0,0,1-4-4,3.913,3.913,0,0,1,4-4,3.913,3.913,0,0,1,4,4A3.913,3.913,0,0,1,12,14Z" fill="none"/>
    <path id="패스_1752" data-name="패스 1752" d="M13,16.572H11a3,3,0,0,0-2.926,2.354,7.716,7.716,0,0,0,7.852,0A3,3,0,0,0,13,16.572Z" fill="none"/>
    <path id="패스_1753" data-name="패스 1753" d="M12,2A10.133,10.133,0,0,0,2,12a10.049,10.049,0,0,0,4,7.924V20h.1a9.7,9.7,0,0,0,11.8,0H18v-.076A10.048,10.048,0,0,0,22,12,10.133,10.133,0,0,0,12,2ZM8.074,18.927A3,3,0,0,1,11,16.573h2a3,3,0,0,1,2.926,2.354,7.719,7.719,0,0,1-7.852,0Zm9.536-1.286A5.007,5.007,0,0,0,13,14.573H11a5.007,5.007,0,0,0-4.61,3.068A7.978,7.978,0,0,1,4,12a8.106,8.106,0,0,1,8-8,8.106,8.106,0,0,1,8,8A7.978,7.978,0,0,1,17.61,17.641Z"/>
    <path id="패스_1754" data-name="패스 1754" d="M12,6a3.913,3.913,0,0,0-4,4,3.913,3.913,0,0,0,4,4,3.913,3.913,0,0,0,4-4A3.913,3.913,0,0,0,12,6Zm0,6a1.913,1.913,0,0,1-2-2,1.913,1.913,0,0,1,2-2,1.913,1.913,0,0,1,2,2A1.913,1.913,0,0,1,12,12Z"/>
  </g>
</svg>
