<svg xmlns="http://www.w3.org/2000/svg" width="21" height="21" viewBox="0 0 21 21"><defs><style>.a{fill:#3e82f1;}.a,.b,.c,.d{fill-rule:evenodd;}.b{fill:#32a753;}.c{fill:#f9bb00;}.d{fill:#e74133;}</style></defs><g transform="translate(0 0)"><g transform="translate(0)"><path class="a" d="M702.581,710a12.417,12.417,0,0,0-.2-2.209H692.211v4.178h5.813a4.97,4.97,0,0,1-2.155,3.26v2.71h3.491A10.534,10.534,0,0,0,702.581,710Z" transform="translate(-681.581 -699.561)"/><path class="b" d="M607.006,756.012a10.313,10.313,0,0,0,7.149-2.617l-3.491-2.71a6.517,6.517,0,0,1-9.7-3.422h-3.609v2.8a10.8,10.8,0,0,0,9.653,5.951Z" transform="translate(-596.204 -735.012)"/><path class="c" d="M590.82,686.327a6.387,6.387,0,0,1,0-4.1v-2.8h-3.609a10.815,10.815,0,0,0,0,9.7l3.609-2.8Z" transform="translate(-586.062 -673.775)"/><path class="d" d="M606.908,625.241a5.744,5.744,0,0,1,4.087,1.615l3.067-3.1a10.219,10.219,0,0,0-7.154-2.813,10.677,10.677,0,0,0-9.555,5.951l3.572,2.8a6.38,6.38,0,0,1,5.983-4.453Z" transform="translate(-596.204 -620.945)"/></g></g></svg>