<svg xmlns="http://www.w3.org/2000/svg" width="15" height="20" viewBox="0 0 15 20"><defs><style>.a{fill:#333;}</style></defs><path class="a" d="M11.5,16.238a1.9,1.9,0,1,1,1.875-1.9,1.89,1.89,0,0,1-1.875,1.9M17.125,19.1V9.571H5.875V19.1h11.25m0-11.429A1.9,1.9,0,0,1,19,9.571V19.1A1.9,1.9,0,0,1,17.125,21H5.875A1.89,1.89,0,0,1,4,19.1V9.571a1.884,1.884,0,0,1,1.875-1.9h.938v-1.9a4.688,4.688,0,1,1,9.375,0v1.9h.938M11.5,2.9A2.831,2.831,0,0,0,8.688,5.762v1.9h5.625v-1.9A2.831,2.831,0,0,0,11.5,2.9Z" transform="translate(-4 -1)"/></svg>