<svg xmlns="http://www.w3.org/2000/svg" width="24" height="19" viewBox="0 0 24 19"><defs><style>.a{fill:#333;}</style></defs><g transform="translate(-302.858 -610.416)"><g transform="translate(302.858 610.416)"><path class="a" d="M97.705,410.4a.775.775,0,0,0,.852.191l4.324-1.719q.387.174.791.317a10.046,10.046,0,0,0,7.891,3.478,11.165,11.165,0,0,0,4.563-.956l4.324,1.719a.775.775,0,0,0,.852-.191.75.75,0,0,0,.118-.855l-1.774-3.439a6.606,6.606,0,0,0,1.34-3.949c0-3.065-2.218-5.817-5.66-7.036a10.109,10.109,0,0,0-7.883-3.475c-5.2,0-9.424,3.441-9.424,7.671a6.606,6.606,0,0,0,1.34,3.949l-1.774,3.439A.75.75,0,0,0,97.705,410.4Zm21.747-5.4a5.209,5.209,0,0,1-1.3,3.376h0l0,0c-.007.008-.011.017-.017.026a.754.754,0,0,0-.066.1.764.764,0,0,0-.036.081c-.007.018-.016.035-.022.053a.714.714,0,0,0-.021.094c0,.016-.008.032-.01.048a.773.773,0,0,0,0,.1c0,.016,0,.032,0,.049a.718.718,0,0,0,.02.115c0,.009,0,.019.005.028a.746.746,0,0,0,.061.152l1.06,2.055-2.737-1.088-.02-.006a.771.771,0,0,0-.081-.023c-.022-.005-.044-.012-.067-.015s-.05,0-.075-.006-.05,0-.074,0-.046,0-.07.008a.751.751,0,0,0-.078.013c-.021,0-.041.012-.062.019a.773.773,0,0,0-.083.031l-.019.007a9.536,9.536,0,0,1-4.2.945,9.376,9.376,0,0,1-4.915-1.353c.264.018.529.028.8.028,5.2,0,9.424-3.441,9.424-7.672a6.323,6.323,0,0,0-.3-1.914A5.755,5.755,0,0,1,119.453,405Zm-12.008-9c4.35,0,7.889,2.762,7.889,6.157s-3.539,6.157-7.889,6.157a9.538,9.538,0,0,1-4.2-.945l-.019-.007a.791.791,0,0,0-.081-.03c-.021-.007-.042-.015-.063-.02a.755.755,0,0,0-.076-.012c-.024,0-.048-.007-.072-.008s-.047,0-.071,0-.052,0-.078.006-.042.009-.064.015a.729.729,0,0,0-.084.024l-.02.006-2.737,1.088,1.06-2.055a.754.754,0,0,0,.061-.152c0-.009,0-.018.005-.028a.754.754,0,0,0,.02-.116c0-.016,0-.032,0-.048a.78.78,0,0,0,0-.1c0-.016-.007-.032-.01-.048a.757.757,0,0,0-.021-.1c-.006-.018-.015-.035-.022-.052a.709.709,0,0,0-.036-.081.756.756,0,0,0-.066-.1c-.006-.008-.01-.016-.017-.024l0,0v0a5.209,5.209,0,0,1-1.3-3.376C99.555,398.766,103.094,396,107.444,396Z" transform="translate(-97.504 -394.489)"/></g><circle class="a" cx="1" cy="1" r="1" transform="translate(308.048 616.968)"/><circle class="a" cx="1" cy="1" r="1" transform="translate(312.085 616.968)"/><circle class="a" cx="1" cy="1" r="1" transform="translate(316.122 616.968)"/></g></svg>