<svg xmlns="http://www.w3.org/2000/svg" width="42" height="42" viewBox="0 0 42 42"><defs><style>.a{fill:#fc0;fill-rule:evenodd;}</style></defs><g transform="translate(-379.527 -305.118)"><path class="a" d="M455.823,368.307a14.129,14.129,0,1,1-14.288,14.128,14.218,14.218,0,0,1,14.288-14.128Z" transform="translate(-55.28 -56.333)"/><path class="a" d="M565.73,305.118h0a.78.78,0,0,1,.769.769v1.922a.78.78,0,0,1-.769.769h0a.759.759,0,0,1-.769-.769v-1.922a.759.759,0,0,1,.769-.769Z" transform="translate(-165.187)"/><path class="a" d="M565.73,657.677h0a.78.78,0,0,1,.769.769v1.922a.787.787,0,0,1-.769.8h0a.767.767,0,0,1-.769-.8v-1.922a.759.759,0,0,1,.769-.769Z" transform="translate(-165.187 -314.051)"/><path class="a" d="M379.527,491.025h0a.787.787,0,0,1,.8-.769h1.922a.78.78,0,0,1,.769.769h0a.759.759,0,0,1-.769.769h-1.922a.767.767,0,0,1-.8-.769Z" transform="translate(0 -164.923)"/><path class="a" d="M732.382,491.025h0a.78.78,0,0,1,.769-.769h1.922a.78.78,0,0,1,.769.769h0a.759.759,0,0,1-.769.769h-1.922a.759.759,0,0,1-.769-.769Z" transform="translate(-314.315 -164.923)"/><path class="a" d="M494.376,319.121h0a.767.767,0,0,1,.993.416l.737,1.794a.815.815,0,0,1-.416,1.025h0a.791.791,0,0,1-1.025-.448l-.737-1.762a.791.791,0,0,1,.448-1.025Z" transform="translate(-101.858 -12.433)"/><path class="a" d="M629.317,645.106h0a.767.767,0,0,1,.993.416l.737,1.762a.792.792,0,0,1-.416,1.025h0a.8.8,0,0,1-1.025-.417l-.737-1.762a.78.78,0,0,1,.448-1.025Z" transform="translate(-222.063 -302.793)"/><path class="a" d="M393.826,556.186h0a.767.767,0,0,1,.417-.993l1.762-.737a.792.792,0,0,1,1.025.417h0a.8.8,0,0,1-.417,1.025l-1.762.737a.78.78,0,0,1-1.025-.449Z" transform="translate(-12.697 -222.059)"/><path class="a" d="M719.518,421.208h0a.756.756,0,0,1,.449-.993l1.762-.737a.776.776,0,0,1,1.025.417h0a.8.8,0,0,1-.417,1.025l-1.794.737a.8.8,0,0,1-1.025-.449Z" transform="translate(-302.797 -101.817)"/><path class="a" d="M434.148,359.542h0a.774.774,0,0,1,1.121,0l1.345,1.345a.794.794,0,0,1,0,1.089h0a.737.737,0,0,1-1.089,0l-1.378-1.346a.794.794,0,0,1,0-1.089Z" transform="translate(-48.502 -48.304)"/><path class="a" d="M683.458,608.952h0a.794.794,0,0,1,1.089,0l1.346,1.346a.774.774,0,0,1,0,1.121h0a.794.794,0,0,1-1.089,0l-1.346-1.378a.737.737,0,0,1,0-1.089Z" transform="translate(-270.485 -270.419)"/><path class="a" d="M434.148,611.418h0a.835.835,0,0,1,0-1.121l1.378-1.346a.794.794,0,0,1,1.089,0h0a.794.794,0,0,1,0,1.089l-1.345,1.378a.835.835,0,0,1-1.121,0Z" transform="translate(-48.502 -270.419)"/><path class="a" d="M683.458,361.976h0a.738.738,0,0,1,0-1.089l1.346-1.345a.737.737,0,0,1,1.089,0h0a.737.737,0,0,1,0,1.089l-1.346,1.346a.737.737,0,0,1-1.089,0Z" transform="translate(-270.485 -48.304)"/><path class="a" d="M393.826,419.895h0a.765.765,0,0,1,1.025-.417l1.762.737a.767.767,0,0,1,.417.993h0a.78.78,0,0,1-1.025.449l-1.762-.737a.8.8,0,0,1-.417-1.025Z" transform="translate(-12.697 -101.817)"/><path class="a" d="M719.518,554.872h0a.816.816,0,0,1,1.025-.417l1.794.737a.767.767,0,0,1,.417.993h0a.791.791,0,0,1-1.025.449l-1.762-.737a.791.791,0,0,1-.449-1.025Z" transform="translate(-302.797 -222.059)"/><path class="a" d="M494.376,648.309h0a.78.78,0,0,1-.448-1.025l.737-1.762a.8.8,0,0,1,1.025-.416h0a.791.791,0,0,1,.416,1.025l-.737,1.762a.767.767,0,0,1-.993.417Z" transform="translate(-101.858 -302.793)"/><path class="a" d="M629.317,322.357h0a.8.8,0,0,1-.448-1.025l.737-1.794a.8.8,0,0,1,1.025-.416h0a.8.8,0,0,1,.416,1.025l-.737,1.762a.756.756,0,0,1-.993.448Z" transform="translate(-222.063 -12.433)"/></g></svg>