<svg xmlns="http://www.w3.org/2000/svg" width="17.095" height="19.864" viewBox="0 0 17.095 19.864">
  <path id="패스_1541" data-name="패스 1541" d="M53.673,191.753H69.884V192.9H53.673v-1.148Zm3.455-2.477,2.933-.624,7.321-7.7.745.784-7.415,7.789c-.272.323-5.585,1.3-6.4,1.474a.54.54,0,0,1-.628-.651c.161-.836,1.118-6.435,1.382-6.712l7.424-7.826.743.781L55.922,184.3l-.593,3.084,1.8,1.891Zm6-14.134,1.574-1.655a1.425,1.425,0,0,1,2.079,0l3.559,3.741a1.607,1.607,0,0,1,0,2.186l-1.573,1.653-5.639-5.926Z" transform="translate(-53.673 -173.037)" fill="#483313" fill-rule="evenodd" opacity="0.8"/>
</svg>
