<svg xmlns="http://www.w3.org/2000/svg" width="22.006" height="20.6" viewBox="0 0 22.006 20.6"><defs><style>.a,.c{fill:#222;}.b{fill:#fff;}.c{stroke:#222;stroke-width:0.2px;}</style></defs><g transform="translate(-285.994 -15.9)"><g transform="translate(-2)"><g transform="translate(287.994 16.5)"><path class="a" d="M150.1,418.689l9-.011v-.727l-2.179-2.145-.007-6.006a6.725,6.725,0,0,0-5.258-6.54l-.191-.045v-.924a1.375,1.375,0,0,0-1.361-1.362h-.024a1.375,1.375,0,0,0-1.359,1.364v.924l-.191.045a6.724,6.724,0,0,0-5.25,6.546v6.006l-2.176,2.147v.727Zm0-1.657h-5.141v-7.223a5.139,5.139,0,0,1,10.277-.006l.009,7.224-5.145.006Z" transform="translate(-141.097 -400.93)"/><path class="a" d="M169.62,475.726a1.906,1.906,0,0,0,1.887,1.657h0a1.905,1.905,0,0,0,1.885-1.66Z" transform="translate(-162.505 -457.384)"/></g></g><g transform="translate(26 9)"><circle class="b" cx="5.5" cy="5.5" r="5.5" transform="translate(271 7)"/><path class="c" d="M7.646,5.225a2.151,2.151,0,1,1-2.21,2.15,2.18,2.18,0,0,1,2.21-2.15m0,1.075A1.076,1.076,0,1,0,8.751,7.376,1.094,1.094,0,0,0,7.646,6.3M6.541,12.751a.277.277,0,0,1-.276-.226l-.2-1.425a3.863,3.863,0,0,1-.934-.532l-1.376.543a.281.281,0,0,1-.337-.118L2.309,9.134a.26.26,0,0,1,.066-.344L3.541,7.9,3.5,7.376l.039-.538L2.375,5.962a.26.26,0,0,1-.066-.344l1.105-1.86a.275.275,0,0,1,.337-.118l1.376.538a4.033,4.033,0,0,1,.934-.527l.2-1.425A.277.277,0,0,1,6.541,2h2.21a.277.277,0,0,1,.276.226l.2,1.425a4.033,4.033,0,0,1,.934.527l1.376-.538a.275.275,0,0,1,.337.118l1.105,1.86a.26.26,0,0,1-.066.344l-1.166.876.039.538-.039.538,1.166.876a.26.26,0,0,1,.066.344l-1.105,1.86a.275.275,0,0,1-.337.118l-1.376-.538a4.033,4.033,0,0,1-.934.527l-.2,1.425a.277.277,0,0,1-.276.226H6.541m.691-9.676-.2,1.4a3.053,3.053,0,0,0-1.674.957L4.022,4.876l-.414.7,1.166.833a2.907,2.907,0,0,0,0,1.935L3.6,9.182l.414.7,1.343-.559a3.026,3.026,0,0,0,1.663.946l.2,1.408h.84l.2-1.4a3.067,3.067,0,0,0,1.663-.952l1.343.559.414-.7L10.52,8.349a2.923,2.923,0,0,0,0-1.941l1.166-.833-.414-.7-1.332.559a3.013,3.013,0,0,0-1.674-.952l-.2-1.408Z" transform="translate(268.729 5)"/></g></g></svg>