<svg xmlns="http://www.w3.org/2000/svg" width="16" height="16" viewBox="0 0 16 16">
  <g id="icon_rotate" transform="translate(23.003 -115.725)">
    <rect id="사각형_949" data-name="사각형 949" width="16" height="16" transform="translate(-23.003 115.725)" fill="#fff" opacity="0"/>
    <path id="패스_1971" data-name="패스 1971" d="M21.093,8.821H16.728a.728.728,0,0,1,0-1.455h3.638V3.728a.728.728,0,1,1,1.455,0V8.093A.728.728,0,0,1,21.093,8.821Z" transform="translate(-29.426 114.452)" fill="#222"/>
    <path id="패스_1972" data-name="패스 1972" d="M9.012,16q-.209,0-.418-.012A7,7,0,0,1,5.623,2.871a7,7,0,0,1,8.323,1.174L17.178,7.09a.7.7,0,0,1-.96,1.019L12.978,5.057l-.015-.015a5.6,5.6,0,1,0,1.319,5.823.7.7,0,1,1,1.32.466A7,7,0,0,1,9.012,16Z" transform="translate(-25.003 114.725)" fill="#222"/>
  </g>
</svg>
