<svg id="icon_state_favorites" xmlns="http://www.w3.org/2000/svg" width="12" height="12" viewBox="0 0 12 12">
  <rect id="사각형_947" data-name="사각형 947" width="12" height="12" transform="translate(12) rotate(90)" fill="#fff" opacity="0"/>
  <path id="패스_1970" data-name="패스 1970" d="M10.593,12.993a.53.53,0,0,1-.254-.064L7.528,11.384,4.717,12.929a.529.529,0,0,1-.582-.045.593.593,0,0,1-.217-.568l.551-3.258L2.2,6.743a.6.6,0,0,1-.138-.579.559.559,0,0,1,.446-.393l3.142-.48L7.032,2.322a.54.54,0,0,1,.992,0l1.4,2.963,3.142.48a.559.559,0,0,1,.446.393.6.6,0,0,1-.138.579L10.6,9.052l.551,3.258a.593.593,0,0,1-.22.579A.532.532,0,0,1,10.593,12.993Z" transform="translate(-1.536 -1.496)" fill="#fff"/>
</svg>
