<svg xmlns="http://www.w3.org/2000/svg" width="18" height="20" viewBox="0 0 18 20"><defs><style>.a{fill:#333;}</style></defs><path class="a" d="M17.82,4.47a.465.465,0,0,1-.23-.06A11.466,11.466,0,0,0,12.006,3,11.444,11.444,0,0,0,6.442,4.41a.5.5,0,1,1-.48-.88A12.34,12.34,0,0,1,12.006,2,12.814,12.814,0,0,1,18.05,3.5a.518.518,0,0,1,.21.69.48.48,0,0,1-.44.28M3.5,9.72a.5.5,0,0,1-.41-.79A10.344,10.344,0,0,1,6.843,5.66a11.558,11.558,0,0,1,10.317-.01A10.289,10.289,0,0,1,20.912,8.9a.508.508,0,0,1-.821.6A9.261,9.261,0,0,0,16.7,6.54a10.55,10.55,0,0,0-9.406.01,9.56,9.56,0,0,0-3.4,2.95.425.425,0,0,1-.39.22M9.754,21.79a.486.486,0,0,1-.35-.15A10.11,10.11,0,0,1,7.393,19a8.872,8.872,0,0,1-1.051-4.34,5.54,5.54,0,0,1,5.664-5.39,5.54,5.54,0,0,1,5.664,5.39.5.5,0,0,1-1,0,4.538,4.538,0,0,0-4.663-4.39,4.538,4.538,0,0,0-4.663,4.39,7.764,7.764,0,0,0,.931,3.84,9.355,9.355,0,0,0,1.851,2.43.513.513,0,0,1,0,.71.568.568,0,0,1-.37.15m7.175-1.85a5.391,5.391,0,0,1-3.1-.89,5.323,5.323,0,0,1-2.382-4.39.5.5,0,0,1,1,0,4.3,4.3,0,0,0,1.941,3.56,4.39,4.39,0,0,0,2.542.71,6.617,6.617,0,0,0,1.041-.1.494.494,0,0,1,.58.41.5.5,0,0,1-.41.58,6.838,6.838,0,0,1-1.211.12M14.918,22h-.13a8.008,8.008,0,0,1-3.722-2.12,7.277,7.277,0,0,1-2.171-5.22,3.017,3.017,0,0,1,3.082-2.94,3.017,3.017,0,0,1,3.082,2.94,2.087,2.087,0,0,0,4.163,0,7.056,7.056,0,0,0-7.255-6.83,7.284,7.284,0,0,0-6.614,4.03,6.429,6.429,0,0,0-.59,2.8,9.932,9.932,0,0,0,.67,3.61.488.488,0,0,1-.29.64.5.5,0,0,1-.64-.29,10.957,10.957,0,0,1-.73-3.96,7.509,7.509,0,0,1,.68-3.24,8.305,8.305,0,0,1,7.515-4.6,8.064,8.064,0,0,1,8.255,7.83,3.085,3.085,0,0,1-6.164,0,2.015,2.015,0,0,0-2.081-1.94,2.015,2.015,0,0,0-2.081,1.94,6.3,6.3,0,0,0,1.871,4.51A6.711,6.711,0,0,0,15.038,21a.511.511,0,0,1,.35.62A.488.488,0,0,1,14.918,22Z" transform="translate(-3.002 -2)"/></svg>