<svg xmlns="http://www.w3.org/2000/svg" width="31.188" height="40.527" viewBox="0 0 31.188 40.527">
  <g id="icon" transform="translate(-26.75 6.25)">
    <path id="패스_1781" data-name="패스 1781" d="M126.677,32.005V28a1.334,1.334,0,0,0-1.334-1.334h-2.668A2.669,2.669,0,0,0,120.005,24h-1.334A2.665,2.665,0,0,0,116,26.662v.007h-2.668A1.334,1.334,0,0,0,112,28v4Zm-7.338-5.337A1.334,1.334,0,1,1,118,28,1.334,1.334,0,0,1,119.338,26.668Z" transform="translate(-76.81 -28.379)" fill="#fedd7b"/>
    <g id="그룹_1170" data-name="그룹 1170" transform="translate(27 -6)">
      <path id="패스_1786" data-name="패스 1786" d="M44.686,21.337H39.349V20.67a2,2,0,0,0-2-2H35.28A3.342,3.342,0,0,0,32.011,16H30.677a3.328,3.328,0,0,0-3.269,2.668H25.34a2,2,0,0,0-2,2v.667H18a2,2,0,0,0-2,2V54.026a2,2,0,0,0,2,2H44.686a2,2,0,0,0,2-2V23.338A2,2,0,0,0,44.686,21.337ZM24.673,20.67A.667.667,0,0,1,25.34,20h2.668a.667.667,0,0,0,.667-.667,2,2,0,0,1,1.993-2h1.342a2,2,0,0,1,2,2,.667.667,0,0,0,.667.667h2.668a.667.667,0,0,1,.667.667v3.336H24.673Zm-.667,4.67H38.682a.667.667,0,0,0,.667-.667v-2H23.338v2A.667.667,0,0,0,24.005,25.34ZM45.353,54.026a.667.667,0,0,1-.667.667H18a.667.667,0,0,1-.667-.667V23.338A.667.667,0,0,1,18,22.671h.667c.049-.2,25.22-.128,25.351,0h.667a.667.667,0,0,1,.667.667Z" transform="translate(-16 -16)" fill="#333" stroke="#333" stroke-width="0.5"/>
      <g id="ic_check_box_24px" transform="translate(4.214 12.349)">
        <path id="패스_1965" data-name="패스 1965" d="M0,0H18.418V18.418H0Z" transform="translate(1.921 1.921)" fill="none"/>
        <g id="패스_1966" data-name="패스 1966" transform="translate(-3 -3)" fill="#4dd5c8">
          <path d="M 22.78637313842773 24.50966262817383 L 5.473293304443359 24.50966262817383 C 4.523063182830811 24.50966262817383 3.750003337860107 23.73660278320312 3.750003337860107 22.78637313842773 L 3.750003337860107 5.473293304443359 C 3.750003337860107 4.523063182830811 4.523063182830811 3.750003337860107 5.473293304443359 3.750003337860107 L 22.78637313842773 3.750003337860107 C 23.73660278320312 3.750003337860107 24.50966262817383 4.523063182830811 24.50966262817383 5.473293304443359 L 24.50966262817383 22.78637313842773 C 24.50966262817383 23.73660278320312 23.73660278320312 24.50966262817383 22.78637313842773 24.50966262817383 Z" stroke="none"/>
          <path d="M 5.473293304443359 4.500003814697266 C 4.936622619628906 4.500003814697266 4.500003814697266 4.936622619628906 4.500003814697266 5.473293304443359 L 4.500003814697266 22.78637313842773 C 4.500003814697266 23.32304382324219 4.936622619628906 23.75966262817383 5.473293304443359 23.75966262817383 L 22.78637313842773 23.75966262817383 C 23.32304382324219 23.75966262817383 23.75966262817383 23.32304382324219 23.75966262817383 22.78637313842773 L 23.75966262817383 5.473293304443359 C 23.75966262817383 4.936622619628906 23.32304382324219 4.500003814697266 22.78637313842773 4.500003814697266 L 5.473293304443359 4.500003814697266 M 5.473293304443359 3.000003814697266 L 22.78637313842773 3.000003814697266 C 24.15904235839844 3.000003814697266 25.25966262817383 4.112983703613281 25.25966262817383 5.473293304443359 L 25.25966262817383 22.78637313842773 C 25.25966262817383 24.14668273925781 24.15904235839844 25.25966262817383 22.78637313842773 25.25966262817383 L 5.473293304443359 25.25966262817383 C 4.100612640380859 25.25966262817383 3.000003814697266 24.14668273925781 3.000003814697266 22.78637313842773 L 3.000003814697266 5.473293304443359 C 3.000003814697266 4.112983703613281 4.100612640380859 3.000003814697266 5.473293304443359 3.000003814697266 Z" stroke="none" fill="#000111"/>
        </g>
        <g id="패스_1720" data-name="패스 1720" transform="translate(1.882 -0.625)" fill="#fff">
          <path d="M 7.483882904052734 16.97518920898438 L 6.963603019714355 16.45490837097168 L 2.879672765731812 12.37097835540771 L 2.347462892532349 11.83876800537109 L 2.881552934646606 11.30844879150391 L 3.918972969055176 10.27832889556885 L 4.449292659759521 9.751738548278809 L 4.977752685546875 10.280198097229 L 7.50577449798584 12.80821990966797 L 13.53747272491455 7.042948246002197 L 14.06753253936768 6.536298274993896 L 14.58602333068848 7.054788589477539 L 15.61613273620605 8.084898948669434 L 16.14642333984375 8.615188598632812 L 15.61617279052734 9.14551830291748 L 15.5470027923584 9.214698791503906 L 15.54191303253174 9.21979808807373 L 15.53672313690186 9.224788665771484 L 8.014022827148438 16.46495819091797 L 7.483882904052734 16.97518920898438 Z" stroke="none"/>
          <path d="M 7.493932723999023 15.92457866668701 L 15.08580303192139 8.615228652954102 L 14.05569267272949 7.585118293762207 L 7.493932723999023 13.8570384979248 L 4.447422981262207 10.81052875518799 L 3.410002946853638 11.84064865112305 L 7.493932723999023 15.92457866668701 M 7.473833084106445 18.02579879760742 L 1.284932851791382 11.83689880371094 L 4.451162815093994 8.692948341369629 L 7.517616271972656 11.75940227508545 L 14.07937240600586 5.487478256225586 L 17.2070426940918 8.615148544311523 L 16.05680274963379 9.765168190002441 L 7.473833084106445 18.02579879760742 Z" stroke="none" fill="#333"/>
        </g>
      </g>
      <rect id="사각형_922" data-name="사각형 922" width="13.03" height="1.703" transform="translate(8.832 5.536)" fill="#fedd7b"/>
      <circle id="타원_130" data-name="타원 130" cx="1" cy="1" r="1" transform="translate(14.371 5.5)" fill="#fff"/>
      <path id="패스_1787" data-name="패스 1787" d="M178,52a2,2,0,1,0-2-2A2,2,0,0,0,178,52Zm0-2.668a.667.667,0,1,1-.667.667A.667.667,0,0,1,178,49.334Z" transform="translate(-162.473 -44.377)" fill="#000111"/>
    </g>
  </g>
</svg>
