<svg xmlns="http://www.w3.org/2000/svg" width="80" height="80" viewBox="0 0 80 80">
  <g id="img_noimage" transform="translate(-15 -307)">
    <rect id="사각형_913" data-name="사각형 913" width="80" height="80" rx="4" transform="translate(15 307)" fill="#e5e5e5"/>
    <path id="no-photos" d="M36.2,4H5.8A3.861,3.861,0,0,0,2,7.912V31.382a3.861,3.861,0,0,0,3.8,3.912H36.2A3.861,3.861,0,0,0,40,31.382V7.912A3.861,3.861,0,0,0,36.2,4ZM10.549,9.868A2.935,2.935,0,1,1,7.7,12.8,2.893,2.893,0,0,1,10.549,9.868ZM21,29.426H7.7l7.6-9.779,2.85,3.912,5.7-7.824L34.3,29.426Z" transform="translate(34.001 327)" fill="#fff"/>
  </g>
</svg>
