<svg xmlns="http://www.w3.org/2000/svg" width="18.485" height="18.485" viewBox="0 0 18.485 18.485"><defs><style>.a{fill:#fff;}</style></defs><path class="a" d="M10.59,13.41a.973.973,0,0,1,0,1.42,1.008,1.008,0,0,1-1.42,0,5,5,0,0,1,0-7.07h0l3.54-3.54a5,5,0,0,1,7.07,7.07l-1.49,1.49a6.908,6.908,0,0,0-.4-2.42l.47-.48a3,3,0,0,0-4.24-4.24L10.59,9.17a2.982,2.982,0,0,0,0,4.24m2.82-4.24a1.008,1.008,0,0,1,1.42,0,5,5,0,0,1,0,7.07h0l-3.54,3.54a5,5,0,0,1-7.07-7.07l1.49-1.49a7,7,0,0,0,.4,2.43l-.47.47a3,3,0,0,0,4.24,4.24l3.53-3.53a2.982,2.982,0,0,0,0-4.24A.973.973,0,0,1,13.41,9.17Z" transform="translate(-2.758 -2.757)"/></svg>