<svg xmlns="http://www.w3.org/2000/svg" width="21.375" height="19.351" viewBox="0 0 21.375 19.351"><defs><style>.a{fill:#000;stroke:#000;stroke-width:0.3px;}</style></defs><path class="a" d="M10.5,2.727c4.825,0,8.75,3.1,8.75,6.915,0,4.246-4.5,6.875-8.671,6.875a15.1,15.1,0,0,1-3.845-.556A11.878,11.878,0,0,1,3,17.533a7.987,7.987,0,0,0,.527-3.683A6.045,6.045,0,0,1,1.751,9.642c0-3.813,3.924-6.915,8.749-6.915ZM10.5,1C4.954,1,0,4.65,0,9.642A7.551,7.551,0,0,0,1.791,14.5C1.839,16.081.9,18.349.047,20a25.439,25.439,0,0,0,6.98-2.19,15.2,15.2,0,0,0,3.551.434c6.2,0,10.421-4.177,10.421-8.6C21,4.623,16.011,1,10.5,1ZM7.437,9.636a1.313,1.313,0,1,1-1.312-1.3A1.3,1.3,0,0,1,7.437,9.636Zm3.062-1.3a1.3,1.3,0,1,0,1.312,1.3A1.3,1.3,0,0,0,10.5,8.341Zm4.375,0a1.3,1.3,0,1,0,1.312,1.3A1.3,1.3,0,0,0,14.874,8.341Z" transform="translate(0.225 -0.85)"/></svg>