<svg xmlns="http://www.w3.org/2000/svg" width="20" height="19" viewBox="0 0 20 19"><defs><style>.a{fill:#000;}</style></defs><path class="a" d="M9.847,12.819a7.025,7.025,0,0,0-.795,1.891c-2.639.225-5.189,1.46-5.189,2.028v1.078h5.2a6.815,6.815,0,0,0,.785,1.862H2v-2.94c0-2.606,5.228-3.92,7.847-3.92M9.847,4a3.921,3.921,0,0,1,3.119,6.3,6.232,6.232,0,0,0-2.227,1.44l-.893.1A3.92,3.92,0,1,1,9.847,4m0,1.862a2.058,2.058,0,1,0,2.06,2.058,2.059,2.059,0,0,0-2.06-2.058m5.395,5.977A4.413,4.413,0,0,1,18.979,18.6L22,21.638,20.637,23l-3.06-3.008a4.411,4.411,0,1,1-2.334-8.153m0,1.96a2.45,2.45,0,1,0,2.452,2.45A2.452,2.452,0,0,0,15.242,13.8Z" transform="translate(-2 -4)"/></svg>