<svg xmlns="http://www.w3.org/2000/svg" width="15.84" height="20.001" viewBox="0 0 15.84 20.001">
  <g id="그룹_1080" data-name="그룹 1080" transform="translate(-125 -1770)">
    <g id="그룹_772" data-name="그룹 772" transform="translate(-1009.137 37.432)">
      <path id="패스_382" data-name="패스 382" d="M559.73,95.34h6.661c.473,0,.473,1.051,0,1.051H559.73c-.472,0-.473-1.051,0-1.051Zm9.975,5.223a1.345,1.345,0,0,0,1.343-1.343V85.306a1.169,1.169,0,0,0-.417-.939l-3.661-3.461a1.144,1.144,0,0,0-.893-.343H556.55a1.348,1.348,0,0,0-1.342,1.342V99.22a1.347,1.347,0,0,0,1.342,1.343Zm-.221-14.4H566.6a1.25,1.25,0,0,1-1.246-1.246V82.275h-8.336a.248.248,0,0,0-.249.25V98.6a.25.25,0,0,0,.249.25h12.213a.251.251,0,0,0,.25-.25V86.16Z" transform="translate(578.929 1652.006)" fill="#999" fill-rule="evenodd"/>
      <path id="패스_1471" data-name="패스 1471" d="M559.73,95.34h6.661c.473,0,.473,1.051,0,1.051H559.73c-.472,0-.473-1.051,0-1.051Zm9.975,5.223a1.345,1.345,0,0,0,1.343-1.343V85.306a1.169,1.169,0,0,0-.417-.939l-3.661-3.461a1.144,1.144,0,0,0-.893-.343H556.55a1.348,1.348,0,0,0-1.342,1.342V99.22a1.347,1.347,0,0,0,1.342,1.343Zm-.221-14.4H566.6a1.25,1.25,0,0,1-1.246-1.246V82.275h-8.336a.248.248,0,0,0-.249.25V98.6a.25.25,0,0,0,.249.25h12.213a.251.251,0,0,0,.25-.25V86.16Z" transform="translate(578.929 1652.006)" fill="#999" fill-rule="evenodd"/>
    </g>
    <path id="패스_1472" data-name="패스 1472" d="M559.73,89.34h6.661c.473,0,.473,1.051,0,1.051H559.73c-.472,0-.473-1.051,0-1.051Zm9.975,11.223a1.345,1.345,0,0,0,1.343-1.343V85.306a1.169,1.169,0,0,0-.417-.939l-3.661-3.461a1.144,1.144,0,0,0-.893-.343H556.55a1.348,1.348,0,0,0-1.342,1.342V99.22a1.347,1.347,0,0,0,1.342,1.343Zm-.221-14.4H566.6a1.25,1.25,0,0,1-1.246-1.246V82.275h-8.336a.248.248,0,0,0-.249.25V98.6a.25.25,0,0,0,.249.25h12.213a.251.251,0,0,0,.25-.25V86.16Z" transform="translate(-430.207 1689.437)" fill="#999" fill-rule="evenodd"/>
    <path id="패스_1473" data-name="패스 1473" d="M559.73,92.34h6.661c.473,0,.473,1.051,0,1.051H559.73c-.472,0-.473-1.051,0-1.051Zm9.975,8.223a1.345,1.345,0,0,0,1.343-1.343V85.306a1.169,1.169,0,0,0-.417-.939l-3.661-3.461a1.144,1.144,0,0,0-.893-.343H556.55a1.348,1.348,0,0,0-1.342,1.342V99.22a1.347,1.347,0,0,0,1.342,1.343Zm-.221-14.4H566.6a1.25,1.25,0,0,1-1.246-1.246V82.275h-8.336a.248.248,0,0,0-.249.25V98.6a.25.25,0,0,0,.249.25h12.213a.251.251,0,0,0,.25-.25V86.16Z" transform="translate(-430.207 1689.437)" fill="#999" fill-rule="evenodd"/>
  </g>
</svg>
