<svg xmlns="http://www.w3.org/2000/svg" width="19.338" height="19.125" viewBox="0 0 19.338 19.125">
  <g id="그룹_1055" data-name="그룹 1055" transform="translate(-179.988 -254.531)">
    <g id="그룹_1054" data-name="그룹 1054" transform="translate(179.988 254.531)">
      <g id="그룹_1043" data-name="그룹 1043" transform="translate(0)">
        <path id="패스_1475" data-name="패스 1475" d="M186.338,260.882h-6.35v-6.351h6.35Zm-4.374-1.976h2.4v-2.4h-2.4Z" transform="translate(-179.988 -254.531)" fill="#999"/>
      </g>
      <g id="그룹_1044" data-name="그룹 1044" transform="translate(12.774)">
        <path id="패스_1476" data-name="패스 1476" d="M202.5,260.882h-6.35v-6.351h6.35Zm-4.374-1.976h2.4v-2.4h-2.4Z" transform="translate(-196.147 -254.531)" fill="#999"/>
      </g>
      <g id="그룹_1045" data-name="그룹 1045" transform="translate(0 12.775)">
        <path id="패스_1477" data-name="패스 1477" d="M186.338,277.041h-3.175v-1.976h1.2v-2.4h-2.4v1.2h-1.976V270.69h6.351Z" transform="translate(-179.988 -270.69)" fill="#999"/>
      </g>
      <g id="그룹_1046" data-name="그룹 1046" transform="translate(16.634 17.149)">
        <rect id="사각형_871" data-name="사각형 871" width="2.704" height="1.976" fill="#999"/>
      </g>
      <g id="그룹_1047" data-name="그룹 1047" transform="translate(16.634 8.574)">
        <rect id="사각형_872" data-name="사각형 872" width="2.704" height="1.976" fill="#999"/>
      </g>
      <g id="그룹_1048" data-name="그룹 1048" transform="translate(13.061 8.574)">
        <rect id="사각형_873" data-name="사각형 873" width="2.704" height="1.976" fill="#999"/>
      </g>
      <g id="그룹_1049" data-name="그룹 1049" transform="translate(9.325 15.021)">
        <path id="패스_1478" data-name="패스 1478" d="M197.154,277.636h-5.37v-4.1h1.976v2.128h3.394Z" transform="translate(-191.784 -273.532)" fill="#999"/>
      </g>
      <g id="그룹_1050" data-name="그룹 1050" transform="translate(13.707 12.964)">
        <rect id="사각형_874" data-name="사각형 874" width="5.418" height="1.976" fill="#999"/>
      </g>
      <g id="그룹_1051" data-name="그룹 1051" transform="translate(8.574 0)">
        <rect id="사각형_875" data-name="사각형 875" width="1.976" height="6.351" fill="#999"/>
      </g>
      <g id="그룹_1052" data-name="그룹 1052" transform="translate(0 8.574)">
        <rect id="사각형_876" data-name="사각형 876" width="4.077" height="1.976" fill="#999"/>
      </g>
      <g id="그룹_1053" data-name="그룹 1053" transform="translate(6.744 8.574)">
        <path id="패스_1479" data-name="패스 1479" d="M193.076,269.706H191.1v-2.352h-2.582v-1.976h4.558Z" transform="translate(-188.518 -265.377)" fill="#999"/>
      </g>
    </g>
  </g>
</svg>
