<svg xmlns="http://www.w3.org/2000/svg" width="70.707" height="70.706" viewBox="0 0 70.707 70.706"><defs><style>.a{fill:#e2e2e2;stroke:#f7f7f7;stroke-width:0.5px;}</style></defs><path class="a" d="M37.41,12.63V25.3L48.077,35.963H60.743V48.63L67.41,55.3V25.963l-20-20H18.077l6.667,6.667H37.41m6.667-1.667L62.41,29.3H44.077V10.963M66.41,62.8v-.033L60.743,57.1v.033L39.61,35.963h0l-2.2-2.2V33.8L17.877,14.3,5.377,1.73,1.11,5.963,7.41,12.3v47a6.665,6.665,0,0,0,6.667,6.667h47l5.8,5.767L71.11,67.5l-4.7-4.7M14.077,59.3V18.93L54.443,59.3Z" transform="translate(-0.756 -1.377)"/></svg>