<svg xmlns="http://www.w3.org/2000/svg" width="30" height="30" viewBox="0 0 30 30"><path d="M5,5h7.5v7.5H5V5M25,5v7.5H17.5V5H25M17.5,18.75H20v-2.5H17.5v-2.5H20v2.5h2.5v-2.5H25v2.5H22.5v2.5H25V22.5H22.5V25H20V22.5H16.25V25h-2.5V20H17.5V18.75m2.5,0V22.5h2.5V18.75H20M5,25V17.5h7.5V25H5M7.5,7.5V10H10V7.5H7.5M20,7.5V10h2.5V7.5H20M7.5,20v2.5H10V20H7.5M5,13.75H7.5v2.5H5v-2.5m6.25,0h5v5h-2.5v-2.5h-2.5v-2.5m2.5-6.25h2.5v5h-2.5v-5M2.5,2.5v5H0v-5A2.507,2.507,0,0,1,2.5,0h5V2.5h-5M27.5,0A2.507,2.507,0,0,1,30,2.5v5H27.5v-5h-5V0h5M2.5,22.5v5h5V30h-5A2.507,2.507,0,0,1,0,27.5v-5H2.5m25,5v-5H30v5A2.507,2.507,0,0,1,27.5,30h-5V27.5Z"/></svg>