<svg xmlns="http://www.w3.org/2000/svg" width="18.75" height="15.865" viewBox="0 0 18.75 15.865"><defs><style>.a{fill:#308498;}</style></defs><path class="a" d="M20.4,12.173l1.346,1.356-6.279,6.337L12.135,16.5l1.346-1.356,1.99,2L20.4,12.173M10.692,4A3.846,3.846,0,1,1,6.846,7.846,3.845,3.845,0,0,1,10.692,4m0,1.923a1.923,1.923,0,1,0,1.923,1.923,1.929,1.929,0,0,0-1.923-1.923m0,6.731a13,13,0,0,1,2.317.25L11.4,14.51l-.712-.029c-2.856,0-5.865,1.4-5.865,2.019v1.058h5.962l1.827,1.827H3V16.5C3,13.942,8.125,12.654,10.692,12.654Z" transform="translate(-3 -4)"/></svg>