<svg xmlns="http://www.w3.org/2000/svg" width="18.75" height="17.581" viewBox="0 0 18.75 17.581"><defs><style>.a{fill:#308498;}</style></defs><path class="a" d="M16.608,19.581l-2.4-2.616,1.012-1.012,1.387,1.387,3.131-3.131,1.012,1.23-4.142,4.142M9.849,13.337h1.744v1.744H9.849V13.337m0-6.977h1.744v5.233H9.849V6.36M10.721,2a8.747,8.747,0,0,1,8.721,8.721l-.07,1.142a5.431,5.431,0,0,0-1.727-.27l.052-.872A6.977,6.977,0,1,0,10.721,17.7a7.123,7.123,0,0,0,1.788-.227,5.125,5.125,0,0,0,.5,1.666A8.721,8.721,0,1,1,10.721,2Z" transform="translate(-2 -2)"/></svg>