<svg xmlns="http://www.w3.org/2000/svg" width="20" height="20" viewBox="0 0 20 20"><defs><style>.a{fill:#308498;}</style></defs><path class="a" d="M5.786,6.619,3.757,4.6,5.1,3.257,7.119,5.286,5.786,6.619M12.452,1V3.857h-1.9V1h1.9m6.79,3.6L17.214,6.619,15.881,5.286,17.9,3.257,19.243,4.6M4.357,10.048v1.9H1.5v-1.9H4.357m14.286,0H21.5v1.9H18.643v-1.9M5.786,19.1H17.214a1.91,1.91,0,0,1,1.9,1.9H3.881a1.91,1.91,0,0,1,1.9-1.9M11.5,4.81a5.719,5.719,0,0,1,5.714,5.714v7.619H5.786V10.524A5.719,5.719,0,0,1,11.5,4.81m0,1.9a3.808,3.808,0,0,0-3.81,3.81v5.714H15.31V10.524A3.808,3.808,0,0,0,11.5,6.714Z" transform="translate(-1.5 -1)"/></svg>