<svg xmlns="http://www.w3.org/2000/svg" width="102.854" height="41.257" viewBox="0 0 102.854 41.257"><defs><style>.a{fill:#fff;}</style></defs><g transform="translate(-83.532 -148.839)"><g transform="translate(83.532 148.839)"><g transform="translate(0 20.814)"><path class="a" d="M90.518,265.737c-1.322-.618-2.4-1.115-2.4-2.125,0-.77.617-1.333,1.834-1.333a6.454,6.454,0,0,1,1.194.122,3.5,3.5,0,0,0,.585.064c1.063,0,1.665-.632,2.063-1.838l.164-.493a11.146,11.146,0,0,0-4.175-.833c-3.607,0-5.513,2.315-5.51,4.715a4.054,4.054,0,0,0,.973,2.777,8.737,8.737,0,0,0,2.874,1.969c1.485.728,2.828,1.269,2.828,2.348,0,.961-.992,1.506-2.315,1.506a7.219,7.219,0,0,1-3.6-1.163l-1.493,2.794a10.326,10.326,0,0,0,5.346,1.366c3.367,0,5.916-1.929,5.916-4.9C94.793,267.759,92.432,266.663,90.518,265.737Z" transform="translate(-83.532 -259.3)"/><path class="a" d="M161.308,268.527l6.1-7.488h-4.347l-4.875,6.46h-.069v-6.46h-3.586l0,15.86h.212a3.082,3.082,0,0,0,3.4-3.306v-3.642h.072l4.965,6.752h4.562Z" transform="translate(-141.155 -260.711)"/></g><g transform="translate(17.022 0)"><path class="a" d="M208.092,170.873a3.717,3.717,0,0,0-3.129,3.41c0,1.841,1.509,2.956,1.515,5.368a4.284,4.284,0,0,1-2.073,3.715c.435-.039.916-.064,1.438-.064a12.265,12.265,0,0,1,1.813.108l5.662-6.95A23.46,23.46,0,0,0,208.092,170.873Z" transform="translate(-198.651 -166.721)"/><path class="a" d="M238.24,213.709c.716-1.109.806-2.88.863-4.682.067-1.681.42-2.944,2.668-2.953.5,0,.97.066,1.829.064a13.256,13.256,0,0,0,6.785-1.891,23.533,23.533,0,0,0-11.675-3.723c-.32.909-2.83,7.881-3.018,8.446a9.424,9.424,0,0,1,1.017,1.486A16.577,16.577,0,0,1,238.24,213.709Z" transform="translate(-224.043 -190.786)"/><path class="a" d="M176.1,166.066c-.286,0-.429-.188-.467-.519s-1.453-13.288-1.664-15.251c-.033-.286-.1-.81-.1-1a.418.418,0,0,1,.426-.458,19.738,19.738,0,0,1,8.214,3.573,4.145,4.145,0,0,0-3.136,3.888c.007,2.132,1.533,3.3,1.545,5.444C180.928,165.223,176.93,166.066,176.1,166.066Z" transform="translate(-173.868 -148.839)"/><path class="a" d="M250.946,232.8a2.435,2.435,0,0,0,.174.392.394.394,0,0,0,.349.222.781.781,0,0,0,.324-.09c.3-.138,12.129-5.643,13.913-6.466.259-.122.748-.341.909-.435a.417.417,0,0,0,.176-.607,14.341,14.341,0,0,0-3.28-2.907,14.6,14.6,0,0,1-7.421,2.144c-.866,0-1.061-.055-1.652-.055-1.72.008-2.15.745-2.215,2.253-.01.286-.015.671-.035,1.092A7.535,7.535,0,0,1,250.946,232.8Z" transform="translate(-236.423 -208.951)"/></g></g><g transform="translate(118.432 172.483)"><path class="a" d="M599.878,293.079v-4.261h1.83l.642-1.646h-2.472V284.6s-.2,0-.2,0c-.976,0-1.984.414-1.984,2.551v.024h-1.619v1.646h1.619v5.019a2.12,2.12,0,1,0,4.238-.047,2.126,2.126,0,0,1-1.055.351C600.159,294.141,599.878,293.7,599.878,293.079Z" transform="translate(-534.395 -282.658)"/><path class="a" d="M270.928,301.1a1.792,1.792,0,0,1,1.651-1.892,1.77,1.77,0,0,1,1.693,1.892Zm1.687-3.534c-2.094,0-3.862,1.7-3.862,4.493,0,2.855,1.714,4.475,4.274,4.475a5.2,5.2,0,0,0,3.219-.97s-.2-.326-.256-.415a1.084,1.084,0,0,0-.969-.619c-.722,0-.815.3-1.789.3a2.206,2.206,0,0,1-2.3-2.179h5.608v-.652c0-2.673-1.542-4.435-3.927-4.435" transform="translate(-268.752 -293.19)"/><path class="a" d="M368.3,304.855c1.346,0,2.111-1.154,2.111-2.8s-.752-2.808-2.111-2.808c-1.32,0-2.113,1.146-2.113,2.808C366.187,303.659,366.941,304.855,368.3,304.855Zm0,1.681c-2.675,0-4.291-1.765-4.291-4.479s1.594-4.49,4.291-4.49,4.285,1.786,4.285,4.49c0,2.556-1.469,4.479-4.285,4.479" transform="translate(-346.06 -293.186)"/><path class="a" d="M325.945,304.16a3.8,3.8,0,0,1-2.037.612,2.722,2.722,0,0,1,0-5.432c.722,0,1.027.221,1.5.221a1.081,1.081,0,0,0,1.035-.741c.14-.271.224-.428.224-.428a5.675,5.675,0,0,0-3.094-.821,4.485,4.485,0,0,0,0,8.968,5.457,5.457,0,0,0,3.124-.884Z" transform="translate(-309.675 -293.19)"/><path class="a" d="M546.408,300.636v5.785h2.173v-6.013a2.905,2.905,0,0,1,1.747-.846,1.667,1.667,0,0,1,1.7,1.863v5h2.168v-5.539a2.99,2.99,0,0,0-3.151-3.212,3.861,3.861,0,0,0-2.611,1.141,1.407,1.407,0,0,0-1.454-.949,4.175,4.175,0,0,0-.813.11A11.8,11.8,0,0,1,546.408,300.636Z" transform="translate(-493.892 -293.27)"/><path class="a" d="M473.194,285.056v-8.947a1.686,1.686,0,0,0-1.721-1.79H471v11.616a1.631,1.631,0,0,0,1.813,1.734,1.744,1.744,0,0,0,1.844-1.961,1.717,1.717,0,0,1-.662.153A.737.737,0,0,1,473.194,285.056Z" transform="translate(-432.895 -274.319)"/><path class="a" d="M502.468,304.165a2.743,2.743,0,0,1-1.6.61,1.212,1.212,0,0,1-1.331-1.215c0-.642.619-1.2,1.8-1.2h1.13Zm.184,1.3a1.3,1.3,0,0,0,1.289.861,4.266,4.266,0,0,0,1.01-.139,8.653,8.653,0,0,1-.263-2.429v-3.011c0-2.235-1.439-3.2-3.663-3.2a6.24,6.24,0,0,0-3.36,1s.09.156.15.266c.186.318.352.788.9.788s1.012-.418,2.052-.418c1.142,0,1.7.552,1.7,1.4v.306h-.72c-2.93,0-4.473,1.132-4.473,2.95a2.684,2.684,0,0,0,2.916,2.681,3.167,3.167,0,0,0,2.461-1.058" transform="translate(-454.215 -293.172)"/><path class="a" d="M422.155,304.724a4.288,4.288,0,0,1-1.066-.131l0-5.19a4.214,4.214,0,0,1,1.064-.136,2.74,2.74,0,0,1,0,5.458Zm.284-7.244a11.658,11.658,0,0,0-3.55.547v12.7h.348a1.817,1.817,0,0,0,1.854-2.018v-2.385a6.193,6.193,0,0,0,1.5.2,4.523,4.523,0,0,0-.151-9.044" transform="translate(-390.599 -293.116)"/></g></g></svg>