<svg xmlns="http://www.w3.org/2000/svg" width="325.943" height="124.554" viewBox="0 0 325.943 124.554">
  <g id="그룹_1032" data-name="그룹 1032" transform="translate(-18.532 -599.23)">
    <g id="그룹_905" data-name="그룹 905" transform="translate(-1122.176 171.406)">
      <g id="그룹_904" data-name="그룹 904" transform="translate(1393.833 474.798)">
        <path id="패스_475" data-name="패스 475" d="M1922.209,550.594h-14.525a.626.626,0,0,1-.626-.626V475.424a.626.626,0,0,1,.626-.626h14.525a.626.626,0,0,1,.626.626v74.544A.626.626,0,0,1,1922.209,550.594Zm-13.9-1.252h13.273V476.05H1908.31Z" transform="translate(-1864.224 -474.798)" fill="#fff"/>
        <path id="패스_476" data-name="패스 476" d="M1466.025,575.794h-57.253a.626.626,0,0,1-.446-.187l-14.313-14.525a.626.626,0,0,1,.446-1.065h71.567a.626.626,0,0,1,.626.626v14.525A.626.626,0,0,1,1466.025,575.794Zm-56.991-1.252H1465.4V561.269h-69.445Z" transform="translate(-1393.833 -552.905)" fill="#fff"/>
        <path id="패스_477" data-name="패스 477" d="M1565.957,575.582a.626.626,0,0,1-.442-1.068l14.313-14.313a.626.626,0,0,1,.885.885L1566.4,575.4A.623.623,0,0,1,1565.957,575.582Z" transform="translate(-1551.018 -552.905)" fill="#fff"/>
        <path id="패스_478" data-name="패스 478" d="M1751.768,575.582a.624.624,0,0,1-.443-.183l-14.313-14.313a.626.626,0,0,1,.885-.885l14.313,14.313a.626.626,0,0,1-.443,1.068Z" transform="translate(-1708.203 -552.905)" fill="#fff"/>
        <path id="패스_479" data-name="패스 479" d="M1908.953,575.582a.626.626,0,0,1-.443-1.068l14.313-14.313a.626.626,0,0,1,.885.885L1909.4,575.4A.624.624,0,0,1,1908.953,575.582Z" transform="translate(-1865.387 -552.905)" fill="#fff"/>
        <path id="패스_480" data-name="패스 480" d="M2094.241,575.059a.624.624,0,0,1-.443-.183l-13.79-13.79a.626.626,0,0,1,.885-.885l13.79,13.79a.626.626,0,0,1-.443,1.069Z" transform="translate(-2022.572 -552.905)" fill="#fff"/>
        <path id="패스_481" data-name="패스 481" d="M1908.953,921.117a.626.626,0,0,1-.443-1.069l14.313-14.313a.626.626,0,0,1,.885.885L1909.4,920.934A.625.625,0,0,1,1908.953,921.117Z" transform="translate(-1865.387 -869.601)" fill="#fff"/>
        <path id="패스_482" data-name="패스 482" d="M1923.266,749.619a.624.624,0,0,1-.443-.183l-14.313-14.313a.626.626,0,0,1,.885-.885l14.313,14.313a.626.626,0,0,1-.443,1.069Z" transform="translate(-1865.387 -712.417)" fill="#fff"/>
        <path id="패스_483" data-name="패스 483" d="M1923.266,1092.615a.624.624,0,0,1-.443-.183l-14.313-14.313a.626.626,0,1,1,.885-.885l14.313,14.313a.626.626,0,0,1-.443,1.069Z" transform="translate(-1865.387 -1026.786)" fill="#fff"/>
      </g>
      <path id="패스_484" data-name="패스 484" d="M1598.51,757.769a4.949,4.949,0,0,1-2.643-.809,2.839,2.839,0,0,1-.879-.879,4.54,4.54,0,0,1-.27-4.721,4.326,4.326,0,0,1,3.161-2.193V734.68a.626.626,0,1,1,1.252,0v15.068a.626.626,0,0,1-.626.626,3.073,3.073,0,0,0-2.691,1.591,3.324,3.324,0,0,0,.232,3.449,1.582,1.582,0,0,0,.49.489,3.323,3.323,0,0,0,3.449.232,3.074,3.074,0,0,0,1.591-2.691.626.626,0,1,1,1.252,0,4.325,4.325,0,0,1-2.238,3.787A4.28,4.28,0,0,1,1598.51,757.769Z" transform="translate(-183.625 -237.618)" fill="#fff"/>
      <path id="패스_485" data-name="패스 485" d="M1560.656,1123.831a.626.626,0,0,1-.626-.626v-22.344a.626.626,0,1,1,1.252,0v22.344A.626.626,0,0,1,1560.656,1123.831Z" transform="translate(-152.326 -573.238)" fill="#fff"/>
      <path id="패스_486" data-name="패스 486" d="M1654.192,1123.831a.626.626,0,0,1-.626-.626v-22.344a.626.626,0,1,1,1.252,0v22.344A.626.626,0,0,1,1654.192,1123.831Z" transform="translate(-238.056 -573.238)" fill="#fff"/>
      <path id="패스_487" data-name="패스 487" d="M1490.539,1123.831H1467.12a.626.626,0,0,1-.626-.626v-22.344a.626.626,0,0,1,1.252,0v21.719h22.168v-21.719a.626.626,0,1,1,1.252,0v22.344A.626.626,0,0,1,1490.539,1123.831Z" transform="translate(-66.597 -573.238)" fill="#fff"/>
      <path id="패스_488" data-name="패스 488" d="M1490.539,1258.179H1467.12a.626.626,0,1,1,0-1.252h23.419a.626.626,0,1,1,0,1.252Z" transform="translate(-66.597 -716.852)" fill="#fff"/>
      <path id="패스_489" data-name="패스 489" d="M1472.229,903.228a.626.626,0,0,1-.307-1.172l22.993-12.935a.626.626,0,1,1,.614,1.091l-22.993,12.935A.623.623,0,0,1,1472.229,903.228Z" transform="translate(-71.279 -379.67)" fill="#fff"/>
    </g>
    <g id="그룹_910" data-name="그룹 910" transform="translate(207.71 681.75)">
      <path id="패스_490" data-name="패스 490" d="M2746.767,1103.55h-3.8a.575.575,0,1,1,0-1.149h3.221v-8.841l-7.251-7.865h-5.881v10.243a.575.575,0,0,1-1.15,0V1085.12a.575.575,0,0,1,.575-.575h6.708a.575.575,0,0,1,.423.185l7.574,8.215a.576.576,0,0,1,.152.39v9.641A.575.575,0,0,1,2746.767,1103.55Z" transform="translate(-2694.873 -1069.161)" fill="#fff"/>
      <path id="패스_491" data-name="패스 491" d="M2728.952,1318.717h-3.285a.575.575,0,0,1,0-1.149h3.285a.575.575,0,1,1,0,1.149Z" transform="translate(-2688.577 -1284.329)" fill="#fff"/>
      <path id="패스_492" data-name="패스 492" d="M2536.008,1318.717h-7.375a.575.575,0,1,1,0-1.149h7.375a.575.575,0,1,1,0,1.149Z" transform="translate(-2506.64 -1284.329)" fill="#fff"/>
      <path id="패스_493" data-name="패스 493" d="M2388.257,1318.717h-3.285a.575.575,0,1,1,0-1.149h3.285a.575.575,0,1,1,0,1.149Z" transform="translate(-2373.988 -1284.329)" fill="#fff"/>
      <g id="그룹_906" data-name="그룹 906" transform="translate(2.686 29.378)">
        <path id="패스_494" data-name="패스 494" d="M2288.047,1276.047a4.436,4.436,0,1,1,4.436-4.436A4.441,4.441,0,0,1,2288.047,1276.047Zm0-7.723a3.287,3.287,0,1,0,3.287,3.287A3.29,3.29,0,0,0,2288.047,1268.325Z" transform="translate(-2283.611 -1267.175)" fill="#fff"/>
        <path id="패스_495" data-name="패스 495" d="M2320.221,1305.551a1.766,1.766,0,1,1,1.766-1.766A1.768,1.768,0,0,1,2320.221,1305.551Zm0-2.383a.617.617,0,1,0,.617.617A.618.618,0,0,0,2320.221,1303.168Z" transform="translate(-2315.785 -1299.349)" fill="#fff"/>
      </g>
      <g id="그룹_907" data-name="그룹 907" transform="translate(13.695 29.378)">
        <path id="패스_496" data-name="패스 496" d="M2431.708,1276.047a4.436,4.436,0,1,1,4.436-4.436A4.441,4.441,0,0,1,2431.708,1276.047Zm0-7.723a3.287,3.287,0,1,0,3.287,3.287A3.29,3.29,0,0,0,2431.708,1268.325Z" transform="translate(-2427.272 -1267.175)" fill="#fff"/>
        <path id="패스_497" data-name="패스 497" d="M2463.883,1305.551a1.766,1.766,0,1,1,1.766-1.766A1.768,1.768,0,0,1,2463.883,1305.551Zm0-2.383a.617.617,0,1,0,.617.617A.617.617,0,0,0,2463.883,1303.168Z" transform="translate(-2459.447 -1299.349)" fill="#fff"/>
      </g>
      <g id="그룹_908" data-name="그룹 908" transform="translate(28.792 29.378)">
        <path id="패스_498" data-name="패스 498" d="M2628.743,1276.047a4.436,4.436,0,1,1,4.436-4.436A4.441,4.441,0,0,1,2628.743,1276.047Zm0-7.723a3.287,3.287,0,1,0,3.287,3.287A3.29,3.29,0,0,0,2628.743,1268.325Z" transform="translate(-2624.307 -1267.175)" fill="#fff"/>
        <path id="패스_499" data-name="패스 499" d="M2660.917,1305.551a1.766,1.766,0,1,1,1.766-1.766A1.768,1.768,0,0,1,2660.917,1305.551Zm0-2.383a.617.617,0,1,0,.616.617A.618.618,0,0,0,2660.917,1303.168Z" transform="translate(-2656.481 -1299.349)" fill="#fff"/>
      </g>
      <g id="그룹_909" data-name="그룹 909" transform="translate(39.801 29.378)">
        <path id="패스_500" data-name="패스 500" d="M2772.4,1276.047a4.436,4.436,0,1,1,4.436-4.436A4.441,4.441,0,0,1,2772.4,1276.047Zm0-7.723a3.287,3.287,0,1,0,3.287,3.287A3.29,3.29,0,0,0,2772.4,1268.325Z" transform="translate(-2767.969 -1267.175)" fill="#fff"/>
        <path id="패스_501" data-name="패스 501" d="M2804.579,1305.551a1.766,1.766,0,1,1,1.766-1.766A1.768,1.768,0,0,1,2804.579,1305.551Zm0-2.383a.617.617,0,1,0,.617.617A.618.618,0,0,0,2804.579,1303.168Z" transform="translate(-2800.143 -1299.349)" fill="#fff"/>
      </g>
      <path id="패스_502" data-name="패스 502" d="M2897.653,1251.587h-1.76a.575.575,0,0,1,0-1.149h1.76a.575.575,0,1,1,0,1.149Z" transform="translate(-2845.759 -1222.343)" fill="#fff"/>
      <path id="패스_503" data-name="패스 503" d="M2746.767,1192.75h-14.281a.575.575,0,0,1,0-1.149h14.281a.575.575,0,1,1,0,1.149Z" transform="translate(-2694.873 -1168.014)" fill="#fff"/>
      <path id="패스_504" data-name="패스 504" d="M2794.217,1093.9a.575.575,0,0,1-.575-.575v-8.2a.575.575,0,0,1,1.149,0v8.2A.575.575,0,0,1,2794.217,1093.9Z" transform="translate(-2751.874 -1069.161)" fill="#fff"/>
      <path id="패스_505" data-name="패스 505" d="M2249.127,1214.823a.562.562,0,0,1-.073,0,.575.575,0,0,1-.5-.642l.883-7.028a.575.575,0,0,1,.57-.5h21.56a.575.575,0,0,1,.564.467l.883,4.638a.574.574,0,1,1-1.129.215l-.794-4.171h-20.578l-.82,6.524A.575.575,0,0,1,2249.127,1214.823Z" transform="translate(-2248.551 -1181.906)" fill="#fff"/>
      <path id="패스_506" data-name="패스 506" d="M2294.24,904.836l3.631,7.41,19.272,7.015,7.544-3.342,1.944-5.342-3.631-7.41-19.272-7.015-7.544,3.342Z" transform="translate(-2290.739 -895.204)" fill="#fff" opacity="0.4"/>
      <path id="패스_507" data-name="패스 507" d="M2260.787,909.676a.575.575,0,0,1-.575-.575v-24.74a.575.575,0,0,1,.575-.575h3.857a.575.575,0,1,1,0,1.149h-3.283V909.1A.575.575,0,0,1,2260.787,909.676Z" transform="translate(-2259.319 -883.787)" fill="#fff"/>
      <path id="패스_508" data-name="패스 508" d="M2574,1004.781a.575.575,0,0,1-.54-.772l5.012-13.752a.575.575,0,0,1,1.08.394l-5.012,13.752A.575.575,0,0,1,2574,1004.781Z" transform="translate(-2548.534 -981.749)" fill="#fff"/>
      <path id="패스_509" data-name="패스 509" d="M2357.478,925.918a.575.575,0,0,1-.538-.777l5.174-13.757a.575.575,0,1,1,1.076.4l-5.174,13.757A.574.574,0,0,1,2357.478,925.918Z" transform="translate(-2348.601 -908.925)" fill="#fff"/>
    </g>
    <g id="그룹_914" data-name="그룹 914" transform="translate(55 656.787)">
      <path id="패스_510" data-name="패스 510" d="M1780.664,1878.315h-30.684a.571.571,0,0,1-.572-.571v-65.853a.572.572,0,0,1,.572-.572h30.684a.572.572,0,0,1,.572.572v65.853A.572.572,0,0,1,1780.664,1878.315Zm-30.112-1.143h29.541v-64.709h-29.541Z" transform="translate(-1732.845 -1811.318)" fill="#fff"/>
      <path id="패스_511" data-name="패스 511" d="M1551.11,2082.327h-18.444a.572.572,0,0,1-.572-.572v-49.02a.572.572,0,0,1,.572-.572h16.563a.572.572,0,1,1,0,1.143h-15.991v47.877h17.872a.572.572,0,0,1,0,1.144Z" transform="translate(-1532.095 -2015.33)" fill="#fff"/>
      <path id="패스_512" data-name="패스 512" d="M2146.33,2237.917h-18.444a.572.572,0,0,1,0-1.144h17.873v-35.039h-15.992a.572.572,0,0,1,0-1.144h16.563a.572.572,0,0,1,.571.572v36.183A.571.571,0,0,1,2146.33,2237.917Z" transform="translate(-2081.949 -2170.92)" fill="#fff"/>
      <g id="그룹_911" data-name="그룹 911" transform="translate(24.364 9.405)">
        <path id="패스_513" data-name="패스 513" d="M1853.644,1935.848h-1.317a.572.572,0,0,1,0-1.144h1.317a.572.572,0,0,1,0,1.144Z" transform="translate(-1851.756 -1934.705)" fill="#fff"/>
        <path id="패스_514" data-name="패스 514" d="M1943.951,1935.848h-1.316a.572.572,0,0,1,0-1.144h1.316a.572.572,0,0,1,0,1.144Z" transform="translate(-1935.18 -1934.705)" fill="#fff"/>
        <path id="패스_515" data-name="패스 515" d="M2034.257,1935.848h-1.317a.572.572,0,0,1,0-1.144h1.317a.572.572,0,0,1,0,1.144Z" transform="translate(-2018.603 -1934.705)" fill="#fff"/>
        <path id="패스_516" data-name="패스 516" d="M1853.644,2020.061h-1.317a.572.572,0,0,1,0-1.143h1.317a.572.572,0,0,1,0,1.143Z" transform="translate(-1851.756 -2012.499)" fill="#fff"/>
        <path id="패스_517" data-name="패스 517" d="M1943.951,2020.061h-1.316a.572.572,0,1,1,0-1.143h1.316a.572.572,0,0,1,0,1.143Z" transform="translate(-1935.18 -2012.499)" fill="#fff"/>
        <path id="패스_518" data-name="패스 518" d="M2034.257,2020.061h-1.317a.572.572,0,0,1,0-1.143h1.317a.572.572,0,0,1,0,1.143Z" transform="translate(-2018.603 -2012.499)" fill="#fff"/>
        <path id="패스_519" data-name="패스 519" d="M1853.644,2104.275h-1.317a.572.572,0,0,1,0-1.144h1.317a.572.572,0,0,1,0,1.144Z" transform="translate(-1851.756 -2090.295)" fill="#fff"/>
        <path id="패스_520" data-name="패스 520" d="M1943.951,2104.275h-1.316a.572.572,0,0,1,0-1.144h1.316a.572.572,0,0,1,0,1.144Z" transform="translate(-1935.18 -2090.295)" fill="#fff"/>
        <path id="패스_521" data-name="패스 521" d="M2034.257,2104.275h-1.317a.572.572,0,0,1,0-1.144h1.317a.572.572,0,0,1,0,1.144Z" transform="translate(-2018.603 -2090.295)" fill="#fff"/>
        <path id="패스_522" data-name="패스 522" d="M1853.644,2188.488h-1.317a.572.572,0,0,1,0-1.144h1.317a.572.572,0,0,1,0,1.144Z" transform="translate(-1851.756 -2168.089)" fill="#fff"/>
        <path id="패스_523" data-name="패스 523" d="M1943.951,2188.488h-1.316a.572.572,0,0,1,0-1.144h1.316a.572.572,0,0,1,0,1.144Z" transform="translate(-1935.18 -2168.089)" fill="#fff"/>
        <path id="패스_524" data-name="패스 524" d="M2034.257,2188.488h-1.317a.572.572,0,0,1,0-1.144h1.317a.572.572,0,0,1,0,1.144Z" transform="translate(-2018.603 -2168.089)" fill="#fff"/>
        <path id="패스_525" data-name="패스 525" d="M1853.644,2272.7h-1.317a.571.571,0,1,1,0-1.143h1.317a.571.571,0,1,1,0,1.143Z" transform="translate(-1851.756 -2245.885)" fill="#fff"/>
        <path id="패스_526" data-name="패스 526" d="M1943.951,2272.7h-1.316a.571.571,0,1,1,0-1.143h1.316a.571.571,0,1,1,0,1.143Z" transform="translate(-1935.18 -2245.885)" fill="#fff"/>
        <path id="패스_527" data-name="패스 527" d="M2034.257,2272.7h-1.317a.571.571,0,0,1,0-1.143h1.317a.571.571,0,1,1,0,1.143Z" transform="translate(-2018.603 -2245.885)" fill="#fff"/>
        <path id="패스_528" data-name="패스 528" d="M1853.644,2356.916h-1.317a.572.572,0,0,1,0-1.144h1.317a.572.572,0,0,1,0,1.144Z" transform="translate(-1851.756 -2323.679)" fill="#fff"/>
        <path id="패스_529" data-name="패스 529" d="M1943.951,2356.916h-1.316a.572.572,0,0,1,0-1.144h1.316a.572.572,0,0,1,0,1.144Z" transform="translate(-1935.18 -2323.679)" fill="#fff"/>
        <path id="패스_530" data-name="패스 530" d="M2034.257,2356.916h-1.317a.572.572,0,0,1,0-1.144h1.317a.572.572,0,0,1,0,1.144Z" transform="translate(-2018.603 -2323.679)" fill="#fff"/>
      </g>
      <g id="그룹_912" data-name="그룹 912" transform="translate(4.915 26.237)">
        <path id="패스_531" data-name="패스 531" d="M1598.473,2156.692h-1.316a.572.572,0,0,1,0-1.144h1.316a.572.572,0,0,1,0,1.144Z" transform="translate(-1596.585 -2155.549)" fill="#fff"/>
        <path id="패스_532" data-name="패스 532" d="M1673.973,2156.692h-1.317a.572.572,0,0,1,0-1.144h1.317a.572.572,0,0,1,0,1.144Z" transform="translate(-1666.331 -2155.549)" fill="#fff"/>
        <path id="패스_533" data-name="패스 533" d="M1598.473,2240.905h-1.316a.572.572,0,0,1,0-1.144h1.316a.572.572,0,1,1,0,1.144Z" transform="translate(-1596.585 -2233.343)" fill="#fff"/>
        <path id="패스_534" data-name="패스 534" d="M1673.973,2240.905h-1.317a.572.572,0,0,1,0-1.144h1.317a.572.572,0,1,1,0,1.144Z" transform="translate(-1666.331 -2233.343)" fill="#fff"/>
        <path id="패스_535" data-name="패스 535" d="M1598.473,2325.119h-1.316a.572.572,0,0,1,0-1.143h1.316a.572.572,0,1,1,0,1.143Z" transform="translate(-1596.585 -2311.139)" fill="#fff"/>
        <path id="패스_536" data-name="패스 536" d="M1673.973,2325.119h-1.317a.572.572,0,0,1,0-1.143h1.317a.572.572,0,1,1,0,1.143Z" transform="translate(-1666.331 -2311.139)" fill="#fff"/>
        <path id="패스_537" data-name="패스 537" d="M1598.473,2409.332h-1.316a.572.572,0,0,1,0-1.143h1.316a.572.572,0,1,1,0,1.143Z" transform="translate(-1596.585 -2388.933)" fill="#fff"/>
        <path id="패스_538" data-name="패스 538" d="M1673.973,2409.332h-1.317a.572.572,0,0,1,0-1.143h1.317a.572.572,0,1,1,0,1.143Z" transform="translate(-1666.331 -2388.933)" fill="#fff"/>
        <path id="패스_539" data-name="패스 539" d="M1598.473,2493.546h-1.316a.572.572,0,0,1,0-1.144h1.316a.572.572,0,0,1,0,1.144Z" transform="translate(-1596.585 -2466.728)" fill="#fff"/>
        <path id="패스_540" data-name="패스 540" d="M1673.973,2493.546h-1.317a.572.572,0,0,1,0-1.144h1.317a.572.572,0,0,1,0,1.144Z" transform="translate(-1666.331 -2466.728)" fill="#fff"/>
        <path id="패스_541" data-name="패스 541" d="M1598.473,2577.76h-1.316a.571.571,0,1,1,0-1.143h1.316a.571.571,0,1,1,0,1.143Z" transform="translate(-1596.585 -2544.524)" fill="#fff"/>
        <path id="패스_542" data-name="패스 542" d="M1673.973,2577.76h-1.317a.571.571,0,1,1,0-1.143h1.317a.571.571,0,1,1,0,1.143Z" transform="translate(-1666.331 -2544.524)" fill="#fff"/>
      </g>
      <g id="그룹_913" data-name="그룹 913" transform="translate(52.218 39.075)">
        <path id="패스_543" data-name="패스 543" d="M2219.1,2325.119h-1.316a.572.572,0,0,1,0-1.143h1.316a.572.572,0,1,1,0,1.143Z" transform="translate(-2217.211 -2323.976)" fill="#fff"/>
        <path id="패스_544" data-name="패스 544" d="M2294.6,2325.119h-1.317a.572.572,0,0,1,0-1.143h1.317a.572.572,0,1,1,0,1.143Z" transform="translate(-2286.957 -2323.976)" fill="#fff"/>
        <path id="패스_545" data-name="패스 545" d="M2219.1,2409.332h-1.316a.572.572,0,0,1,0-1.143h1.316a.572.572,0,1,1,0,1.143Z" transform="translate(-2217.211 -2401.77)" fill="#fff"/>
        <path id="패스_546" data-name="패스 546" d="M2294.6,2409.332h-1.317a.572.572,0,0,1,0-1.143h1.317a.572.572,0,1,1,0,1.143Z" transform="translate(-2286.957 -2401.77)" fill="#fff"/>
        <path id="패스_547" data-name="패스 547" d="M2219.1,2493.546h-1.316a.572.572,0,0,1,0-1.144h1.316a.572.572,0,1,1,0,1.144Z" transform="translate(-2217.211 -2479.566)" fill="#fff"/>
        <path id="패스_548" data-name="패스 548" d="M2294.6,2493.546h-1.317a.572.572,0,0,1,0-1.144h1.317a.572.572,0,1,1,0,1.144Z" transform="translate(-2286.957 -2479.566)" fill="#fff"/>
        <path id="패스_549" data-name="패스 549" d="M2219.1,2577.76h-1.316a.571.571,0,0,1,0-1.143h1.316a.571.571,0,1,1,0,1.143Z" transform="translate(-2217.211 -2557.361)" fill="#fff"/>
        <path id="패스_550" data-name="패스 550" d="M2294.6,2577.76h-1.317a.571.571,0,1,1,0-1.143h1.317a.571.571,0,1,1,0,1.143Z" transform="translate(-2286.957 -2557.361)" fill="#fff"/>
      </g>
      <rect id="사각형_827" data-name="사각형 827" width="11.133" height="14.579" transform="translate(26.91 51.27)" fill="#fff" opacity="0.62"/>
    </g>
    <g id="그룹_917" data-name="그룹 917" transform="translate(-2379.968 -1685.49)">
      <g id="그룹_915" data-name="그룹 915" transform="translate(2413.368 2391.604)">
        <path id="패스_551" data-name="패스 551" d="M2562.415,2536.092a4.656,4.656,0,0,1-3.634-7.56,1.106,1.106,0,0,0,.256-.837,3.371,3.371,0,0,1-.032-.461,3.42,3.42,0,1,1,6.811.446h0a1.109,1.109,0,0,0,.247.843,4.658,4.658,0,0,1-3.648,7.569Zm.008-10.878a2,2,0,0,0-1.29.469,2.023,2.023,0,0,0-.708,1.823,2.488,2.488,0,0,1-.548,1.9,3.245,3.245,0,0,0-.671,2.537,3.28,3.28,0,0,0,2.83,2.727,3.258,3.258,0,0,0,2.935-5.271,2.5,2.5,0,0,1-.542-1.9h0a2.05,2.05,0,0,0-.034-.72,2.011,2.011,0,0,0-1.582-1.526A2.171,2.171,0,0,0,2562.423,2525.214Z" transform="translate(-2557.766 -2523.815)" fill="#fff"/>
        <path id="패스_552" data-name="패스 552" d="M2600.884,2645a.7.7,0,0,1-.7-.7v-3.266a.7.7,0,1,1,1.4,0v3.266A.7.7,0,0,1,2600.884,2645Z" transform="translate(-2596.224 -2629.453)" fill="#fff"/>
      </g>
      <g id="그룹_916" data-name="그룹 916" transform="translate(2398.5 2377.991)">
        <path id="패스_553" data-name="패스 553" d="M2457.844,2577.75" transform="translate(-2452.304 -2559.102)" fill="#fff" stroke="#231815" stroke-linecap="round" stroke-linejoin="round" stroke-width="15"/>
        <path id="패스_554" data-name="패스 554" d="M2487.458,2578.536" transform="translate(-2479.153 -2559.814)" fill="#fff" stroke="#231815" stroke-linecap="round" stroke-linejoin="round" stroke-width="15"/>
        <path id="패스_555" data-name="패스 555" d="M2405.518,2401.661a6.5,6.5,0,0,1-2.133-.357h0a6.538,6.538,0,0,1-3.977-8.495.091.091,0,0,0-.005-.079,7.02,7.02,0,0,1,1.266-8.517.073.073,0,0,0,.019-.068,4.975,4.975,0,1,1,9.667,0,.071.071,0,0,0,.021.064,7.019,7.019,0,0,1,1.266,8.516.1.1,0,0,0,0,.083,6.545,6.545,0,0,1-5.521,8.823Q2405.815,2401.661,2405.518,2401.661Zm-1.675-1.681a5.137,5.137,0,0,0,6.484-6.672,1.494,1.494,0,0,1,.094-1.267,5.618,5.618,0,0,0-1.014-6.816,1.472,1.472,0,0,1-.412-1.408,3.576,3.576,0,0,0-3.245-4.419,3.575,3.575,0,0,0-3.8,3.568,3.587,3.587,0,0,0,.1.847,1.475,1.475,0,0,1-.411,1.412,5.62,5.62,0,0,0-1.014,6.817,1.49,1.49,0,0,1,.095,1.264,5.138,5.138,0,0,0,3.125,6.675Z" transform="translate(-2398.5 -2377.991)" fill="#fff"/>
        <path id="패스_556" data-name="패스 556" d="M2466.912,2492.339a.7.7,0,0,1-.7-.7v-18.984a.7.7,0,1,1,1.4,0v18.984A.7.7,0,0,1,2466.912,2492.339Z" transform="translate(-2459.891 -2463.182)" fill="#fff"/>
        <path id="패스_557" data-name="패스 557" d="M2466.91,2491.237a.7.7,0,0,1-.6-1.061l2.327-3.874a.7.7,0,0,1,1.2.721l-2.326,3.875A.7.7,0,0,1,2466.91,2491.237Z" transform="translate(-2459.89 -2475.883)" fill="#fff"/>
        <path id="패스_558" data-name="패스 558" d="M2442.392,2521.181a.7.7,0,0,1-.616-.365l-2.524-4.629a.7.7,0,1,1,1.229-.671l2.525,4.629a.7.7,0,0,1-.614,1.036Z" transform="translate(-2435.37 -2502.347)" fill="#fff"/>
      </g>
    </g>
    <g id="그룹_918" data-name="그룹 918" transform="translate(-2975.139 -1806.004)">
      <path id="패스_559" data-name="패스 559" d="M3113,2522.877a5.728,5.728,0,0,1-.626-.035,5.64,5.64,0,0,1-3.664-9.253,1.074,1.074,0,0,0,.236-.857,4.114,4.114,0,0,1,1.313-3.718,4.117,4.117,0,0,1,6.825,3.68,1.215,1.215,0,0,0,.284.96,5.64,5.64,0,0,1-4.37,9.223Zm.011-13.36a2.535,2.535,0,0,0-1.71.656,2.567,2.567,0,0,0-.85,1.906,2.525,2.525,0,0,0,.032.405,2.614,2.614,0,0,1-.586,2.114,4.064,4.064,0,0,0-.954,3,4.127,4.127,0,0,0,3.6,3.7,4.083,4.083,0,0,0,3.623-6.65,2.788,2.788,0,0,1-.622-2.185h0a2.593,2.593,0,0,0-.029-.925,2.567,2.567,0,0,0-2.22-2A2.709,2.709,0,0,0,3113.012,2509.517Z" fill="#fff"/>
      <path id="패스_560" data-name="패스 560" d="M3155,2641.351a.779.779,0,0,1-.779-.779v-3.124a.779.779,0,0,1,1.557,0v3.124A.779.779,0,0,1,3155,2641.351Z" transform="translate(-41.989 -115.349)" fill="#fff"/>
    </g>
    <g id="그룹_920" data-name="그룹 920" transform="translate(-2399.243 254.854)">
      <path id="패스_561" data-name="패스 561" d="M2572.249,424.459a.765.765,0,0,1-.765-.765,7.294,7.294,0,0,1,9.775-6.857,6.334,6.334,0,0,1,4.2-2.242,7.724,7.724,0,0,1,7.606-6.5,7.643,7.643,0,0,1,5.545,2.358,4.9,4.9,0,0,1,7.948,3.832q0,.148-.009.3c.171-.016.343-.023.515-.023a5.614,5.614,0,0,0,4.852,0,5.621,5.621,0,0,1,5.047,3.149,5.952,5.952,0,0,1,9.135,5.03.765.765,0,1,1-1.53,0,4.421,4.421,0,0,0-7.437-3.234.765.765,0,0,1-1.262-.366,4.087,4.087,0,0,0-6-2.5.765.765,0,0,1-.767,0,4.09,4.09,0,0,0-3.28-.357.765.765,0,0,1-.96-.963,3.368,3.368,0,0,0-5.738-3.251.757.757,0,0,1-.6.26.765.765,0,0,1-.581-.3,6.17,6.17,0,0,0-11.04,3.347.765.765,0,0,1-.763.713h-.027a4.807,4.807,0,0,0-3.97,2.109.765.765,0,0,1-.954.264,5.762,5.762,0,0,0-8.179,5.231A.765.765,0,0,1,2572.249,424.459Z" transform="translate(0 -35.873)" fill="#fff"/>
      <path id="패스_562" data-name="패스 562" d="M3062.327,555.031h-20.509a.765.765,0,1,1,0-1.53h20.509a.765.765,0,0,1,0,1.53Z" transform="translate(-421.675 -166.444)" fill="#fff"/>
      <path id="패스_563" data-name="패스 563" d="M3101.267,369.682h-35.022a.765.765,0,0,1,0-1.53h35.022a.765.765,0,0,1,0,1.53Z" transform="translate(-443.61)" fill="#fff"/>
      <g id="그룹_919" data-name="그룹 919" transform="translate(2604.165 392.821)">
        <path id="패스_564" data-name="패스 564" d="M2893.682,611.546h-1.02a.765.765,0,0,1,0-1.53h1.02a.765.765,0,1,1,0,1.53Z" transform="translate(-2891.897 -610.016)" fill="#fff"/>
        <path id="패스_565" data-name="패스 565" d="M2950.457,611.546H2948.6a.765.765,0,1,1,0-1.53h1.859a.765.765,0,0,1,0,1.53Zm-4.648,0h-1.859a.765.765,0,1,1,0-1.53h1.859a.765.765,0,0,1,0,1.53Zm-4.648,0H2939.3a.765.765,0,1,1,0-1.53h1.859a.765.765,0,1,1,0,1.53Zm-4.648,0h-1.859a.765.765,0,0,1,0-1.53h1.859a.765.765,0,1,1,0,1.53Zm-4.648,0H2930a.765.765,0,0,1,0-1.53h1.859a.765.765,0,1,1,0,1.53Z" transform="translate(-2925.431 -610.016)" fill="#fff"/>
        <path id="패스_566" data-name="패스 566" d="M3158.877,611.546h-1.02a.765.765,0,1,1,0-1.53h1.02a.765.765,0,0,1,0,1.53Z" transform="translate(-3130.043 -610.016)" fill="#fff"/>
      </g>
      <path id="패스_567" data-name="패스 567" d="M3330.417,529.482a4.039,4.039,0,1,1,4.038-4.039A4.043,4.043,0,0,1,3330.417,529.482Zm0-6.547a2.509,2.509,0,1,0,2.509,2.509A2.512,2.512,0,0,0,3330.417,522.935Z" transform="translate(-677.898 -137.622)" fill="#fff"/>
    </g>
    <g id="그룹_922" data-name="그룹 922" transform="translate(-142.894 -1422.895)">
      <path id="패스_568" data-name="패스 568" d="M208.833,2037.269a.812.812,0,0,1-.812-.812,5.948,5.948,0,0,0-9.724-4.6.812.812,0,0,1-.984.036,3.453,3.453,0,0,0-2-.634h-.034a.8.8,0,0,1-.611-.267.812.812,0,0,1-.2-.635,6.05,6.05,0,0,0,.038-.665,5.948,5.948,0,0,0-11.092-2.986.812.812,0,0,1-1.23.208,4.956,4.956,0,0,0-8.106,2.917.815.815,0,0,1-.809.674h-.078a5.955,5.955,0,0,0-5.948,5.948.812.812,0,1,1-1.624,0,7.583,7.583,0,0,1,7.005-7.551,6.58,6.58,0,0,1,9.885-3.762,7.57,7.57,0,0,1,13.62,4.553v.006a5.049,5.049,0,0,1,1.61.547,7.572,7.572,0,0,1,11.91,6.206A.812.812,0,0,1,208.833,2037.269Z" fill="#fff"/>
      <path id="패스_569" data-name="패스 569" d="M509.646,2157.222H483.909a.812.812,0,1,1,0-1.624h25.737a.812.812,0,1,1,0,1.624Z" transform="translate(-283.118 -119.026)" fill="#fff"/>
      <path id="패스_570" data-name="패스 570" d="M321.3,2211.114H295.563a.812.812,0,0,1,0-1.624H321.3a.812.812,0,0,1,0,1.624Z" transform="translate(-115.159 -167.084)" fill="#fff"/>
      <g id="그룹_921" data-name="그룹 921" transform="translate(165.886 2058.459)">
        <path id="패스_571" data-name="패스 571" d="M170.017,2430.355h-1.082a.812.812,0,1,1,0-1.624h1.082a.812.812,0,1,1,0,1.624Z" transform="translate(-168.123 -2428.732)" fill="#fff"/>
        <path id="패스_572" data-name="패스 572" d="M212.2,2430.355h-1.917a.812.812,0,0,1,0-1.624H212.2a.812.812,0,0,1,0,1.624Zm-4.791,0h-1.917a.812.812,0,1,1,0-1.624h1.917a.812.812,0,0,1,0,1.624Z" transform="translate(-200.724 -2428.732)" fill="#fff"/>
        <path id="패스_573" data-name="패스 573" d="M295.105,2430.355h-1.082a.812.812,0,1,1,0-1.624h1.082a.812.812,0,0,1,0,1.624Z" transform="translate(-279.671 -2428.732)" fill="#fff"/>
      </g>
      <path id="패스_574" data-name="패스 574" d="M365.907,2404.36a4.4,4.4,0,1,1,4.4-4.4A4.408,4.408,0,0,1,365.907,2404.36Zm0-7.183a2.78,2.78,0,1,0,2.779,2.78A2.783,2.783,0,0,0,365.907,2397.177Z" transform="translate(-174.687 -340.686)" fill="#fff"/>
    </g>
    <g id="그룹_927" data-name="그룹 927" transform="translate(-2247.304 -1692.713)">
      <g id="그룹_925" data-name="그룹 925" transform="translate(2416.206 2394.202)">
        <path id="패스_580" data-name="패스 580" d="M2563.3,2538.435a5.6,5.6,0,0,1-.644-.037,5.546,5.546,0,0,1-3.684-8.966,1.315,1.315,0,0,0,.3-1,4.073,4.073,0,1,1,8.073-.019h0a1.321,1.321,0,0,0,.294,1,5.547,5.547,0,0,1-4.344,9.014Zm.009-12.954a2.372,2.372,0,0,0-1.536.558,2.4,2.4,0,0,0-.866,1.848,2.358,2.358,0,0,0,.022.322,2.966,2.966,0,0,1-.653,2.263,3.868,3.868,0,0,0-.8,3.021,3.907,3.907,0,0,0,3.37,3.248,3.88,3.88,0,0,0,3.5-6.277,2.973,2.973,0,0,1-.646-2.266h0a2.45,2.45,0,0,0-.041-.857,2.4,2.4,0,0,0-1.884-1.818A2.6,2.6,0,0,0,2563.312,2525.481Z" transform="translate(-2557.766 -2523.815)" fill="#fff"/>
        <path id="패스_581" data-name="패스 581" d="M2601.018,2645.888a.834.834,0,0,1-.834-.834v-3.889a.834.834,0,0,1,1.667,0v3.889A.834.834,0,0,1,2601.018,2645.888Z" transform="translate(-2595.468 -2627.378)" fill="#fff"/>
      </g>
      <g id="그룹_926" data-name="그룹 926" transform="translate(2398.5 2377.991)">
        <path id="패스_582" data-name="패스 582" d="M2457.844,2577.75" transform="translate(-2451.247 -2555.542)" fill="#fff" stroke="#231815" stroke-linecap="round" stroke-linejoin="round" stroke-width="15"/>
        <path id="패스_583" data-name="패스 583" d="M2487.458,2578.536" transform="translate(-2477.568 -2556.241)" fill="#fff" stroke="#231815" stroke-linecap="round" stroke-linejoin="round" stroke-width="15"/>
        <path id="패스_584" data-name="패스 584" d="M2406.857,2406.18a7.744,7.744,0,0,1-2.54-.426h0a7.787,7.787,0,0,1-4.736-10.116.109.109,0,0,0-.006-.095,8.359,8.359,0,0,1,1.508-10.142.087.087,0,0,0,.022-.081,5.925,5.925,0,1,1,11.512.006.084.084,0,0,0,.024.076,8.359,8.359,0,0,1,1.507,10.141.118.118,0,0,0,0,.1,7.794,7.794,0,0,1-6.575,10.506Q2407.211,2406.18,2406.857,2406.18Zm-1.995-2a6.118,6.118,0,0,0,7.722-7.945,1.78,1.78,0,0,1,.112-1.509,6.691,6.691,0,0,0-1.208-8.117,1.752,1.752,0,0,1-.491-1.677,4.259,4.259,0,0,0-3.864-5.262,4.259,4.259,0,0,0-4.408,5.258,1.757,1.757,0,0,1-.49,1.681,6.692,6.692,0,0,0-1.208,8.118,1.774,1.774,0,0,1,.113,1.505,6.12,6.12,0,0,0,3.722,7.949Z" transform="translate(-2398.5 -2377.991)" fill="#fff"/>
        <path id="패스_585" data-name="패스 585" d="M2467.046,2496.23a.834.834,0,0,1-.834-.834v-22.608a.834.834,0,1,1,1.667,0V2495.4A.834.834,0,0,1,2467.046,2496.23Z" transform="translate(-2458.684 -2461.508)" fill="#fff"/>
        <path id="패스_586" data-name="패스 586" d="M2467.044,2492.244a.834.834,0,0,1-.714-1.263l2.771-4.614a.834.834,0,0,1,1.43.858l-2.771,4.614A.834.834,0,0,1,2467.044,2492.244Z" transform="translate(-2458.683 -2473.959)" fill="#fff"/>
        <path id="패스_587" data-name="패스 587" d="M2443.007,2522.332a.834.834,0,0,1-.733-.435l-3.007-5.513a.834.834,0,0,1,1.464-.8l3.007,5.513a.834.834,0,0,1-.731,1.233Z" transform="translate(-2434.645 -2499.902)" fill="#fff"/>
      </g>
    </g>
  </g>
</svg>
